Lora-BoldItalic.ufo
<glyph name="exclam" format="2">
  <advance width="255"/>
  <unicode hex="0021"/>
  <outline>
    <contour>
      <point x="149" y="716" type="curve" smooth="yes"/>
      <point x="99" y="716"/>
      <point x="72" y="668"/>
      <point x="74" y="625" type="curve" smooth="yes"/>
      <point x="90" y="213" type="line"/>
      <point x="157" y="213" type="line"/>
      <point x="215" y="625" type="line" smooth="yes"/>
      <point x="221" y="668"/>
      <point x="203" y="716"/>
    </contour>
    <contour>
      <point x="119" y="140" type="curve" smooth="yes"/>
      <point x="81" y="140"/>
      <point x="45" y="105"/>
      <point x="43" y="62" type="curve" smooth="yes"/>
      <point x="41" y="19"/>
      <point x="71" y="-16"/>
      <point x="110" y="-16" type="curve" smooth="yes"/>
      <point x="148" y="-16"/>
      <point x="184" y="19"/>
      <point x="187" y="62" type="curve" smooth="yes"/>
      <point x="188" y="105"/>
      <point x="161" y="140"/>
    </contour>
  </outline>
</glyph>
<glyph name="numbersign" format="2">
  <advance width="842"/>
  <unicode hex="0023"/>
  <outline>
    <contour>
      <point x="715" y="716" type="line"/>
      <point x="618" y="716" type="line"/>
      <point x="563" y="527" type="line"/>
      <point x="390" y="527" type="line"/>
      <point x="443" y="716" type="line"/>
      <point x="345" y="716" type="line"/>
      <point x="291" y="527" type="line"/>
      <point x="125" y="527" type="line"/>
      <point x="99" y="441" type="line"/>
      <point x="267" y="441" type="line"/>
      <point x="207" y="241" type="line"/>
      <point x="43" y="241" type="line"/>
      <point x="18" y="155" type="line"/>
      <point x="184" y="155" type="line"/>
      <point x="134" y="-16" type="line"/>
      <point x="238" y="-16" type="line"/>
      <point x="286" y="155" type="line"/>
      <point x="456" y="155" type="line"/>
      <point x="407" y="-16" type="line"/>
      <point x="511" y="-16" type="line"/>
      <point x="559" y="155" type="line"/>
      <point x="723" y="155" type="line"/>
      <point x="749" y="241" type="line"/>
      <point x="582" y="241" type="line"/>
      <point x="639" y="441" type="line"/>
      <point x="805" y="441" type="line"/>
      <point x="830" y="526" type="line"/>
      <point x="830" y="527" type="line"/>
      <point x="663" y="527" type="line"/>
    </contour>
    <contour>
      <point x="540" y="441" type="line"/>
      <point x="479" y="241" type="line"/>
      <point x="309" y="241" type="line"/>
      <point x="367" y="441" type="line"/>
    </contour>
  </outline>
</glyph>
<glyph name="ampersand" format="2">
  <advance width="685"/>
  <unicode hex="0026"/>
  <outline>
    <contour>
      <point x="287" y="-16" type="curve" smooth="yes"/>
      <point x="490" y="-16"/>
      <point x="559" y="126"/>
      <point x="569" y="234" type="curve"/>
      <point x="640" y="244"/>
      <point x="668" y="278"/>
      <point x="702" y="338" type="curve"/>
      <point x="664" y="371" type="line"/>
      <point x="618" y="327"/>
      <point x="578" y="323"/>
      <point x="536" y="323" type="curve" smooth="yes"/>
      <point x="450" y="323"/>
      <point x="414" y="306"/>
      <point x="356" y="221" type="curve"/>
      <point x="390" y="185" type="line"/>
      <point x="437" y="221"/>
      <point x="482" y="230"/>
      <point x="508" y="230" type="curve"/>
      <point x="495" y="139"/>
      <point x="444" y="53"/>
      <point x="315" y="53" type="curve" smooth="yes"/>
      <point x="236" y="53"/>
      <point x="168" y="106"/>
      <point x="175" y="204" type="curve" smooth="yes"/>
      <point x="181" y="288"/>
      <point x="241" y="347"/>
      <point x="335" y="345" type="curve" smooth="yes"/>
      <point x="370" y="344" type="line"/>
      <point x="374" y="414" type="line"/>
      <point x="356" y="414"/>
      <point x="350" y="413"/>
      <point x="340" y="413" type="curve" smooth="yes"/>
      <point x="244" y="413"/>
      <point x="218" y="479"/>
      <point x="220" y="530" type="curve" smooth="yes"/>
      <point x="224" y="604"/>
      <point x="272" y="647"/>
      <point x="322" y="648" type="curve" smooth="yes"/>
      <point x="355" y="648"/>
      <point x="377" y="640"/>
      <point x="393" y="624" type="curve"/>
      <point x="384" y="614"/>
      <point x="380" y="590"/>
      <point x="380" y="579" type="curve"/>
      <point x="382" y="542"/>
      <point x="406" y="519"/>
      <point x="443" y="519" type="curve" smooth="yes"/>
      <point x="483" y="519"/>
      <point x="509" y="552"/>
      <point x="509" y="589" type="curve" smooth="yes"/>
      <point x="509" y="660"/>
      <point x="433" y="715"/>
      <point x="311" y="716" type="curve" smooth="yes"/>
      <point x="183" y="718"/>
      <point x="74" y="646"/>
      <point x="74" y="518" type="curve" smooth="yes"/>
      <point x="74" y="453"/>
      <point x="125" y="402"/>
      <point x="207" y="386" type="curve"/>
      <point x="99" y="359"/>
      <point x="22" y="282"/>
      <point x="22" y="185" type="curve" smooth="yes"/>
      <point x="22" y="47"/>
      <point x="139" y="-16"/>
    </contour>
  </outline>
</glyph>
<glyph name="parenright" format="2">
  <advance width="296"/>
  <unicode hex="0029"/>
  <outline>
    <contour>
      <point x="70" y="760" type="curve"/>
      <point x="32" y="725" type="line"/>
      <point x="127" y="588"/>
      <point x="142" y="340"/>
      <point x="137" y="250" type="curve" smooth="yes"/>
      <point x="132" y="160"/>
      <point x="92" y="-99"/>
      <point x="-18" y="-236" type="curve"/>
      <point x="16" y="-271" type="line"/>
      <point x="120" y="-180"/>
      <point x="257" y="28"/>
      <point x="269" y="250" type="curve" smooth="yes"/>
      <point x="280" y="472"/>
      <point x="164" y="669"/>
    </contour>
  </outline>
</glyph>
<glyph name="asterisk" format="2">
  <advance width="512"/>
  <unicode hex="002A"/>
  <outline>
    <contour>
      <point x="282" y="716" type="curve" smooth="yes"/>
      <point x="238" y="716"/>
      <point x="229" y="679"/>
      <point x="228" y="645" type="curve" smooth="yes"/>
      <point x="227" y="617"/>
      <point x="230" y="577"/>
      <point x="247" y="518" type="curve"/>
      <point x="199" y="554"/>
      <point x="164" y="572"/>
      <point x="138" y="581" type="curve" smooth="yes"/>
      <point x="105" y="592"/>
      <point x="68" y="599"/>
      <point x="52" y="559" type="curve" smooth="yes"/>
      <point x="37" y="518"/>
      <point x="68" y="497"/>
      <point x="101" y="486" type="curve" smooth="yes"/>
      <point x="127" y="478"/>
      <point x="167" y="471"/>
      <point x="229" y="471" type="curve"/>
      <point x="177" y="436"/>
      <point x="146" y="406"/>
      <point x="127" y="383" type="curve" smooth="yes"/>
      <point x="106" y="355"/>
      <point x="90" y="322"/>
      <point x="123" y="296" type="curve" smooth="yes"/>
      <point x="157" y="271"/>
      <point x="187" y="298"/>
      <point x="208" y="326" type="curve" smooth="yes"/>
      <point x="227" y="348"/>
      <point x="245" y="384"/>
      <point x="268" y="443" type="curve"/>
      <point x="283" y="384"/>
      <point x="300" y="347"/>
      <point x="315" y="323" type="curve" smooth="yes"/>
      <point x="333" y="296"/>
      <point x="360" y="271"/>
      <point x="396" y="296" type="curve" smooth="yes"/>
      <point x="432" y="322"/>
      <point x="417" y="356"/>
      <point x="398" y="385" type="curve" smooth="yes"/>
      <point x="383" y="407"/>
      <point x="356" y="435"/>
      <point x="308" y="471" type="curve"/>
      <point x="370" y="471"/>
      <point x="410" y="478"/>
      <point x="438" y="486" type="curve" smooth="yes"/>
      <point x="471" y="496"/>
      <point x="505" y="515"/>
      <point x="494" y="556" type="curve" smooth="yes"/>
      <point x="482" y="596"/>
      <point x="444" y="592"/>
      <point x="410" y="581" type="curve" smooth="yes"/>
      <point x="384" y="572"/>
      <point x="347" y="554"/>
      <point x="295" y="518" type="curve"/>
      <point x="318" y="577"/>
      <point x="327" y="617"/>
      <point x="328" y="645" type="curve" smooth="yes"/>
      <point x="330" y="679"/>
      <point x="325" y="716"/>
    </contour>
  </outline>
</glyph>
<glyph name="period" format="2">
  <advance width="233"/>
  <unicode hex="002E"/>
  <outline>
    <contour>
      <point x="105" y="140" type="curve" smooth="yes"/>
      <point x="66" y="140"/>
      <point x="30" y="105"/>
      <point x="28" y="62" type="curve" smooth="yes"/>
      <point x="26" y="19"/>
      <point x="54" y="-16"/>
      <point x="98" y="-16" type="curve" smooth="yes"/>
      <point x="141" y="-16"/>
      <point x="171" y="19"/>
      <point x="173" y="62" type="curve" smooth="yes"/>
      <point x="175" y="105"/>
      <point x="146" y="140"/>
    </contour>
  </outline>
</glyph>
<glyph name="slash" format="2">
  <advance width="665"/>
  <unicode hex="002F"/>
  <outline>
    <contour>
      <point x="592" y="755" type="line"/>
      <point x="-20" y="-220" type="line"/>
      <point x="51" y="-271" type="line"/>
      <point x="677" y="697" type="line"/>
    </contour>
  </outline>
</glyph>
<glyph name="zero" format="2">
  <advance width="625"/>
  <unicode hex="0030"/>
  <outline>
    <contour>
      <point x="339" y="716" type="curve" smooth="yes"/>
      <point x="153" y="716"/>
      <point x="50" y="515"/>
      <point x="41" y="347" type="curve" smooth="yes"/>
      <point x="32" y="180"/>
      <point x="93" y="-16"/>
      <point x="296" y="-16" type="curve" smooth="yes"/>
      <point x="482" y="-16"/>
      <point x="582" y="186"/>
      <point x="590" y="352" type="curve" smooth="yes"/>
      <point x="599" y="519"/>
      <point x="533" y="716"/>
    </contour>
    <contour>
      <point x="333" y="648" type="curve" smooth="yes"/>
      <point x="437" y="648"/>
      <point x="449" y="493"/>
      <point x="440" y="331" type="curve" smooth="yes"/>
      <point x="433" y="184"/>
      <point x="401" y="52"/>
      <point x="306" y="52" type="curve" smooth="yes"/>
      <point x="192" y="52"/>
      <point x="184" y="229"/>
      <point x="191" y="368" type="curve" smooth="yes"/>
      <point x="199" y="517"/>
      <point x="237" y="648"/>
    </contour>
  </outline>
</glyph>
<glyph name="two" format="2">
  <advance width="522"/>
  <unicode hex="0032"/>
  <outline>
    <contour>
      <point x="275" y="716" type="curve" smooth="yes"/>
      <point x="134" y="716"/>
      <point x="52" y="620"/>
      <point x="49" y="560" type="curve" smooth="yes"/>
      <point x="47" y="521"/>
      <point x="67" y="488"/>
      <point x="108" y="487" type="curve" smooth="yes"/>
      <point x="158" y="486"/>
      <point x="179" y="523"/>
      <point x="181" y="549" type="curve" smooth="yes"/>
      <point x="182" y="563"/>
      <point x="177" y="588"/>
      <point x="164" y="603" type="curve"/>
      <point x="179" y="625"/>
      <point x="210" y="645"/>
      <point x="246" y="645" type="curve" smooth="yes"/>
      <point x="322" y="646"/>
      <point x="341" y="578"/>
      <point x="338" y="515" type="curve" smooth="yes"/>
      <point x="334" y="443"/>
      <point x="292" y="373"/>
      <point x="189" y="283" type="curve" smooth="yes"/>
      <point x="109" y="212"/>
      <point x="26" y="139"/>
      <point x="19" y="0" type="curve"/>
      <point x="457" y="0" type="line"/>
      <point x="473" y="163" type="line"/>
      <point x="410" y="163" type="line"/>
      <point x="407" y="107"/>
      <point x="375" y="96"/>
      <point x="331" y="98" type="curve" smooth="yes"/>
      <point x="135" y="103" type="line"/>
      <point x="143" y="129"/>
      <point x="178" y="182"/>
      <point x="254" y="242" type="curve" smooth="yes"/>
      <point x="443" y="390"/>
      <point x="486" y="459"/>
      <point x="490" y="527" type="curve" smooth="yes"/>
      <point x="497" y="667"/>
      <point x="382" y="716"/>
    </contour>
  </outline>
</glyph>
<glyph name="four" format="2">
  <advance width="533"/>
  <unicode hex="0034"/>
  <outline>
    <contour>
      <point x="180" y="0" type="line"/>
      <point x="462" y="0" type="line"/>
      <point x="466" y="77" type="line"/>
      <point x="391" y="74" type="line"/>
      <point x="395" y="91"/>
      <point x="397" y="105"/>
      <point x="398" y="131" type="curve"/>
      <point x="400" y="181" type="line"/>
      <point x="498" y="181" type="line"/>
      <point x="503" y="271" type="line"/>
      <point x="405" y="271" type="line"/>
      <point x="429" y="716" type="line"/>
      <point x="368" y="716" type="line"/>
      <point x="5" y="275" type="line"/>
      <point x="0" y="181" type="line"/>
      <point x="260" y="181" type="line"/>
      <point x="259" y="153" type="line" smooth="yes"/>
      <point x="255" y="72"/>
      <point x="228" y="68"/>
      <point x="183" y="66" type="curve"/>
    </contour>
    <contour>
      <point x="265" y="273" type="line"/>
      <point x="97" y="274" type="line"/>
      <point x="277" y="494" type="line"/>
      <point x="278" y="494" type="line"/>
    </contour>
  </outline>
</glyph>
<glyph name="eight" format="2">
  <advance width="562"/>
  <unicode hex="0038"/>
  <outline>
    <contour>
      <point x="261" y="-16" type="curve" smooth="yes"/>
      <point x="391" y="-16"/>
      <point x="512" y="42"/>
      <point x="519" y="172" type="curve" smooth="yes"/>
      <point x="524" y="272"/>
      <point x="483" y="284"/>
      <point x="381" y="382" type="curve"/>
      <point x="438" y="415"/>
      <point x="505" y="477"/>
      <point x="509" y="546" type="curve" smooth="yes"/>
      <point x="514" y="656"/>
      <point x="415" y="716"/>
      <point x="311" y="716" type="curve" smooth="yes"/>
      <point x="208" y="716"/>
      <point x="81" y="656"/>
      <point x="74" y="525" type="curve" smooth="yes"/>
      <point x="71" y="471"/>
      <point x="100" y="401"/>
      <point x="186" y="345" type="curve"/>
      <point x="118" y="307"/>
      <point x="48" y="234"/>
      <point x="44" y="158" type="curve" smooth="yes"/>
      <point x="37" y="26"/>
      <point x="167" y="-16"/>
    </contour>
    <contour>
      <point x="266" y="54" type="curve" smooth="yes"/>
      <point x="203" y="55"/>
      <point x="160" y="105"/>
      <point x="167" y="168" type="curve" smooth="yes"/>
      <point x="170" y="206"/>
      <point x="197" y="267"/>
      <point x="252" y="309" type="curve"/>
      <point x="349" y="259"/>
      <point x="376" y="201"/>
      <point x="374" y="151" type="curve" smooth="yes"/>
      <point x="371" y="96"/>
      <point x="330" y="53"/>
    </contour>
    <contour>
      <point x="318" y="422" type="curve"/>
      <point x="260" y="445"/>
      <point x="212" y="501"/>
      <point x="215" y="553" type="curve" smooth="yes"/>
      <point x="218" y="604"/>
      <point x="257" y="646"/>
      <point x="315" y="646" type="curve" smooth="yes"/>
      <point x="366" y="646"/>
      <point x="406" y="609"/>
      <point x="400" y="542" type="curve" smooth="yes"/>
      <point x="396" y="505"/>
      <point x="362" y="453"/>
    </contour>
  </outline>
</glyph>
<glyph name="nine" format="2">
  <advance width="561"/>
  <unicode hex="0039"/>
  <outline>
    <contour>
      <point x="301" y="716" type="curve" smooth="yes"/>
      <point x="158" y="716"/>
      <point x="58" y="621"/>
      <point x="50" y="487" type="curve" smooth="yes"/>
      <point x="43" y="351"/>
      <point x="104" y="250"/>
      <point x="251" y="254" type="curve" smooth="yes"/>
      <point x="301" y="256"/>
      <point x="357" y="286"/>
      <point x="380" y="311" type="curve"/>
      <point x="379" y="184"/>
      <point x="335" y="61"/>
      <point x="238" y="55" type="curve" smooth="yes"/>
      <point x="205" y="53"/>
      <point x="181" y="67"/>
      <point x="171" y="83" type="curve"/>
      <point x="182" y="94"/>
      <point x="187" y="115"/>
      <point x="188" y="126" type="curve" smooth="yes"/>
      <point x="189" y="153"/>
      <point x="177" y="189"/>
      <point x="127" y="189" type="curve" smooth="yes"/>
      <point x="86" y="189"/>
      <point x="60" y="151"/>
      <point x="58" y="115" type="curve" smooth="yes"/>
      <point x="54" y="48"/>
      <point x="102" y="-16"/>
      <point x="233" y="-16" type="curve" smooth="yes"/>
      <point x="467" y="-16"/>
      <point x="518" y="229"/>
      <point x="525" y="378" type="curve" smooth="yes"/>
      <point x="535" y="573"/>
      <point x="479" y="716"/>
    </contour>
    <contour>
      <point x="296" y="646" type="curve" smooth="yes"/>
      <point x="375" y="646"/>
      <point x="392" y="528"/>
      <point x="384" y="400" type="curve"/>
      <point x="365" y="364"/>
      <point x="325" y="334"/>
      <point x="283" y="334" type="curve" smooth="yes"/>
      <point x="200" y="334"/>
      <point x="197" y="450"/>
      <point x="201" y="510" type="curve" smooth="yes"/>
      <point x="204" y="579"/>
      <point x="236" y="646"/>
    </contour>
  </outline>
</glyph>
<glyph name="less" format="2">
  <advance width="530"/>
  <unicode hex="003C"/>
  <outline>
    <contour>
      <point x="480" y="72" type="line"/>
      <point x="486" y="173" type="line"/>
      <point x="172" y="315" type="line"/>
      <point x="500" y="457" type="line"/>
      <point x="506" y="557" type="line"/>
      <point x="45" y="357" type="line"/>
      <point x="41" y="268" type="line"/>
    </contour>
  </outline>
</glyph>
<glyph name="question" format="2">
  <advance width="485"/>
  <unicode hex="003F"/>
  <outline>
    <contour>
      <point x="225" y="181" type="curve" smooth="yes"/>
      <point x="250" y="181"/>
      <point x="291" y="186"/>
      <point x="325" y="203" type="curve"/>
      <point x="312" y="254" type="line"/>
      <point x="300" y="251"/>
      <point x="290" y="250"/>
      <point x="282" y="250" type="curve" smooth="yes"/>
      <point x="254" y="250"/>
      <point x="242" y="263"/>
      <point x="243" y="280" type="curve" smooth="yes"/>
      <point x="247" y="344"/>
      <point x="458" y="416"/>
      <point x="466" y="557" type="curve" smooth="yes"/>
      <point x="470" y="637"/>
      <point x="420" y="716"/>
      <point x="262" y="716" type="curve" smooth="yes"/>
      <point x="142" y="716"/>
      <point x="49" y="639"/>
      <point x="45" y="568" type="curve" smooth="yes"/>
      <point x="43" y="528"/>
      <point x="63" y="499"/>
      <point x="104" y="497" type="curve" smooth="yes"/>
      <point x="151" y="494"/>
      <point x="174" y="533"/>
      <point x="177" y="560" type="curve" smooth="yes"/>
      <point x="179" y="574"/>
      <point x="174" y="601"/>
      <point x="161" y="614" type="curve"/>
      <point x="174" y="629"/>
      <point x="206" y="646"/>
      <point x="239" y="646" type="curve" smooth="yes"/>
      <point x="306" y="646"/>
      <point x="324" y="599"/>
      <point x="321" y="537" type="curve" smooth="yes"/>
      <point x="317" y="461"/>
      <point x="279" y="419"/>
      <point x="230" y="373" type="curve" smooth="yes"/>
      <point x="159" y="306"/>
      <point x="144" y="283"/>
      <point x="142" y="250" type="curve" smooth="yes"/>
      <point x="139" y="200"/>
      <point x="182" y="181"/>
    </contour>
    <contour>
      <point x="225" y="-16" type="curve" smooth="yes"/>
      <point x="263" y="-16"/>
      <point x="300" y="19"/>
      <point x="302" y="62" type="curve" smooth="yes"/>
      <point x="304" y="105"/>
      <point x="275" y="140"/>
      <point x="234" y="140" type="curve" smooth="yes"/>
      <point x="195" y="140"/>
      <point x="159" y="105"/>
      <point x="157" y="62" type="curve" smooth="yes"/>
      <point x="155" y="19"/>
      <point x="186" y="-16"/>
    </contour>
  </outline>
</glyph>
<glyph name="at" format="2">
  <advance width="767"/>
  <unicode hex="0040"/>
  <outline>
    <contour>
      <point x="422" y="637" type="curve" smooth="yes"/>
      <point x="182" y="637"/>
      <point x="41" y="426"/>
      <point x="31" y="256" type="curve" smooth="yes"/>
      <point x="21" y="65"/>
      <point x="136" y="-104"/>
      <point x="380" y="-99" type="curve" smooth="yes"/>
      <point x="484" y="-97"/>
      <point x="585" y="-55"/>
      <point x="664" y="28" type="curve"/>
      <point x="643" y="55" type="line"/>
      <point x="575" y="-16"/>
      <point x="477" y="-50"/>
      <point x="396" y="-50" type="curve" smooth="yes"/>
      <point x="231" y="-50"/>
      <point x="97" y="60"/>
      <point x="108" y="262" type="curve" smooth="yes"/>
      <point x="117" y="434"/>
      <point x="244" y="594"/>
      <point x="415" y="594" type="curve" smooth="yes"/>
      <point x="562" y="594"/>
      <point x="672" y="494"/>
      <point x="663" y="312" type="curve" smooth="yes"/>
      <point x="659" y="243"/>
      <point x="627" y="119"/>
      <point x="548" y="119" type="curve" smooth="yes"/>
      <point x="515" y="119"/>
      <point x="510" y="149"/>
      <point x="511" y="178" type="curve" smooth="yes"/>
      <point x="514" y="229"/>
      <point x="542" y="374"/>
      <point x="559" y="464" type="curve"/>
      <point x="515" y="478"/>
      <point x="472" y="485"/>
      <point x="443" y="485" type="curve" smooth="yes"/>
      <point x="293" y="485"/>
      <point x="208" y="351"/>
      <point x="202" y="221" type="curve" smooth="yes"/>
      <point x="196" y="119"/>
      <point x="242" y="76"/>
      <point x="298" y="76" type="curve" smooth="yes"/>
      <point x="341" y="76"/>
      <point x="392" y="110"/>
      <point x="433" y="200" type="curve"/>
      <point x="419" y="98"/>
      <point x="470" y="74"/>
      <point x="518" y="71" type="curve" smooth="yes"/>
      <point x="601" y="66"/>
      <point x="720" y="139"/>
      <point x="732" y="303" type="curve" smooth="yes"/>
      <point x="746" y="468"/>
      <point x="642" y="637"/>
    </contour>
    <contour>
      <point x="418" y="435" type="curve" smooth="yes"/>
      <point x="430" y="436"/>
      <point x="447" y="435"/>
      <point x="455" y="432" type="curve"/>
      <point x="444" y="318"/>
      <point x="379" y="145"/>
      <point x="329" y="145" type="curve" smooth="yes"/>
      <point x="308" y="145"/>
      <point x="296" y="171"/>
      <point x="298" y="218" type="curve" smooth="yes"/>
      <point x="303" y="311"/>
      <point x="349" y="429"/>
    </contour>
  </outline>
</glyph>
<glyph name="J" format="2">
  <advance width="445"/>
  <unicode hex="004A"/>
  <anchor x="310" y="700" name="top"/>
  <outline>
    <contour>
      <point x="440" y="700" type="line"/>
      <point x="151" y="700" type="line"/>
      <point x="147" y="623" type="line"/>
      <point x="161" y="624"/>
      <point x="206" y="625"/>
      <point x="227" y="626" type="curve"/>
      <point x="224" y="609"/>
      <point x="220" y="572"/>
      <point x="218" y="536" type="curve" smooth="yes"/>
      <point x="197" y="135" type="line" smooth="yes"/>
      <point x="194" y="79"/>
      <point x="178" y="56"/>
      <point x="149" y="56" type="curve" smooth="yes"/>
      <point x="142" y="56"/>
      <point x="125" y="59"/>
      <point x="120" y="72" type="curve"/>
      <point x="126" y="84"/>
      <point x="130" y="98"/>
      <point x="130" y="109" type="curve" smooth="yes"/>
      <point x="130" y="143"/>
      <point x="112" y="177"/>
      <point x="62" y="174" type="curve" smooth="yes"/>
      <point x="17" y="172"/>
      <point x="-9" y="133"/>
      <point x="-11" y="91" type="curve" smooth="yes"/>
      <point x="-15" y="29"/>
      <point x="47" y="-16"/>
      <point x="125" y="-16" type="curve" smooth="yes"/>
      <point x="260" y="-16"/>
      <point x="335" y="62"/>
      <point x="346" y="254" type="curve" smooth="yes"/>
      <point x="361" y="547" type="line" smooth="yes"/>
      <point x="365" y="628"/>
      <point x="392" y="632"/>
      <point x="437" y="634" type="curve"/>
    </contour>
  </outline>
</glyph>
<glyph name="K" format="2">
  <advance width="711"/>
  <unicode hex="004B"/>
  <anchor x="355" y="0" name="bottom"/>
  <anchor x="393" y="700" name="top"/>
  <outline>
    <contour>
      <point x="35" y="0" type="line"/>
      <point x="320" y="0" type="line"/>
      <point x="324" y="77" type="line"/>
      <point x="310" y="77"/>
      <point x="270" y="76"/>
      <point x="249" y="74" type="curve"/>
      <point x="252" y="91"/>
      <point x="255" y="128"/>
      <point x="257" y="164" type="curve" smooth="yes"/>
      <point x="265" y="315" type="line"/>
      <point x="277" y="315"/>
      <point x="299" y="315"/>
      <point x="301" y="315" type="curve"/>
      <point x="318" y="302"/>
      <point x="339" y="271"/>
      <point x="356" y="246" type="curve"/>
      <point x="447" y="102" type="line" smooth="yes"/>
      <point x="472" y="63"/>
      <point x="523" y="1"/>
      <point x="540" y="0" type="curve"/>
      <point x="692" y="0" type="line"/>
      <point x="696" y="66" type="line"/>
      <point x="651" y="68"/>
      <point x="608" y="117"/>
      <point x="570" y="174" type="curve" smooth="yes"/>
      <point x="476" y="319" type="line" smooth="yes"/>
      <point x="462" y="341"/>
      <point x="442" y="361"/>
      <point x="417" y="378" type="curve"/>
      <point x="521" y="532" type="line" smooth="yes"/>
      <point x="581" y="621"/>
      <point x="636" y="632"/>
      <point x="681" y="634" type="curve"/>
      <point x="684" y="700" type="line"/>
      <point x="439" y="700" type="line"/>
      <point x="436" y="623" type="line"/>
      <point x="450" y="624"/>
      <point x="478" y="625"/>
      <point x="499" y="627" type="curve"/>
      <point x="481" y="612"/>
      <point x="451" y="566"/>
      <point x="425" y="526" type="curve" smooth="yes"/>
      <point x="342" y="395" type="line"/>
      <point x="269" y="395" type="line"/>
      <point x="277" y="547" type="line" smooth="yes"/>
      <point x="281" y="628"/>
      <point x="308" y="632"/>
      <point x="353" y="634" type="curve"/>
      <point x="356" y="700" type="line"/>
      <point x="72" y="700" type="line"/>
      <point x="68" y="623" type="line"/>
      <point x="82" y="624"/>
      <point x="122" y="625"/>
      <point x="143" y="626" type="curve"/>
      <point x="140" y="609"/>
      <point x="136" y="572"/>
      <point x="134" y="536" type="curve" smooth="yes"/>
      <point x="114" y="153" type="line" smooth="yes"/>
      <point x="110" y="72"/>
      <point x="83" y="68"/>
      <point x="39" y="66" type="curve"/>
    </contour>
  </outline>
</glyph>
<glyph name="L" format="2">
  <advance width="606"/>
  <unicode hex="004C"/>
  <anchor x="303" y="0" name="bottom"/>
  <anchor x="211" y="700" name="top"/>
  <outline>
    <contour>
      <point x="356" y="700" type="line"/>
      <point x="72" y="700" type="line"/>
      <point x="68" y="623" type="line"/>
      <point x="82" y="624"/>
      <point x="122" y="625"/>
      <point x="143" y="626" type="curve"/>
      <point x="140" y="609"/>
      <point x="136" y="572"/>
      <point x="134" y="536" type="curve" smooth="yes"/>
      <point x="114" y="153" type="line" smooth="yes"/>
      <point x="110" y="72"/>
      <point x="83" y="68"/>
      <point x="39" y="66" type="curve"/>
      <point x="35" y="0" type="line"/>
      <point x="566" y="0" type="line"/>
      <point x="584" y="240" type="line"/>
      <point x="518" y="240" type="line"/>
      <point x="512" y="131"/>
      <point x="461" y="77"/>
      <point x="383" y="76" type="curve" smooth="yes"/>
      <point x="249" y="76" type="line"/>
      <point x="252" y="93"/>
      <point x="255" y="128"/>
      <point x="257" y="164" type="curve" smooth="yes"/>
      <point x="277" y="547" type="line" smooth="yes"/>
      <point x="281" y="628"/>
      <point x="308" y="632"/>
      <point x="353" y="634" type="curve"/>
    </contour>
  </outline>
</glyph>
<glyph name="Q" format="2">
  <advance width="764"/>
  <unicode hex="0051"/>
  <outline>
    <contour>
      <point x="407" y="716" type="curve" smooth="yes"/>
      <point x="170" y="716"/>
      <point x="48" y="518"/>
      <point x="39" y="350" type="curve" smooth="yes"/>
      <point x="30" y="178"/>
      <point x="109" y="-16"/>
      <point x="355" y="-16" type="curve" smooth="yes"/>
      <point x="438" y="-16"/>
      <point x="471" y="-89"/>
      <point x="552" y="-164" type="curve" smooth="yes"/>
      <point x="606" y="-213"/>
      <point x="629" y="-218"/>
      <point x="722" y="-218" type="curve" smooth="yes"/>
      <point x="763" y="-218" type="line"/>
      <point x="767" y="-151" type="line"/>
      <point x="724" y="-151"/>
      <point x="719" y="-137"/>
      <point x="630" y="-51" type="curve" smooth="yes"/>
      <point x="581" y="-2"/>
      <point x="548" y="5"/>
      <point x="491" y="5" type="curve"/>
      <point x="491" y="6" type="line"/>
      <point x="645" y="63"/>
      <point x="725" y="217"/>
      <point x="732" y="350" type="curve" smooth="yes"/>
      <point x="741" y="517"/>
      <point x="650" y="716"/>
    </contour>
    <contour>
      <point x="390" y="643" type="curve" smooth="yes"/>
      <point x="529" y="646"/>
      <point x="586" y="516"/>
      <point x="576" y="333" type="curve" smooth="yes"/>
      <point x="570" y="210"/>
      <point x="518" y="58"/>
      <point x="379" y="57" type="curve" smooth="yes"/>
      <point x="228" y="56"/>
      <point x="188" y="237"/>
      <point x="194" y="362" type="curve" smooth="yes"/>
      <point x="201" y="485"/>
      <point x="252" y="640"/>
    </contour>
  </outline>
</glyph>
<glyph name="V" format="2">
  <advance width="702"/>
  <unicode hex="0056"/>
  <outline>
    <contour>
      <point x="726" y="700" type="line"/>
      <point x="500" y="700" type="line"/>
      <point x="497" y="623" type="line"/>
      <point x="511" y="624"/>
      <point x="552" y="625"/>
      <point x="574" y="627" type="curve"/>
      <point x="562" y="613"/>
      <point x="551" y="590"/>
      <point x="528" y="535" type="curve" smooth="yes"/>
      <point x="499" y="465"/>
      <point x="470" y="396"/>
      <point x="441" y="326" type="curve" smooth="yes"/>
      <point x="422" y="280"/>
      <point x="402" y="226"/>
      <point x="385" y="187" type="curve"/>
      <point x="384" y="187" type="line"/>
      <point x="366" y="237"/>
      <point x="355" y="275"/>
      <point x="335" y="331" type="curve"/>
      <point x="255" y="557" type="line" smooth="yes"/>
      <point x="234" y="616"/>
      <point x="267" y="635"/>
      <point x="317" y="634" type="curve"/>
      <point x="320" y="700" type="line"/>
      <point x="29" y="700" type="line"/>
      <point x="25" y="623" type="line"/>
      <point x="40" y="624"/>
      <point x="57" y="625"/>
      <point x="79" y="626" type="curve"/>
      <point x="78" y="604"/>
      <point x="90" y="564"/>
      <point x="102" y="531" type="curve" smooth="yes"/>
      <point x="305" y="-6" type="line"/>
      <point x="383" y="-6" type="line"/>
      <point x="459" y="172"/>
      <point x="535" y="349"/>
      <point x="611" y="527" type="curve" smooth="yes"/>
      <point x="644" y="604"/>
      <point x="677" y="632"/>
      <point x="722" y="634" type="curve"/>
    </contour>
  </outline>
</glyph>
<glyph name="W" format="2">
  <advance width="1010"/>
  <unicode hex="0057"/>
  <anchor x="547" y="700" name="top"/>
  <outline>
    <contour>
      <point x="256" y="-6" type="line"/>
      <point x="340" y="-6" type="line"/>
      <point x="474" y="369" type="line" smooth="yes"/>
      <point x="490" y="414"/>
      <point x="500" y="454"/>
      <point x="510" y="500" type="curve"/>
      <point x="511" y="500" type="line"/>
      <point x="518" y="454"/>
      <point x="525" y="404"/>
      <point x="540" y="352" type="curve" smooth="yes"/>
      <point x="640" y="-6" type="line"/>
      <point x="727" y="-6" type="line"/>
      <point x="918" y="527" type="line"/>
      <point x="948" y="605"/>
      <point x="985" y="632"/>
      <point x="1030" y="634" type="curve"/>
      <point x="1033" y="700" type="line"/>
      <point x="808" y="700" type="line"/>
      <point x="804" y="623" type="line"/>
      <point x="818" y="624"/>
      <point x="859" y="625"/>
      <point x="881" y="627" type="curve"/>
      <point x="860" y="604"/>
      <point x="846" y="567"/>
      <point x="835" y="535" type="curve"/>
      <point x="813" y="465"/>
      <point x="791" y="396"/>
      <point x="769" y="326" type="curve" smooth="yes"/>
      <point x="753" y="277"/>
      <point x="737" y="231"/>
      <point x="723" y="188" type="curve"/>
      <point x="722" y="188" type="line"/>
      <point x="714" y="237"/>
      <point x="706" y="286"/>
      <point x="694" y="332" type="curve" smooth="yes"/>
      <point x="600" y="700" type="line"/>
      <point x="510" y="700" type="line"/>
      <point x="401" y="394" type="line" smooth="yes"/>
      <point x="391" y="365"/>
      <point x="345" y="226"/>
      <point x="334" y="189" type="curve"/>
      <point x="333" y="189" type="line"/>
      <point x="324" y="253"/>
      <point x="316" y="285"/>
      <point x="307" y="331" type="curve" smooth="yes"/>
      <point x="258" y="559" type="line"/>
      <point x="245" y="620"/>
      <point x="271" y="635"/>
      <point x="321" y="634" type="curve"/>
      <point x="325" y="700" type="line"/>
      <point x="33" y="700" type="line"/>
      <point x="29" y="623" type="line"/>
      <point x="43" y="624"/>
      <point x="61" y="625"/>
      <point x="82" y="626" type="curve"/>
      <point x="81" y="604"/>
      <point x="93" y="566"/>
      <point x="105" y="533" type="curve"/>
    </contour>
  </outline>
</glyph>
<glyph name="X" format="2">
  <advance width="700"/>
  <unicode hex="0058"/>
  <outline>
    <contour>
      <point x="21" y="0" type="line"/>
      <point x="242" y="0" type="line"/>
      <point x="246" y="77" type="line"/>
      <point x="231" y="77"/>
      <point x="196" y="75"/>
      <point x="174" y="73" type="curve"/>
      <point x="191" y="90"/>
      <point x="203" y="104"/>
      <point x="233" y="142" type="curve"/>
      <point x="327" y="263" type="line"/>
      <point x="422" y="134" type="line" smooth="yes"/>
      <point x="451" y="96"/>
      <point x="459" y="66"/>
      <point x="386" y="66" type="curve"/>
      <point x="382" y="0" type="line"/>
      <point x="679" y="0" type="line"/>
      <point x="683" y="77" type="line"/>
      <point x="668" y="77"/>
      <point x="666" y="76"/>
      <point x="644" y="74" type="curve"/>
      <point x="634" y="97"/>
      <point x="615" y="122"/>
      <point x="594" y="150" type="curve" smooth="yes"/>
      <point x="418" y="390" type="line"/>
      <point x="521" y="521" type="line" smooth="yes"/>
      <point x="578" y="594"/>
      <point x="622" y="628"/>
      <point x="668" y="634" type="curve"/>
      <point x="672" y="700" type="line"/>
      <point x="444" y="700" type="line"/>
      <point x="440" y="623" type="line"/>
      <point x="455" y="624"/>
      <point x="494" y="625"/>
      <point x="515" y="627" type="curve"/>
      <point x="497" y="610"/>
      <point x="483" y="596"/>
      <point x="453" y="558" type="curve"/>
      <point x="371" y="453" type="line"/>
      <point x="289" y="566" type="line" smooth="yes"/>
      <point x="261" y="604"/>
      <point x="262" y="634"/>
      <point x="335" y="634" type="curve"/>
      <point x="339" y="700" type="line"/>
      <point x="37" y="700" type="line"/>
      <point x="33" y="623" type="line"/>
      <point x="47" y="624"/>
      <point x="52" y="625"/>
      <point x="73" y="626" type="curve"/>
      <point x="86" y="592"/>
      <point x="107" y="560"/>
      <point x="128" y="532" type="curve" smooth="yes"/>
      <point x="178" y="464"/>
      <point x="229" y="396"/>
      <point x="279" y="328" type="curve"/>
      <point x="154" y="173" type="line" smooth="yes"/>
      <point x="102" y="107"/>
      <point x="63" y="75"/>
      <point x="25" y="66" type="curve"/>
    </contour>
  </outline>
</glyph>
<glyph name="Y" format="2">
  <advance width="665"/>
  <unicode hex="0059"/>
  <anchor x="319" y="0" name="bottom"/>
  <anchor x="377" y="700" name="top"/>
  <anchor x="33" y="700" name="topleft"/>
  <outline>
    <contour>
      <point x="190" y="0" type="line"/>
      <point x="480" y="0" type="line"/>
      <point x="484" y="77" type="line"/>
      <point x="470" y="77"/>
      <point x="425" y="76"/>
      <point x="404" y="74" type="curve"/>
      <point x="407" y="91"/>
      <point x="411" y="128"/>
      <point x="413" y="164" type="curve" smooth="yes"/>
      <point x="418" y="277" type="line"/>
      <point x="562" y="527" type="line"/>
      <point x="604" y="600"/>
      <point x="634" y="627"/>
      <point x="681" y="634" type="curve"/>
      <point x="684" y="700" type="line"/>
      <point x="463" y="700" type="line"/>
      <point x="459" y="623" type="line"/>
      <point x="474" y="624"/>
      <point x="515" y="625"/>
      <point x="536" y="626" type="curve"/>
      <point x="518" y="605"/>
      <point x="490" y="556"/>
      <point x="479" y="535" type="curve" smooth="yes"/>
      <point x="460" y="501"/>
      <point x="440" y="467"/>
      <point x="421" y="433" type="curve" smooth="yes"/>
      <point x="395" y="382"/>
      <point x="377" y="351"/>
      <point x="370" y="335" type="curve"/>
      <point x="368" y="335" type="line"/>
      <point x="359" y="364"/>
      <point x="331" y="416"/>
      <point x="323" y="432" type="curve" smooth="yes"/>
      <point x="300" y="474"/>
      <point x="276" y="515"/>
      <point x="253" y="557" type="curve" smooth="yes"/>
      <point x="224" y="612"/>
      <point x="258" y="638"/>
      <point x="316" y="634" type="curve"/>
      <point x="319" y="700" type="line"/>
      <point x="27" y="700" type="line"/>
      <point x="23" y="623" type="line"/>
      <point x="38" y="624"/>
      <point x="50" y="625"/>
      <point x="72" y="626" type="curve"/>
      <point x="71" y="604"/>
      <point x="87" y="562"/>
      <point x="105" y="531" type="curve" smooth="yes"/>
      <point x="274" y="240" type="line"/>
      <point x="270" y="153" type="line" smooth="yes"/>
      <point x="266" y="72"/>
      <point x="239" y="68"/>
      <point x="194" y="66" type="curve"/>
    </contour>
  </outline>
</glyph>
<glyph name="bracketleft" format="2">
  <advance width="388"/>
  <unicode hex="005B"/>
  <outline>
    <contour>
      <point x="406" y="755" type="line"/>
      <point x="86" y="755" type="line"/>
      <point x="32" y="-255" type="line"/>
      <point x="355" y="-255" type="line"/>
      <point x="359" y="-184" type="line"/>
      <point x="160" y="-181" type="line"/>
      <point x="209" y="681" type="line"/>
      <point x="402" y="684" type="line"/>
    </contour>
  </outline>
</glyph>
<glyph name="backslash" format="2">
  <advance width="792"/>
  <unicode hex="005C"/>
  <outline>
    <contour>
      <point x="669" y="-271" type="line"/>
      <point x="740" y="-220" type="line"/>
      <point x="128" y="755" type="line"/>
      <point x="44" y="697" type="line"/>
    </contour>
  </outline>
</glyph>
<glyph name="underscore" format="2">
  <advance width="835"/>
  <unicode hex="005F"/>
  <outline>
    <contour>
      <point x="82" y="-50" type="line"/>
      <point x="82" y="-151" type="line"/>
      <point x="696" y="-151" type="line"/>
      <point x="696" y="-54" type="line"/>
    </contour>
  </outline>
</glyph>
<glyph name="a" format="2">
  <advance width="549"/>
  <unicode hex="0061"/>
  <anchor x="262" y="0" name="bottom"/>
  <anchor x="462" y="5" name="ogonek"/>
  <anchor x="324" y="500" name="top"/>
  <outline>
    <contour>
      <point x="327" y="511" type="curve" smooth="yes"/>
      <point x="135" y="511"/>
      <point x="25" y="354"/>
      <point x="25" y="171" type="curve" smooth="yes"/>
      <point x="25" y="47"/>
      <point x="85" y="-11"/>
      <point x="158" y="-11" type="curve" smooth="yes"/>
      <point x="219" y="-11"/>
      <point x="279" y="22"/>
      <point x="328" y="138" type="curve"/>
      <point x="329" y="138" type="line"/>
      <point x="326" y="121"/>
      <point x="325" y="97"/>
      <point x="325" y="80" type="curve" smooth="yes"/>
      <point x="325" y="9"/>
      <point x="362" y="-11"/>
      <point x="405" y="-11" type="curve" smooth="yes"/>
      <point x="493" y="-11"/>
      <point x="533" y="88"/>
      <point x="544" y="145" type="curve"/>
      <point x="490" y="161" type="line"/>
      <point x="473" y="101"/>
      <point x="455" y="82"/>
      <point x="439" y="82" type="curve" smooth="yes"/>
      <point x="432" y="82"/>
      <point x="425" y="87"/>
      <point x="425" y="111" type="curve" smooth="yes"/>
      <point x="425" y="179"/>
      <point x="457" y="390"/>
      <point x="471" y="490" type="curve"/>
      <point x="416" y="503"/>
      <point x="364" y="511"/>
    </contour>
    <contour>
      <point x="290" y="445" type="curve" smooth="yes"/>
      <point x="305" y="445"/>
      <point x="324" y="441"/>
      <point x="331" y="439" type="curve"/>
      <point x="323" y="289"/>
      <point x="273" y="78"/>
      <point x="200" y="78" type="curve" smooth="yes"/>
      <point x="176" y="78"/>
      <point x="162" y="111"/>
      <point x="162" y="166" type="curve" smooth="yes"/>
      <point x="162" y="349"/>
      <point x="214" y="445"/>
    </contour>
  </outline>
</glyph>
<glyph name="b" format="2">
  <advance width="513"/>
  <unicode hex="0062"/>
  <outline>
    <contour>
      <point x="225" y="755" type="curve"/>
      <point x="171" y="755" type="line"/>
      <point x="156" y="742"/>
      <point x="111" y="725"/>
      <point x="19" y="725" type="curve"/>
      <point x="15" y="649" type="line"/>
      <point x="29" y="650"/>
      <point x="63" y="651"/>
      <point x="84" y="652" type="curve"/>
      <point x="80" y="623"/>
      <point x="77" y="583"/>
      <point x="76" y="560" type="curve" smooth="yes"/>
      <point x="63" y="350"/>
      <point x="55" y="228"/>
      <point x="47" y="16" type="curve"/>
      <point x="99" y="-4"/>
      <point x="175" y="-11"/>
      <point x="207" y="-11" type="curve" smooth="yes"/>
      <point x="403" y="-11"/>
      <point x="478" y="140"/>
      <point x="478" y="320" type="curve" smooth="yes"/>
      <point x="478" y="420"/>
      <point x="436" y="511"/>
      <point x="335" y="511" type="curve" smooth="yes"/>
      <point x="293" y="511"/>
      <point x="232" y="480"/>
      <point x="187" y="393" type="curve"/>
      <point x="186" y="393" type="line"/>
      <point x="195" y="447"/>
      <point x="201" y="529"/>
      <point x="204" y="551" type="curve" smooth="yes"/>
      <point x="208" y="591"/>
      <point x="217" y="697"/>
    </contour>
    <contour>
      <point x="295" y="419" type="curve" smooth="yes"/>
      <point x="318" y="419"/>
      <point x="341" y="397"/>
      <point x="341" y="325" type="curve" smooth="yes"/>
      <point x="341" y="231"/>
      <point x="330" y="55"/>
      <point x="221" y="55" type="curve" smooth="yes"/>
      <point x="208" y="55"/>
      <point x="183" y="59"/>
      <point x="172" y="64" type="curve"/>
      <point x="176" y="254"/>
      <point x="230" y="419"/>
    </contour>
  </outline>
</glyph>
<glyph name="g" format="2">
  <advance width="520"/>
  <unicode hex="0067"/>
  <anchor x="301" y="500" name="top"/>
  <outline>
    <contour>
      <point x="182" y="-271" type="curve" smooth="yes"/>
      <point x="354" y="-271"/>
      <point x="421" y="-149"/>
      <point x="438" y="40" type="curve" smooth="yes"/>
      <point x="449" y="156"/>
      <point x="465" y="395"/>
      <point x="470" y="490" type="curve"/>
      <point x="416" y="503"/>
      <point x="354" y="511"/>
      <point x="317" y="511" type="curve" smooth="yes"/>
      <point x="113" y="511"/>
      <point x="27" y="356"/>
      <point x="27" y="171" type="curve" smooth="yes"/>
      <point x="27" y="47"/>
      <point x="92" y="-11"/>
      <point x="165" y="-11" type="curve" smooth="yes"/>
      <point x="226" y="-11"/>
      <point x="285" y="21"/>
      <point x="335" y="138" type="curve"/>
      <point x="336" y="138" type="line"/>
      <point x="320" y="84"/>
      <point x="311" y="37"/>
      <point x="302" y="-33" type="curve" smooth="yes"/>
      <point x="290" y="-132"/>
      <point x="271" y="-205"/>
      <point x="191" y="-205" type="curve" smooth="yes"/>
      <point x="176" y="-205"/>
      <point x="149" y="-198"/>
      <point x="143" y="-188" type="curve"/>
      <point x="147" y="-179"/>
      <point x="149" y="-167"/>
      <point x="149" y="-158" type="curve" smooth="yes"/>
      <point x="149" y="-120"/>
      <point x="122" y="-95"/>
      <point x="86" y="-95" type="curve" smooth="yes"/>
      <point x="39" y="-95"/>
      <point x="19" y="-139"/>
      <point x="19" y="-168" type="curve" smooth="yes"/>
      <point x="19" y="-235"/>
      <point x="83" y="-271"/>
    </contour>
    <contour>
      <point x="206" y="78" type="curve" smooth="yes"/>
      <point x="182" y="78"/>
      <point x="163" y="111"/>
      <point x="163" y="166" type="curve" smooth="yes"/>
      <point x="163" y="344"/>
      <point x="201" y="444"/>
      <point x="293" y="445" type="curve" smooth="yes"/>
      <point x="310" y="445"/>
      <point x="331" y="442"/>
      <point x="339" y="439" type="curve"/>
      <point x="331" y="289"/>
      <point x="278" y="78"/>
    </contour>
  </outline>
</glyph>
<glyph name="l" format="2">
  <advance width="303"/>
  <unicode hex="006C"/>
  <anchor x="173" y="0" name="bottom"/>
  <anchor x="152" y="701" name="top"/>
  <anchor x="293" y="500" name="topright"/>
  <outline>
    <contour>
      <point x="243" y="755" type="curve"/>
      <point x="189" y="755" type="line"/>
      <point x="174" y="742"/>
      <point x="130" y="725"/>
      <point x="38" y="725" type="curve"/>
      <point x="34" y="649" type="line"/>
      <point x="48" y="650"/>
      <point x="83" y="651"/>
      <point x="104" y="652" type="curve"/>
      <point x="99" y="623"/>
      <point x="94" y="585"/>
      <point x="91" y="559" type="curve" smooth="yes"/>
      <point x="71" y="389"/>
      <point x="49" y="206"/>
      <point x="49" y="85" type="curve" smooth="yes"/>
      <point x="49" y="15"/>
      <point x="91" y="-11"/>
      <point x="139" y="-11" type="curve" smooth="yes"/>
      <point x="235" y="-11"/>
      <point x="276" y="78"/>
      <point x="293" y="145" type="curve"/>
      <point x="239" y="161" type="line"/>
      <point x="222" y="101"/>
      <point x="206" y="82"/>
      <point x="190" y="82" type="curve" smooth="yes"/>
      <point x="183" y="82"/>
      <point x="176" y="87"/>
      <point x="176" y="111" type="curve" smooth="yes"/>
      <point x="176" y="163"/>
      <point x="187" y="264"/>
      <point x="224" y="585" type="curve" smooth="yes"/>
      <point x="229" y="636"/>
      <point x="236" y="692"/>
    </contour>
  </outline>
</glyph>
<glyph name="m" format="2">
  <advance width="878"/>
  <unicode hex="006D"/>
  <outline>
    <contour>
      <point x="721" y="-11" type="curve" smooth="yes"/>
      <point x="812" y="-11"/>
      <point x="861" y="88"/>
      <point x="873" y="145" type="curve"/>
      <point x="818" y="161" type="line"/>
      <point x="801" y="101"/>
      <point x="785" y="82"/>
      <point x="770" y="82" type="curve" smooth="yes"/>
      <point x="763" y="82"/>
      <point x="755" y="86"/>
      <point x="755" y="108" type="curve" smooth="yes"/>
      <point x="755" y="181"/>
      <point x="780" y="284"/>
      <point x="780" y="357" type="curve" smooth="yes"/>
      <point x="780" y="451"/>
      <point x="744" y="511"/>
      <point x="659" y="511" type="curve" smooth="yes"/>
      <point x="602" y="511"/>
      <point x="539" y="480"/>
      <point x="492" y="360" type="curve"/>
      <point x="491" y="360" type="line"/>
      <point x="493" y="373"/>
      <point x="493" y="385"/>
      <point x="493" y="396" type="curve" smooth="yes"/>
      <point x="493" y="468"/>
      <point x="460" y="511"/>
      <point x="395" y="511" type="curve" smooth="yes"/>
      <point x="338" y="511"/>
      <point x="268" y="480"/>
      <point x="221" y="360" type="curve"/>
      <point x="220" y="360" type="line"/>
      <point x="223" y="383"/>
      <point x="226" y="394"/>
      <point x="226" y="420" type="curve" smooth="yes"/>
      <point x="226" y="491"/>
      <point x="185" y="511"/>
      <point x="142" y="511" type="curve" smooth="yes"/>
      <point x="55" y="511"/>
      <point x="20" y="412"/>
      <point x="8" y="355" type="curve"/>
      <point x="63" y="339" type="line"/>
      <point x="80" y="399"/>
      <point x="96" y="418"/>
      <point x="111" y="418" type="curve" smooth="yes"/>
      <point x="118" y="418"/>
      <point x="125" y="414"/>
      <point x="125" y="392" type="curve" smooth="yes"/>
      <point x="125" y="365"/>
      <point x="114" y="291"/>
      <point x="105" y="215" type="curve" smooth="yes"/>
      <point x="96" y="152"/>
      <point x="89" y="87"/>
      <point x="89" y="48" type="curve" smooth="yes"/>
      <point x="89" y="35"/>
      <point x="89" y="28"/>
      <point x="92" y="0" type="curve"/>
      <point x="220" y="0" type="line"/>
      <point x="219" y="16"/>
      <point x="217" y="54"/>
      <point x="217" y="72" type="curve" smooth="yes"/>
      <point x="217" y="212"/>
      <point x="295" y="419"/>
      <point x="356" y="419" type="curve" smooth="yes"/>
      <point x="376" y="419"/>
      <point x="384" y="407"/>
      <point x="384" y="377" type="curve" smooth="yes"/>
      <point x="384" y="315"/>
      <point x="361" y="181"/>
      <point x="361" y="67" type="curve" smooth="yes"/>
      <point x="361" y="55"/>
      <point x="361" y="28"/>
      <point x="364" y="0" type="curve"/>
      <point x="493" y="0" type="line"/>
      <point x="491" y="25"/>
      <point x="490" y="59"/>
      <point x="490" y="77" type="curve" smooth="yes"/>
      <point x="490" y="217"/>
      <point x="563" y="419"/>
      <point x="624" y="419" type="curve" smooth="yes"/>
      <point x="645" y="419"/>
      <point x="652" y="407"/>
      <point x="652" y="377" type="curve" smooth="yes"/>
      <point x="652" y="315"/>
      <point x="627" y="181"/>
      <point x="627" y="102" type="curve" smooth="yes"/>
      <point x="627" y="31"/>
      <point x="647" y="-11"/>
    </contour>
  </outline>
</glyph>
<glyph name="p" format="2">
  <advance width="575"/>
  <unicode hex="0070"/>
  <outline>
    <contour>
      <point x="28" y="-255" type="line"/>
      <point x="281" y="-255" type="line"/>
      <point x="281" y="-179" type="line"/>
      <point x="267" y="-179"/>
      <point x="236" y="-180"/>
      <point x="215" y="-182" type="curve"/>
      <point x="219" y="-151"/>
      <point x="222" y="-107"/>
      <point x="227" y="-10" type="curve"/>
      <point x="238" y="-11"/>
      <point x="252" y="-11"/>
      <point x="259" y="-11" type="curve" smooth="yes"/>
      <point x="450" y="-11"/>
      <point x="541" y="130"/>
      <point x="541" y="320" type="curve" smooth="yes"/>
      <point x="541" y="433"/>
      <point x="489" y="511"/>
      <point x="393" y="511" type="curve" smooth="yes"/>
      <point x="340" y="511"/>
      <point x="269" y="480"/>
      <point x="222" y="360" type="curve"/>
      <point x="221" y="360" type="line"/>
      <point x="224" y="383"/>
      <point x="225" y="394"/>
      <point x="225" y="420" type="curve" smooth="yes"/>
      <point x="225" y="491"/>
      <point x="186" y="511"/>
      <point x="143" y="511" type="curve" smooth="yes"/>
      <point x="55" y="511"/>
      <point x="20" y="412"/>
      <point x="9" y="355" type="curve"/>
      <point x="63" y="339" type="line"/>
      <point x="80" y="399"/>
      <point x="96" y="418"/>
      <point x="111" y="418" type="curve" smooth="yes"/>
      <point x="119" y="418"/>
      <point x="126" y="413"/>
      <point x="126" y="389" type="curve" smooth="yes"/>
      <point x="126" y="347"/>
      <point x="120" y="213"/>
      <point x="91" y="-100" type="curve" smooth="yes"/>
      <point x="86" y="-152"/>
      <point x="78" y="-190"/>
      <point x="28" y="-190" type="curve"/>
    </contour>
    <contour>
      <point x="271" y="55" type="curve" smooth="yes"/>
      <point x="263" y="55"/>
      <point x="245" y="57"/>
      <point x="231" y="61" type="curve"/>
      <point x="234" y="100"/>
      <point x="238" y="135"/>
      <point x="242" y="168" type="curve" smooth="yes"/>
      <point x="263" y="333"/>
      <point x="302" y="420"/>
      <point x="356" y="420" type="curve" smooth="yes"/>
      <point x="385" y="420"/>
      <point x="405" y="392"/>
      <point x="405" y="319" type="curve" smooth="yes"/>
      <point x="405" y="240"/>
      <point x="385" y="55"/>
    </contour>
  </outline>
</glyph>
<glyph name="w" format="2">
  <advance width="795"/>
  <unicode hex="0077"/>
  <anchor x="414" y="500" name="top"/>
  <outline>
    <contour>
      <point x="634" y="511" type="curve" smooth="yes"/>
      <point x="577" y="511"/>
      <point x="558" y="469"/>
      <point x="558" y="441" type="curve" smooth="yes"/>
      <point x="558" y="397"/>
      <point x="593" y="379"/>
      <point x="620" y="379" type="curve" smooth="yes"/>
      <point x="639" y="379"/>
      <point x="654" y="388"/>
      <point x="666" y="397" type="curve"/>
      <point x="680" y="383"/>
      <point x="691" y="350"/>
      <point x="691" y="320" type="curve" smooth="yes"/>
      <point x="691" y="183"/>
      <point x="588" y="64"/>
      <point x="519" y="64" type="curve" smooth="yes"/>
      <point x="488" y="64"/>
      <point x="479" y="100"/>
      <point x="479" y="121" type="curve" smooth="yes"/>
      <point x="479" y="181"/>
      <point x="502" y="366"/>
      <point x="502" y="452" type="curve" smooth="yes"/>
      <point x="502" y="465"/>
      <point x="502" y="472"/>
      <point x="500" y="500" type="curve"/>
      <point x="371" y="500" type="line"/>
      <point x="372" y="484"/>
      <point x="374" y="446"/>
      <point x="374" y="428" type="curve" smooth="yes"/>
      <point x="374" y="308"/>
      <point x="347" y="64"/>
      <point x="250" y="64" type="curve" smooth="yes"/>
      <point x="223" y="64"/>
      <point x="222" y="100"/>
      <point x="222" y="121" type="curve" smooth="yes"/>
      <point x="222" y="181"/>
      <point x="246" y="309"/>
      <point x="246" y="395" type="curve" smooth="yes"/>
      <point x="246" y="458"/>
      <point x="226" y="511"/>
      <point x="149" y="511" type="curve" smooth="yes"/>
      <point x="59" y="511"/>
      <point x="9" y="412"/>
      <point x="-2" y="355" type="curve"/>
      <point x="52" y="339" type="line"/>
      <point x="69" y="399"/>
      <point x="85" y="418"/>
      <point x="101" y="418" type="curve" smooth="yes"/>
      <point x="108" y="418"/>
      <point x="117" y="414"/>
      <point x="117" y="392" type="curve" smooth="yes"/>
      <point x="117" y="344"/>
      <point x="94" y="214"/>
      <point x="94" y="145" type="curve" smooth="yes"/>
      <point x="94" y="48"/>
      <point x="130" y="-11"/>
      <point x="216" y="-11" type="curve" smooth="yes"/>
      <point x="284" y="-11"/>
      <point x="354" y="27"/>
      <point x="383" y="135" type="curve"/>
      <point x="373" y="56"/>
      <point x="397" y="-11"/>
      <point x="484" y="-11" type="curve" smooth="yes"/>
      <point x="646" y="-11"/>
      <point x="765" y="187"/>
      <point x="765" y="329" type="curve" smooth="yes"/>
      <point x="765" y="428"/>
      <point x="720" y="511"/>
    </contour>
  </outline>
</glyph>
<glyph name="asciitilde" format="2">
  <advance width="530"/>
  <unicode hex="007E"/>
  <outline>
    <contour>
      <point x="366" y="201" type="curve" smooth="yes"/>
      <point x="418" y="201"/>
      <point x="458" y="223"/>
      <point x="488" y="253" type="curve"/>
      <point x="494" y="371" type="line"/>
      <point x="457" y="340"/>
      <point x="412" y="320"/>
      <point x="364" y="324" type="curve" smooth="yes"/>
      <point x="293" y="330"/>
      <point x="280" y="399"/>
      <point x="177" y="399" type="curve" smooth="yes"/>
      <point x="125" y="399"/>
      <point x="91" y="380"/>
      <point x="47" y="346" type="curve"/>
      <point x="41" y="228" type="line"/>
      <point x="79" y="254"/>
      <point x="113" y="276"/>
      <point x="167" y="276" type="curve" smooth="yes"/>
      <point x="247" y="276"/>
      <point x="265" y="201"/>
    </contour>
  </outline>
</glyph>
<glyph name="cent" format="2">
  <advance width="488"/>
  <unicode hex="00A2"/>
  <outline>
    <contour>
      <point x="339" y="625" type="line"/>
      <point x="237" y="625" type="line"/>
      <point x="225" y="504" type="line"/>
      <point x="96" y="470"/>
      <point x="34" y="321"/>
      <point x="34" y="207" type="curve" smooth="yes"/>
      <point x="34" y="86"/>
      <point x="87" y="18"/>
      <point x="170" y="-3" type="curve"/>
      <point x="157" y="-134" type="line"/>
      <point x="253" y="-134" type="line"/>
      <point x="267" y="-8" type="line"/>
      <point x="336" y="2"/>
      <point x="399" y="45"/>
      <point x="449" y="157" type="curve"/>
      <point x="392" y="185" type="line"/>
      <point x="350" y="91"/>
      <point x="291" y="78"/>
      <point x="254" y="81" type="curve" smooth="yes"/>
      <point x="212" y="85"/>
      <point x="167" y="124"/>
      <point x="171" y="233" type="curve" smooth="yes"/>
      <point x="173" y="313"/>
      <point x="193" y="445"/>
      <point x="279" y="445" type="curve" smooth="yes"/>
      <point x="302" y="445"/>
      <point x="321" y="435"/>
      <point x="326" y="423" type="curve"/>
      <point x="319" y="410"/>
      <point x="316" y="393"/>
      <point x="316" y="381" type="curve" smooth="yes"/>
      <point x="316" y="358"/>
      <point x="333" y="321"/>
      <point x="378" y="322" type="curve" smooth="yes"/>
      <point x="417" y="323"/>
      <point x="442" y="351"/>
      <point x="442" y="391" type="curve" smooth="yes"/>
      <point x="442" y="451"/>
      <point x="395" y="494"/>
      <point x="327" y="507" type="curve"/>
    </contour>
  </outline>
</glyph>
<glyph name="ordfeminine" format="2">
  <advance width="406"/>
  <unicode hex="00AA"/>
  <outline>
    <contour>
      <point x="243" y="716" type="curve" smooth="yes"/>
      <point x="119" y="716"/>
      <point x="47" y="620"/>
      <point x="47" y="485" type="curve" smooth="yes"/>
      <point x="47" y="405"/>
      <point x="94" y="367"/>
      <point x="140" y="367" type="curve" smooth="yes"/>
      <point x="180" y="367"/>
      <point x="214" y="389"/>
      <point x="246" y="463" type="curve"/>
      <point x="247" y="463" type="line"/>
      <point x="245" y="453"/>
      <point x="243" y="437"/>
      <point x="243" y="426" type="curve" smooth="yes"/>
      <point x="243" y="382"/>
      <point x="264" y="367"/>
      <point x="301" y="367" type="curve" smooth="yes"/>
      <point x="362" y="367"/>
      <point x="391" y="431"/>
      <point x="398" y="468" type="curve"/>
      <point x="365" y="478" type="line"/>
      <point x="354" y="439"/>
      <point x="340" y="427"/>
      <point x="330" y="427" type="curve" smooth="yes"/>
      <point x="325" y="427"/>
      <point x="320" y="431"/>
      <point x="320" y="446" type="curve" smooth="yes"/>
      <point x="320" y="490"/>
      <point x="343" y="638"/>
      <point x="353" y="703" type="curve"/>
      <point x="317" y="711"/>
      <point x="267" y="716"/>
    </contour>
    <contour>
      <point x="219" y="666" type="curve" smooth="yes"/>
      <point x="229" y="667"/>
      <point x="245" y="664"/>
      <point x="250" y="662" type="curve"/>
      <point x="245" y="568"/>
      <point x="210" y="437"/>
      <point x="174" y="437" type="curve" smooth="yes"/>
      <point x="157" y="437"/>
      <point x="148" y="459"/>
      <point x="149" y="494" type="curve" smooth="yes"/>
      <point x="154" y="623"/>
      <point x="183" y="664"/>
    </contour>
  </outline>
</glyph>
<glyph name="registered" format="2">
  <advance width="890"/>
  <unicode hex="00AE"/>
  <outline>
    <contour>
      <point x="473" y="755" type="curve" smooth="yes"/>
      <point x="235" y="755"/>
      <point x="48" y="568"/>
      <point x="36" y="340" type="curve" smooth="yes"/>
      <point x="24" y="103"/>
      <point x="183" y="-71"/>
      <point x="428" y="-71" type="curve" smooth="yes"/>
      <point x="656" y="-71"/>
      <point x="847" y="112"/>
      <point x="859" y="339" type="curve" smooth="yes"/>
      <point x="871" y="567"/>
      <point x="713" y="755"/>
    </contour>
    <contour>
      <point x="468" y="697" type="curve" smooth="yes"/>
      <point x="674" y="697"/>
      <point x="799" y="533"/>
      <point x="789" y="340" type="curve" smooth="yes"/>
      <point x="779" y="147"/>
      <point x="640" y="-14"/>
      <point x="434" y="-14" type="curve" smooth="yes"/>
      <point x="221" y="-14"/>
      <point x="97" y="147"/>
      <point x="107" y="340" type="curve" smooth="yes"/>
      <point x="117" y="533"/>
      <point x="264" y="697"/>
    </contour>
    <contour>
      <point x="244" y="162" type="curve"/>
      <point x="241" y="118" type="line"/>
      <point x="440" y="118" type="line"/>
      <point x="443" y="170" type="line"/>
      <point x="434" y="169"/>
      <point x="401" y="169"/>
      <point x="387" y="168" type="curve"/>
      <point x="388" y="179"/>
      <point x="390" y="205"/>
      <point x="391" y="229" type="curve" smooth="yes"/>
      <point x="395" y="297" type="line"/>
      <point x="409" y="297"/>
      <point x="418" y="297"/>
      <point x="433" y="297" type="curve"/>
      <point x="439" y="287"/>
      <point x="439" y="281"/>
      <point x="494" y="181" type="curve" smooth="yes"/>
      <point x="509" y="152"/>
      <point x="526" y="130"/>
      <point x="541" y="118" type="curve"/>
      <point x="644" y="118" type="line"/>
      <point x="646" y="162" type="line"/>
      <point x="610" y="164"/>
      <point x="608" y="174"/>
      <point x="555" y="268" type="curve" smooth="yes"/>
      <point x="544" y="287"/>
      <point x="534" y="304"/>
      <point x="517" y="311" type="curve"/>
      <point x="597" y="333"/>
      <point x="628" y="384"/>
      <point x="633" y="441" type="curve" smooth="yes"/>
      <point x="643" y="548"/>
      <point x="570" y="586"/>
      <point x="453" y="586" type="curve" smooth="yes"/>
      <point x="391" y="586"/>
      <point x="328" y="585"/>
      <point x="266" y="585" type="curve"/>
      <point x="263" y="533" type="line"/>
      <point x="273" y="533"/>
      <point x="299" y="534"/>
      <point x="314" y="535" type="curve"/>
      <point x="312" y="524"/>
      <point x="309" y="500"/>
      <point x="308" y="474" type="curve" smooth="yes"/>
      <point x="295" y="221" type="line" smooth="yes"/>
      <point x="292" y="166"/>
      <point x="274" y="164"/>
    </contour>
    <contour>
      <point x="397" y="357" type="curve"/>
      <point x="404" y="476" type="line" smooth="yes"/>
      <point x="406" y="520"/>
      <point x="420" y="530"/>
      <point x="448" y="530" type="curve" smooth="yes"/>
      <point x="476" y="530"/>
      <point x="536" y="524"/>
      <point x="532" y="447" type="curve" smooth="yes"/>
      <point x="528" y="388"/>
      <point x="491" y="354"/>
      <point x="425" y="354" type="curve" smooth="yes"/>
      <point x="415" y="354"/>
      <point x="409" y="354"/>
    </contour>
  </outline>
</glyph>
<glyph name="degree" format="2">
  <advance width="384"/>
  <unicode hex="00B0"/>
  <outline>
    <contour>
      <point x="219" y="716" type="curve" smooth="yes"/>
      <point x="130" y="716"/>
      <point x="51" y="647"/>
      <point x="46" y="556" type="curve" smooth="yes"/>
      <point x="42" y="465"/>
      <point x="101" y="395"/>
      <point x="199" y="395" type="curve" smooth="yes"/>
      <point x="288" y="395"/>
      <point x="368" y="465"/>
      <point x="373" y="556" type="curve" smooth="yes"/>
      <point x="377" y="647"/>
      <point x="318" y="716"/>
    </contour>
    <contour>
      <point x="213" y="648" type="curve" smooth="yes"/>
      <point x="261" y="648"/>
      <point x="289" y="613"/>
      <point x="289" y="560" type="curve" smooth="yes"/>
      <point x="289" y="508"/>
      <point x="254" y="465"/>
      <point x="204" y="465" type="curve" smooth="yes"/>
      <point x="157" y="465"/>
      <point x="130" y="502"/>
      <point x="130" y="553" type="curve" smooth="yes"/>
      <point x="130" y="604"/>
      <point x="167" y="648"/>
    </contour>
  </outline>
</glyph>
<glyph name="threesuperior" format="2">
  <advance width="365"/>
  <unicode hex="00B3"/>
  <outline>
    <contour>
      <point x="171" y="292" type="curve" smooth="yes"/>
      <point x="282" y="292"/>
      <point x="340" y="350"/>
      <point x="341" y="423" type="curve" smooth="yes"/>
      <point x="341" y="473"/>
      <point x="314" y="510"/>
      <point x="251" y="522" type="curve"/>
      <point x="291" y="533"/>
      <point x="329" y="571"/>
      <point x="331" y="611" type="curve" smooth="yes"/>
      <point x="335" y="682"/>
      <point x="278" y="716"/>
      <point x="202" y="716" type="curve" smooth="yes"/>
      <point x="108" y="716"/>
      <point x="63" y="661"/>
      <point x="62" y="623" type="curve" smooth="yes"/>
      <point x="60" y="593"/>
      <point x="78" y="573"/>
      <point x="108" y="572" type="curve" smooth="yes"/>
      <point x="145" y="571"/>
      <point x="158" y="602"/>
      <point x="159" y="619" type="curve" smooth="yes"/>
      <point x="160" y="626"/>
      <point x="157" y="643"/>
      <point x="147" y="652" type="curve"/>
      <point x="152" y="656"/>
      <point x="165" y="664"/>
      <point x="183" y="664" type="curve" smooth="yes"/>
      <point x="216" y="664"/>
      <point x="237" y="641"/>
      <point x="235" y="605" type="curve" smooth="yes"/>
      <point x="234" y="575"/>
      <point x="213" y="536"/>
      <point x="163" y="536" type="curve" smooth="yes"/>
      <point x="152" y="536"/>
      <point x="140" y="537"/>
      <point x="128" y="538" type="curve"/>
      <point x="125" y="484" type="line"/>
      <point x="133" y="484"/>
      <point x="149" y="485"/>
      <point x="159" y="485" type="curve" smooth="yes"/>
      <point x="212" y="485"/>
      <point x="242" y="455"/>
      <point x="240" y="413" type="curve" smooth="yes"/>
      <point x="237" y="374"/>
      <point x="210" y="344"/>
      <point x="169" y="344" type="curve" smooth="yes"/>
      <point x="158" y="344"/>
      <point x="135" y="348"/>
      <point x="126" y="361" type="curve"/>
      <point x="137" y="370"/>
      <point x="142" y="389"/>
      <point x="142" y="396" type="curve" smooth="yes"/>
      <point x="143" y="420"/>
      <point x="133" y="447"/>
      <point x="96" y="446" type="curve" smooth="yes"/>
      <point x="66" y="445"/>
      <point x="45" y="418"/>
      <point x="43" y="389" type="curve" smooth="yes"/>
      <point x="41" y="340"/>
      <point x="88" y="292"/>
    </contour>
  </outline>
</glyph>
<glyph name="acute" format="2">
  <advance width="292"/>
  <unicode hex="00B4"/>
  <anchor x="146" y="500" name="_top"/>
  <outline>
    <contour>
      <point x="89" y="565" type="line"/>
      <point x="216" y="671" type="line" smooth="yes"/>
      <point x="245" y="695"/>
      <point x="260" y="742"/>
      <point x="229" y="770" type="curve" smooth="yes"/>
      <point x="200" y="796"/>
      <point x="156" y="780"/>
      <point x="134" y="746" type="curve" smooth="yes"/>
      <point x="45" y="606" type="line"/>
    </contour>
  </outline>
</glyph>
<glyph name="ordmasculine" format="2">
  <advance width="368"/>
  <unicode hex="00BA"/>
  <outline>
    <contour>
      <point x="217" y="716" type="curve" smooth="yes"/>
      <point x="114" y="716"/>
      <point x="47" y="625"/>
      <point x="47" y="520" type="curve" smooth="yes"/>
      <point x="47" y="436"/>
      <point x="93" y="364"/>
      <point x="185" y="364" type="curve" smooth="yes"/>
      <point x="289" y="364"/>
      <point x="354" y="461"/>
      <point x="354" y="564" type="curve" smooth="yes"/>
      <point x="354" y="660"/>
      <point x="292" y="716"/>
    </contour>
    <contour>
      <point x="209" y="666" type="curve" smooth="yes"/>
      <point x="238" y="666"/>
      <point x="249" y="623"/>
      <point x="249" y="550" type="curve" smooth="yes"/>
      <point x="249" y="478"/>
      <point x="230" y="417"/>
      <point x="193" y="417" type="curve" smooth="yes"/>
      <point x="164" y="417"/>
      <point x="152" y="462"/>
      <point x="152" y="530" type="curve" smooth="yes"/>
      <point x="152" y="610"/>
      <point x="175" y="666"/>
    </contour>
  </outline>
</glyph>
<glyph name="Oslash" format="2">
  <advance width="761"/>
  <unicode hex="00D8"/>
  <anchor x="368" y="0" name="bottom"/>
  <anchor x="405" y="700" name="top"/>
  <outline>
    <contour>
      <point x="159" y="-102" type="line"/>
      <point x="229" y="7" type="line"/>
      <point x="267" y="-8"/>
      <point x="312" y="-16"/>
      <point x="365" y="-16" type="curve" smooth="yes"/>
      <point x="601" y="-16"/>
      <point x="721" y="185"/>
      <point x="730" y="350" type="curve" smooth="yes"/>
      <point x="735" y="449"/>
      <point x="706" y="560"/>
      <point x="630" y="633" type="curve"/>
      <point x="694" y="734" type="line"/>
      <point x="618" y="783" type="line"/>
      <point x="555" y="685" type="line"/>
      <point x="514" y="705"/>
      <point x="464" y="716"/>
      <point x="406" y="716" type="curve" smooth="yes"/>
      <point x="169" y="716"/>
      <point x="48" y="518"/>
      <point x="40" y="350" type="curve" smooth="yes"/>
      <point x="34" y="239"/>
      <point x="64" y="122"/>
      <point x="152" y="50" type="curve"/>
      <point x="87" y="-52" type="line"/>
    </contour>
    <contour>
      <point x="225" y="165" type="line"/>
      <point x="198" y="226"/>
      <point x="190" y="301"/>
      <point x="194" y="362" type="curve" smooth="yes"/>
      <point x="200" y="485"/>
      <point x="252" y="645"/>
      <point x="389" y="648" type="curve" smooth="yes"/>
      <point x="437" y="649"/>
      <point x="476" y="634"/>
      <point x="505" y="605" type="curve"/>
    </contour>
    <contour>
      <point x="379" y="52" type="curve" smooth="yes"/>
      <point x="338" y="52"/>
      <point x="306" y="65"/>
      <point x="280" y="86" type="curve"/>
      <point x="556" y="518" type="line"/>
      <point x="573" y="467"/>
      <point x="580" y="403"/>
      <point x="576" y="333" type="curve" smooth="yes"/>
      <point x="570" y="210"/>
      <point x="517" y="53"/>
    </contour>
  </outline>
</glyph>
<glyph name="Thorn" format="2">
  <advance width="630"/>
  <unicode hex="00DE"/>
  <outline>
    <contour>
      <point x="35" y="0" type="line"/>
      <point x="320" y="0" type="line"/>
      <point x="324" y="77" type="line"/>
      <point x="310" y="77"/>
      <point x="270" y="76"/>
      <point x="249" y="74" type="curve"/>
      <point x="251" y="89"/>
      <point x="254" y="120"/>
      <point x="256" y="152" type="curve"/>
      <point x="276" y="151"/>
      <point x="293" y="151"/>
      <point x="321" y="152" type="curve" smooth="yes"/>
      <point x="510" y="157"/>
      <point x="609" y="252"/>
      <point x="618" y="359" type="curve" smooth="yes"/>
      <point x="630" y="518"/>
      <point x="514" y="573"/>
      <point x="339" y="571" type="curve" smooth="yes"/>
      <point x="319" y="571"/>
      <point x="299" y="570"/>
      <point x="279" y="570" type="curve"/>
      <point x="287" y="628"/>
      <point x="313" y="632"/>
      <point x="353" y="634" type="curve"/>
      <point x="356" y="700" type="line"/>
      <point x="72" y="700" type="line"/>
      <point x="68" y="623" type="line"/>
      <point x="82" y="624"/>
      <point x="122" y="625"/>
      <point x="143" y="626" type="curve"/>
      <point x="140" y="609"/>
      <point x="136" y="572"/>
      <point x="134" y="536" type="curve" smooth="yes"/>
      <point x="114" y="153" type="line" smooth="yes"/>
      <point x="110" y="72"/>
      <point x="83" y="68"/>
      <point x="39" y="66" type="curve"/>
    </contour>
    <contour>
      <point x="260" y="225" type="curve"/>
      <point x="275" y="500" type="line"/>
      <point x="291" y="500"/>
      <point x="310" y="500"/>
      <point x="333" y="500" type="curve" smooth="yes"/>
      <point x="375" y="500"/>
      <point x="471" y="497"/>
      <point x="464" y="368" type="curve" smooth="yes"/>
      <point x="459" y="271"/>
      <point x="407" y="223"/>
      <point x="297" y="223" type="curve" smooth="yes"/>
      <point x="284" y="223"/>
      <point x="272" y="224"/>
    </contour>
  </outline>
</glyph>
<glyph name="eth" format="2">
  <advance width="522"/>
  <unicode hex="00F0"/>
  <outline>
    <contour>
      <point x="290" y="790" type="line"/>
      <point x="235" y="723" type="line"/>
      <point x="205" y="738"/>
      <point x="161" y="754"/>
      <point x="103" y="760" type="curve"/>
      <point x="86" y="689" type="line"/>
      <point x="122" y="682"/>
      <point x="151" y="670"/>
      <point x="174" y="656" type="curve"/>
      <point x="123" y="599" type="line"/>
      <point x="180" y="546" type="line"/>
      <point x="242" y="617" type="line"/>
      <point x="287" y="591"/>
      <point x="344" y="510"/>
      <point x="350" y="455" type="curve"/>
      <point x="330" y="477"/>
      <point x="304" y="500"/>
      <point x="253" y="500" type="curve" smooth="yes"/>
      <point x="93" y="500"/>
      <point x="29" y="336"/>
      <point x="29" y="221" type="curve" smooth="yes"/>
      <point x="29" y="51"/>
      <point x="124" y="-11"/>
      <point x="229" y="-11" type="curve" smooth="yes"/>
      <point x="398" y="-11"/>
      <point x="475" y="142"/>
      <point x="475" y="312" type="curve" smooth="yes"/>
      <point x="475" y="481"/>
      <point x="401" y="610"/>
      <point x="291" y="688" type="curve"/>
      <point x="345" y="738" type="line"/>
    </contour>
    <contour>
      <point x="269" y="435" type="curve" smooth="yes"/>
      <point x="331" y="435"/>
      <point x="344" y="354"/>
      <point x="344" y="260" type="curve" smooth="yes"/>
      <point x="344" y="177"/>
      <point x="320" y="55"/>
      <point x="243" y="55" type="curve" smooth="yes"/>
      <point x="181" y="55"/>
      <point x="163" y="128"/>
      <point x="163" y="227" type="curve" smooth="yes"/>
      <point x="163" y="325"/>
      <point x="191" y="435"/>
    </contour>
  </outline>
</glyph>
<glyph name="thorn" format="2">
  <advance width="520"/>
  <unicode hex="00FE"/>
  <outline>
    <contour>
      <point x="225" y="755" type="curve"/>
      <point x="171" y="755" type="line"/>
      <point x="156" y="742"/>
      <point x="111" y="725"/>
      <point x="19" y="725" type="curve"/>
      <point x="15" y="649" type="line"/>
      <point x="29" y="650"/>
      <point x="63" y="651"/>
      <point x="84" y="652" type="curve"/>
      <point x="80" y="623"/>
      <point x="79" y="583"/>
      <point x="77" y="560" type="curve" smooth="yes"/>
      <point x="63" y="322"/>
      <point x="54" y="153"/>
      <point x="38" y="-100" type="curve" smooth="yes"/>
      <point x="35" y="-152"/>
      <point x="25" y="-190"/>
      <point x="-25" y="-190" type="curve"/>
      <point x="-25" y="-255" type="line"/>
      <point x="229" y="-255" type="line"/>
      <point x="229" y="-179" type="line"/>
      <point x="214" y="-179"/>
      <point x="184" y="-180"/>
      <point x="162" y="-182" type="curve"/>
      <point x="166" y="-152"/>
      <point x="169" y="-111"/>
      <point x="170" y="-92" type="curve" smooth="yes"/>
      <point x="174" y="-10" type="line"/>
      <point x="186" y="-11"/>
      <point x="203" y="-11"/>
      <point x="210" y="-11" type="curve" smooth="yes"/>
      <point x="401" y="-11"/>
      <point x="484" y="131"/>
      <point x="484" y="321" type="curve" smooth="yes"/>
      <point x="484" y="426"/>
      <point x="442" y="511"/>
      <point x="342" y="511" type="curve" smooth="yes"/>
      <point x="288" y="511"/>
      <point x="235" y="481"/>
      <point x="188" y="390" type="curve"/>
      <point x="187" y="390" type="line"/>
      <point x="196" y="464"/>
      <point x="199" y="490"/>
      <point x="205" y="551" type="curve" smooth="yes"/>
      <point x="212" y="619"/>
      <point x="218" y="687"/>
    </contour>
    <contour>
      <point x="294" y="420" type="curve" smooth="yes"/>
      <point x="323" y="420"/>
      <point x="348" y="393"/>
      <point x="348" y="320" type="curve" smooth="yes"/>
      <point x="348" y="241"/>
      <point x="336" y="55"/>
      <point x="223" y="55" type="curve" smooth="yes"/>
      <point x="213" y="55"/>
      <point x="192" y="58"/>
      <point x="177" y="62" type="curve"/>
      <point x="191" y="306"/>
      <point x="234" y="420"/>
    </contour>
  </outline>
</glyph>
<glyph name="hbar" format="2">
  <advance width="574"/>
  <unicode hex="0127"/>
  <outline>
    <contour>
      <point x="358" y="608" type="line"/>
      <point x="23" y="608" type="line"/>
      <point x="21" y="555" type="line"/>
      <point x="356" y="559" type="line"/>
    </contour>
    <component base="h"/>
  </outline>
</glyph>
<glyph name="idotless" format="2">
  <advance width="344"/>
  <unicode hex="0131"/>
  <anchor x="159" y="0" name="bottom"/>
  <anchor x="247" y="8" name="ogonek"/>
  <anchor x="185" y="500" name="top"/>
  <outline>
    <contour>
      <point x="156" y="511" type="curve" smooth="yes"/>
      <point x="66" y="511"/>
      <point x="13" y="412"/>
      <point x="2" y="355" type="curve"/>
      <point x="56" y="339" type="line"/>
      <point x="73" y="399"/>
      <point x="89" y="418"/>
      <point x="104" y="418" type="curve" smooth="yes"/>
      <point x="112" y="418"/>
      <point x="120" y="414"/>
      <point x="120" y="392" type="curve" smooth="yes"/>
      <point x="120" y="329"/>
      <point x="87" y="180"/>
      <point x="87" y="102" type="curve" smooth="yes"/>
      <point x="87" y="31"/>
      <point x="109" y="-11"/>
      <point x="183" y="-11" type="curve" smooth="yes"/>
      <point x="273" y="-11"/>
      <point x="324" y="88"/>
      <point x="335" y="145" type="curve"/>
      <point x="281" y="161" type="line"/>
      <point x="264" y="101"/>
      <point x="248" y="82"/>
      <point x="232" y="82" type="curve" smooth="yes"/>
      <point x="225" y="82"/>
      <point x="217" y="86"/>
      <point x="217" y="108" type="curve" smooth="yes"/>
      <point x="217" y="152"/>
      <point x="249" y="330"/>
      <point x="249" y="395" type="curve" smooth="yes"/>
      <point x="249" y="466"/>
      <point x="225" y="511"/>
    </contour>
  </outline>
</glyph>
<glyph name="lslash" format="2">
  <advance width="344"/>
  <unicode hex="0142"/>
  <outline>
    <contour>
      <point x="264" y="755" type="line"/>
      <point x="210" y="755" type="line"/>
      <point x="195" y="742"/>
      <point x="151" y="725"/>
      <point x="59" y="725" type="curve"/>
      <point x="55" y="649" type="line"/>
      <point x="125" y="652" type="line"/>
      <point x="119" y="616"/>
      <point x="101" y="471"/>
      <point x="87" y="348" type="curve"/>
      <point x="9" y="294" type="line"/>
      <point x="3" y="185" type="line"/>
      <point x="77" y="235" type="line"/>
      <point x="72" y="180"/>
      <point x="70" y="128"/>
      <point x="70" y="85" type="curve" smooth="yes"/>
      <point x="70" y="15"/>
      <point x="112" y="-11"/>
      <point x="160" y="-11" type="curve" smooth="yes"/>
      <point x="256" y="-11"/>
      <point x="297" y="78"/>
      <point x="314" y="145" type="curve"/>
      <point x="260" y="161" type="line"/>
      <point x="243" y="101"/>
      <point x="227" y="82"/>
      <point x="211" y="82" type="curve" smooth="yes"/>
      <point x="204" y="82"/>
      <point x="197" y="87"/>
      <point x="197" y="111" type="curve" smooth="yes"/>
      <point x="197" y="146"/>
      <point x="202" y="203"/>
      <point x="216" y="331" type="curve"/>
      <point x="328" y="413" type="line"/>
      <point x="334" y="514" type="line"/>
      <point x="229" y="443" type="line"/>
    </contour>
  </outline>
</glyph>
<glyph name="Eng" format="2">
  <advance width="772"/>
  <unicode hex="014A"/>
  <guideline x="582" y="512" angle="90"/>
  <outline>
    <contour>
      <point x="656" y="88" type="line"/>
      <point x="572" y="88" type="line"/>
      <point x="562" y="-115" type="line" smooth="yes"/>
      <point x="557" y="-171"/>
      <point x="531" y="-194"/>
      <point x="484" y="-194" type="curve" smooth="yes"/>
      <point x="464" y="-194"/>
      <point x="448" y="-191"/>
      <point x="445" y="-178" type="curve"/>
      <point x="451" y="-166"/>
      <point x="455" y="-152"/>
      <point x="455" y="-141" type="curve" smooth="yes"/>
      <point x="455" y="-107"/>
      <point x="437" y="-73"/>
      <point x="387" y="-76" type="curve" smooth="yes"/>
      <point x="342" y="-79"/>
      <point x="321" y="-109"/>
      <point x="319" y="-151" type="curve" smooth="yes"/>
      <point x="316" y="-213"/>
      <point x="376" y="-266"/>
      <point x="460" y="-266" type="curve" smooth="yes"/>
      <point x="577" y="-266"/>
      <point x="644" y="-188"/>
      <point x="652" y="4" type="curve" smooth="yes"/>
    </contour>
    <component base="N"/>
  </outline>
</glyph>
<glyph name="eng" format="2">
  <advance width="616"/>
  <unicode hex="014B"/>
  <outline>
    <contour>
      <point x="263" y="-257" type="curve" smooth="yes"/>
      <point x="423" y="-257"/>
      <point x="502" y="-122"/>
      <point x="535" y="106" type="curve" smooth="yes"/>
      <point x="544" y="178"/>
      <point x="556" y="252"/>
      <point x="556" y="307" type="curve" smooth="yes"/>
      <point x="556" y="424"/>
      <point x="518" y="511"/>
      <point x="402" y="511" type="curve" smooth="yes"/>
      <point x="344" y="511"/>
      <point x="268" y="480"/>
      <point x="221" y="360" type="curve"/>
      <point x="220" y="360" type="line"/>
      <point x="223" y="383"/>
      <point x="226" y="394"/>
      <point x="226" y="420" type="curve" smooth="yes"/>
      <point x="226" y="491"/>
      <point x="185" y="511"/>
      <point x="142" y="511" type="curve" smooth="yes"/>
      <point x="55" y="511"/>
      <point x="20" y="412"/>
      <point x="8" y="355" type="curve"/>
      <point x="63" y="339" type="line"/>
      <point x="80" y="399"/>
      <point x="96" y="418"/>
      <point x="111" y="418" type="curve" smooth="yes"/>
      <point x="118" y="418"/>
      <point x="125" y="414"/>
      <point x="125" y="392" type="curve" smooth="yes"/>
      <point x="125" y="367"/>
      <point x="116" y="300"/>
      <point x="106" y="230" type="curve" smooth="yes"/>
      <point x="98" y="162"/>
      <point x="89" y="90"/>
      <point x="89" y="48" type="curve" smooth="yes"/>
      <point x="89" y="35"/>
      <point x="89" y="28"/>
      <point x="92" y="0" type="curve"/>
      <point x="221" y="0" type="line"/>
      <point x="220" y="16"/>
      <point x="218" y="54"/>
      <point x="218" y="72" type="curve" smooth="yes"/>
      <point x="218" y="212"/>
      <point x="295" y="419"/>
      <point x="376" y="419" type="curve" smooth="yes"/>
      <point x="423" y="419"/>
      <point x="428" y="380"/>
      <point x="428" y="327" type="curve" smooth="yes"/>
      <point x="428" y="281"/>
      <point x="418" y="200"/>
      <point x="408" y="106" type="curve" smooth="yes"/>
      <point x="386" y="-82"/>
      <point x="328" y="-194"/>
      <point x="261" y="-194" type="curve" smooth="yes"/>
      <point x="244" y="-194"/>
      <point x="229" y="-186"/>
      <point x="221" y="-177" type="curve"/>
      <point x="227" y="-168"/>
      <point x="230" y="-153"/>
      <point x="230" y="-144" type="curve" smooth="yes"/>
      <point x="230" y="-106"/>
      <point x="203" y="-81"/>
      <point x="167" y="-81" type="curve" smooth="yes"/>
      <point x="120" y="-81"/>
      <point x="100" y="-125"/>
      <point x="100" y="-154" type="curve" smooth="yes"/>
      <point x="100" y="-221"/>
      <point x="164" y="-257"/>
    </contour>
  </outline>
</glyph>
<glyph name="circumflex" format="2">
  <advance width="429"/>
  <unicode hex="02C6"/>
  <anchor x="214" y="500" name="_top"/>
  <outline>
    <contour>
      <point x="341" y="567" type="line"/>
      <point x="385" y="613" type="line"/>
      <point x="233" y="783" type="line"/>
      <point x="223" y="783" type="line"/>
      <point x="44" y="618" type="line"/>
      <point x="79" y="571" type="line"/>
      <point x="215" y="671" type="line"/>
      <point x="216" y="671" type="line"/>
    </contour>
  </outline>
</glyph>
<glyph name="breve" format="2">
  <advance width="395"/>
  <unicode hex="02D8"/>
  <anchor x="198" y="500" name="_top"/>
  <outline>
    <contour>
      <point x="196" y="601" type="curve" smooth="yes"/>
      <point x="264" y="601"/>
      <point x="315" y="643"/>
      <point x="350" y="740" type="curve"/>
      <point x="295" y="764" type="line"/>
      <point x="276" y="727"/>
      <point x="247" y="690"/>
      <point x="200" y="690" type="curve" smooth="yes"/>
      <point x="153" y="690"/>
      <point x="124" y="726"/>
      <point x="103" y="763" type="curve"/>
      <point x="45" y="735" type="line"/>
      <point x="76" y="639"/>
      <point x="140" y="601"/>
    </contour>
  </outline>
</glyph>
<glyph name="ring" format="2">
  <advance width="329"/>
  <unicode hex="02DA"/>
  <anchor x="165" y="500" name="_top"/>
  <outline>
    <contour>
      <point x="159" y="563" type="curve" smooth="yes"/>
      <point x="217" y="563"/>
      <point x="281" y="610"/>
      <point x="283" y="685" type="curve" smooth="yes"/>
      <point x="284" y="760"/>
      <point x="226" y="795"/>
      <point x="170" y="795" type="curve" smooth="yes"/>
      <point x="107" y="795"/>
      <point x="47" y="743"/>
      <point x="46" y="674" type="curve" smooth="yes"/>
      <point x="45" y="603"/>
      <point x="104" y="563"/>
    </contour>
    <contour>
      <point x="167" y="623" type="curve" smooth="yes"/>
      <point x="143" y="623"/>
      <point x="126" y="645"/>
      <point x="128" y="687" type="curve" smooth="yes"/>
      <point x="130" y="720"/>
      <point x="149" y="735"/>
      <point x="167" y="736" type="curve" smooth="yes"/>
      <point x="188" y="736"/>
      <point x="206" y="717"/>
      <point x="204" y="672" type="curve" smooth="yes"/>
      <point x="202" y="641"/>
      <point x="184" y="624"/>
    </contour>
  </outline>
</glyph>
<glyph name="tilde" format="2">
  <advance width="444"/>
  <unicode hex="02DC"/>
  <anchor x="222" y="500" name="_top"/>
  <outline>
    <contour>
      <point x="98" y="606" type="line"/>
      <point x="118" y="638"/>
      <point x="146" y="647"/>
      <point x="162" y="647" type="curve" smooth="yes"/>
      <point x="201" y="647"/>
      <point x="229" y="609"/>
      <point x="282" y="609" type="curve" smooth="yes"/>
      <point x="322" y="609"/>
      <point x="372" y="639"/>
      <point x="399" y="723" type="curve"/>
      <point x="346" y="751" type="line"/>
      <point x="329" y="720"/>
      <point x="306" y="700"/>
      <point x="282" y="700" type="curve" smooth="yes"/>
      <point x="234" y="700"/>
      <point x="222" y="738"/>
      <point x="160" y="738" type="curve" smooth="yes"/>
      <point x="116" y="738"/>
      <point x="66" y="700"/>
      <point x="45" y="640" type="curve"/>
    </contour>
  </outline>
</glyph>
<glyph name="hungarumlaut" format="2">
  <advance width="468"/>
  <unicode hex="02DD"/>
  <anchor x="233" y="500" name="_top"/>
  <outline>
    <contour>
      <point x="241" y="581" type="line"/>
      <point x="376" y="677" type="line" smooth="yes"/>
      <point x="407" y="699"/>
      <point x="438" y="738"/>
      <point x="413" y="770" type="curve" smooth="yes"/>
      <point x="390" y="797"/>
      <point x="345" y="779"/>
      <point x="310" y="741" type="curve" smooth="yes"/>
      <point x="205" y="628" type="line"/>
    </contour>
    <contour>
      <point x="88" y="580" type="line"/>
      <point x="208" y="690" type="line" smooth="yes"/>
      <point x="236" y="716"/>
      <point x="259" y="759"/>
      <point x="229" y="785" type="curve" smooth="yes"/>
      <point x="202" y="808"/>
      <point x="161" y="782"/>
      <point x="134" y="746" type="curve" smooth="yes"/>
      <point x="45" y="621" type="line"/>
    </contour>
  </outline>
</glyph>
<glyph name="E-cy" format="2">
  <advance width="692"/>
  <unicode hex="0404"/>
  <outline>
    <contour>
      <point x="364" y="-16" type="curve" smooth="yes"/>
      <point x="447" y="-16"/>
      <point x="569" y="9"/>
      <point x="673" y="144" type="curve"/>
      <point x="634" y="184" type="line"/>
      <point x="566" y="96"/>
      <point x="473" y="59"/>
      <point x="393" y="60" type="curve" smooth="yes"/>
      <point x="258" y="61"/>
      <point x="177" y="188"/>
      <point x="187" y="360" type="curve" smooth="yes"/>
      <point x="194" y="504"/>
      <point x="279" y="649"/>
      <point x="419" y="648" type="curve" smooth="yes"/>
      <point x="512" y="648"/>
      <point x="566" y="587"/>
      <point x="578" y="476" type="curve"/>
      <point x="644" y="476" type="line"/>
      <point x="656" y="709" type="line"/>
      <point x="579" y="709" type="line"/>
      <point x="580" y="667" type="line"/>
      <point x="579" y="667" type="line"/>
      <point x="527" y="699"/>
      <point x="462" y="716"/>
      <point x="410" y="716" type="curve" smooth="yes"/>
      <point x="177" y="716"/>
      <point x="50" y="522"/>
      <point x="40" y="340" type="curve" smooth="yes"/>
      <point x="30" y="141"/>
      <point x="158" y="-16"/>
    </contour>
    <contour>
      <point x="441" y="241" type="curve"/>
      <point x="507" y="241" type="line"/>
      <point x="520" y="484" type="line"/>
      <point x="443" y="484" type="line"/>
      <point x="443" y="459"/>
      <point x="442" y="425"/>
      <point x="443" y="397" type="curve"/>
      <point x="179" y="397" type="line"/>
      <point x="175" y="328" type="line"/>
      <point x="348" y="329" type="line" smooth="yes"/>
      <point x="402" y="329"/>
      <point x="446" y="325"/>
    </contour>
  </outline>
</glyph>
<glyph name="Lje-cy" format="2">
  <advance width="1039"/>
  <unicode hex="0409"/>
  <outline>
    <contour>
      <point x="113" y="-11" type="curve" smooth="yes"/>
      <point x="245" y="-11"/>
      <point x="363" y="138"/>
      <point x="382" y="563" type="curve" smooth="yes"/>
      <point x="384" y="607"/>
      <point x="407" y="623"/>
      <point x="452" y="622" type="curve" smooth="yes"/>
      <point x="534" y="621" type="line"/>
      <point x="528" y="599"/>
      <point x="527" y="577"/>
      <point x="526" y="555" type="curve"/>
      <point x="505" y="153" type="line" smooth="yes"/>
      <point x="501" y="72"/>
      <point x="474" y="68"/>
      <point x="429" y="66" type="curve"/>
      <point x="425" y="0" type="line"/>
      <point x="741" y="0" type="line" smooth="yes"/>
      <point x="881" y="0"/>
      <point x="988" y="69"/>
      <point x="995" y="199" type="curve" smooth="yes"/>
      <point x="1000" y="305"/>
      <point x="937" y="418"/>
      <point x="698" y="409" type="curve" smooth="yes"/>
      <point x="662" y="407" type="line"/>
      <point x="670" y="547" type="line" smooth="yes"/>
      <point x="674" y="628"/>
      <point x="701" y="632"/>
      <point x="745" y="634" type="curve"/>
      <point x="749" y="700" type="line"/>
      <point x="195" y="700" type="line"/>
      <point x="191" y="623" type="line"/>
      <point x="308" y="626" type="line"/>
      <point x="292" y="308"/>
      <point x="239" y="75"/>
      <point x="164" y="75" type="curve" smooth="yes"/>
      <point x="158" y="75"/>
      <point x="152" y="76"/>
      <point x="149" y="78" type="curve"/>
      <point x="153" y="86"/>
      <point x="154" y="94"/>
      <point x="154" y="101" type="curve" smooth="yes"/>
      <point x="154" y="134"/>
      <point x="125" y="161"/>
      <point x="85" y="161" type="curve" smooth="yes"/>
      <point x="33" y="161"/>
      <point x="8" y="121"/>
      <point x="8" y="73" type="curve" smooth="yes"/>
      <point x="8" y="21"/>
      <point x="56" y="-11"/>
    </contour>
    <contour>
      <point x="641" y="71" type="curve"/>
      <point x="644" y="88"/>
      <point x="647" y="123"/>
      <point x="649" y="159" type="curve" smooth="yes"/>
      <point x="659" y="336" type="line"/>
      <point x="678" y="336"/>
      <point x="697" y="337"/>
      <point x="716" y="337" type="curve" smooth="yes"/>
      <point x="790" y="339"/>
      <point x="843" y="306"/>
      <point x="838" y="207" type="curve" smooth="yes"/>
      <point x="833" y="128"/>
      <point x="795" y="76"/>
      <point x="714" y="72" type="curve" smooth="yes"/>
      <point x="690" y="71"/>
      <point x="665" y="71"/>
    </contour>
  </outline>
</glyph>
<glyph name="Ze-cy" format="2">
  <advance width="660"/>
  <unicode hex="0417"/>
  <anchor x="317" y="0" name="bottom"/>
  <anchor x="354" y="700" name="top"/>
  <outline>
    <contour>
      <point x="329" y="-16" type="curve" smooth="yes"/>
      <point x="487" y="-18"/>
      <point x="618" y="56"/>
      <point x="625" y="192" type="curve" smooth="yes"/>
      <point x="629" y="278"/>
      <point x="578" y="352"/>
      <point x="460" y="371" type="curve"/>
      <point x="460" y="374.289" type="line"/>
      <point x="554.006" y="401.919"/>
      <point x="601.16" y="461.361"/>
      <point x="605" y="542" type="curve" smooth="yes"/>
      <point x="611" y="652"/>
      <point x="526" y="720"/>
      <point x="386" y="716" type="curve" smooth="yes"/>
      <point x="320" y="716"/>
      <point x="247" y="699"/>
      <point x="187" y="667" type="curve"/>
      <point x="193" y="709" type="line"/>
      <point x="116" y="709" type="line"/>
      <point x="103" y="476" type="line"/>
      <point x="168" y="476" type="line"/>
      <point x="192" y="587"/>
      <point x="267" y="643"/>
      <point x="347" y="644" type="curve" smooth="yes"/>
      <point x="413" y="643"/>
      <point x="460" y="604"/>
      <point x="456" y="517" type="curve" smooth="yes"/>
      <point x="453" y="448"/>
      <point x="422" y="394"/>
      <point x="335.875" y="394" type="curve" smooth="yes"/>
      <point x="242" y="394" type="line"/>
      <point x="238" y="323" type="line"/>
      <point x="365" y="323" type="line" smooth="yes"/>
      <point x="419" y="323"/>
      <point x="472" y="283"/>
      <point x="468" y="202" type="curve" smooth="yes"/>
      <point x="463" y="105"/>
      <point x="384" y="65"/>
      <point x="303" y="65" type="curve" smooth="yes"/>
      <point x="217" y="65"/>
      <point x="138" y="111"/>
      <point x="77" y="188" type="curve"/>
      <point x="26" y="144" type="line"/>
      <point x="111" y="19"/>
      <point x="228" y="-15"/>
    </contour>
  </outline>
</glyph>
<glyph name="U-cy" format="2">
  <advance width="639"/>
  <unicode hex="0423"/>
  <anchor x="374" y="700" name="top"/>
  <outline>
    <contour>
      <point x="163" y="-16" type="curve" smooth="yes"/>
      <point x="229" y="-16"/>
      <point x="309" y="25"/>
      <point x="380" y="170" type="curve" smooth="yes"/>
      <point x="554" y="527" type="line" smooth="yes"/>
      <point x="590" y="603"/>
      <point x="627" y="627"/>
      <point x="674" y="634" type="curve"/>
      <point x="677" y="700" type="line"/>
      <point x="456" y="700" type="line"/>
      <point x="452" y="623" type="line"/>
      <point x="529" y="627" type="line"/>
      <point x="511" y="605"/>
      <point x="487" y="572"/>
      <point x="472" y="535" type="curve"/>
      <point x="371" y="307" type="line"/>
      <point x="367" y="307" type="line"/>
      <point x="361" y="335"/>
      <point x="350" y="364"/>
      <point x="325" y="415" type="curve" smooth="yes"/>
      <point x="254" y="557" type="line" smooth="yes"/>
      <point x="226" y="613"/>
      <point x="259" y="638"/>
      <point x="317" y="634" type="curve"/>
      <point x="320" y="700" type="line"/>
      <point x="31" y="700" type="line"/>
      <point x="27" y="623" type="line"/>
      <point x="75" y="626" type="line"/>
      <point x="74" y="604"/>
      <point x="92" y="561"/>
      <point x="108" y="531" type="curve" smooth="yes"/>
      <point x="305" y="176" type="line"/>
      <point x="257" y="88"/>
      <point x="228" y="53"/>
      <point x="200" y="53" type="curve" smooth="yes"/>
      <point x="192" y="53"/>
      <point x="188" y="56"/>
      <point x="186" y="60" type="curve"/>
      <point x="197" y="74"/>
      <point x="203" y="89"/>
      <point x="204" y="104" type="curve" smooth="yes"/>
      <point x="206" y="137"/>
      <point x="183" y="166"/>
      <point x="138" y="166" type="curve" smooth="yes"/>
      <point x="84" y="166"/>
      <point x="60" y="124"/>
      <point x="58" y="83" type="curve" smooth="yes"/>
      <point x="55" y="24"/>
      <point x="99" y="-16"/>
    </contour>
  </outline>
</glyph>
<glyph name="Ef-cy" format="2">
  <advance width="860"/>
  <unicode hex="0424"/>
  <outline>
    <contour>
      <point x="269" y="-54" type="line"/>
      <point x="546" y="-54" type="line"/>
      <point x="550" y="23" type="line"/>
      <point x="536" y="23"/>
      <point x="497" y="22"/>
      <point x="475" y="21" type="curve"/>
      <point x="478" y="32"/>
      <point x="480" y="51"/>
      <point x="482" y="74" type="curve"/>
      <point x="706" y="95"/>
      <point x="820" y="214"/>
      <point x="828" y="350" type="curve" smooth="yes"/>
      <point x="834" y="484"/>
      <point x="743" y="618"/>
      <point x="514" y="641" type="curve"/>
      <point x="522" y="698"/>
      <point x="547" y="701"/>
      <point x="587" y="703" type="curve"/>
      <point x="590" y="769" type="line"/>
      <point x="313" y="769" type="line"/>
      <point x="309" y="692" type="line"/>
      <point x="323" y="692"/>
      <point x="363" y="693"/>
      <point x="384" y="695" type="curve"/>
      <point x="382" y="684"/>
      <point x="380" y="664"/>
      <point x="378" y="642" type="curve"/>
      <point x="160" y="622"/>
      <point x="48" y="495"/>
      <point x="40" y="343" type="curve" smooth="yes"/>
      <point x="33" y="208"/>
      <point x="114" y="90"/>
      <point x="345" y="72" type="curve"/>
      <point x="337" y="18"/>
      <point x="311" y="15"/>
      <point x="272" y="12" type="curve"/>
    </contour>
    <contour>
      <point x="350" y="140" type="line"/>
      <point x="235" y="160"/>
      <point x="181" y="235"/>
      <point x="188" y="355" type="curve" smooth="yes"/>
      <point x="194" y="474"/>
      <point x="253" y="556"/>
      <point x="374" y="576" type="curve"/>
    </contour>
    <contour>
      <point x="485" y="137" type="curve"/>
      <point x="509" y="575" type="line"/>
      <point x="634" y="551"/>
      <point x="686" y="463"/>
      <point x="679" y="333" type="curve" smooth="yes"/>
      <point x="672" y="212"/>
      <point x="612" y="152"/>
    </contour>
  </outline>
</glyph>
<glyph name="Che-cy" format="2">
  <advance width="734"/>
  <unicode hex="0427"/>
  <anchor x="548" y="0" name="bottomright"/>
  <anchor x="351" y="350" name="center"/>
  <anchor x="391" y="700" name="top"/>
  <outline>
    <contour>
      <point x="385" y="0" type="line"/>
      <point x="670" y="0" type="line"/>
      <point x="674" y="77" type="line"/>
      <point x="660" y="77"/>
      <point x="620" y="76"/>
      <point x="599" y="74" type="curve"/>
      <point x="602" y="91"/>
      <point x="605" y="128"/>
      <point x="607" y="164" type="curve" smooth="yes"/>
      <point x="627" y="547" type="line" smooth="yes"/>
      <point x="631" y="628"/>
      <point x="658" y="632"/>
      <point x="703" y="634" type="curve"/>
      <point x="706" y="700" type="line"/>
      <point x="422" y="700" type="line"/>
      <point x="418" y="623" type="line"/>
      <point x="493" y="626" type="line"/>
      <point x="490" y="609"/>
      <point x="486" y="572"/>
      <point x="484" y="536" type="curve" smooth="yes"/>
      <point x="476" y="382" type="line"/>
      <point x="446" y="362"/>
      <point x="395" y="346"/>
      <point x="356" y="346" type="curve" smooth="yes"/>
      <point x="287" y="346"/>
      <point x="251" y="384"/>
      <point x="254" y="466" type="curve" smooth="yes"/>
      <point x="259" y="547" type="line" smooth="yes"/>
      <point x="264" y="628"/>
      <point x="290" y="632"/>
      <point x="335" y="634" type="curve"/>
      <point x="338" y="700" type="line"/>
      <point x="54" y="700" type="line"/>
      <point x="49" y="623" type="line"/>
      <point x="125" y="626" type="line"/>
      <point x="121" y="604"/>
      <point x="116" y="533"/>
      <point x="113" y="467" type="curve" smooth="yes"/>
      <point x="105" y="318"/>
      <point x="172" y="254"/>
      <point x="297" y="254" type="curve" smooth="yes"/>
      <point x="363" y="254"/>
      <point x="419" y="277"/>
      <point x="472" y="306" type="curve"/>
      <point x="464" y="153" type="line" smooth="yes"/>
      <point x="460" y="72"/>
      <point x="433" y="68"/>
      <point x="389" y="66" type="curve"/>
    </contour>
  </outline>
</glyph>
<glyph name="Yeru-cy" format="2">
  <advance width="969"/>
  <unicode hex="042B"/>
  <anchor x="509" y="700" name="top"/>
  <outline>
    <contour>
      <point x="35" y="0" type="line"/>
      <point x="351" y="0" type="line" smooth="yes"/>
      <point x="484" y="0"/>
      <point x="591" y="69"/>
      <point x="598" y="199" type="curve" smooth="yes"/>
      <point x="603" y="305"/>
      <point x="540" y="418"/>
      <point x="308" y="409" type="curve" smooth="yes"/>
      <point x="272" y="407" type="line"/>
      <point x="280" y="547" type="line" smooth="yes"/>
      <point x="284" y="628"/>
      <point x="311" y="632"/>
      <point x="356" y="634" type="curve"/>
      <point x="359" y="700" type="line"/>
      <point x="72" y="700" type="line"/>
      <point x="68" y="623" type="line"/>
      <point x="82" y="624"/>
      <point x="122" y="625"/>
      <point x="144" y="626" type="curve"/>
      <point x="140" y="609"/>
      <point x="137" y="572"/>
      <point x="135" y="536" type="curve" smooth="yes"/>
      <point x="115" y="153" type="line" smooth="yes"/>
      <point x="110" y="72"/>
      <point x="84" y="68"/>
      <point x="39" y="66" type="curve"/>
    </contour>
    <contour>
      <point x="251" y="71" type="curve"/>
      <point x="254" y="88"/>
      <point x="258" y="123"/>
      <point x="260" y="159" type="curve" smooth="yes"/>
      <point x="269" y="336" type="line"/>
      <point x="288" y="336"/>
      <point x="307" y="337"/>
      <point x="326" y="337" type="curve" smooth="yes"/>
      <point x="393" y="338"/>
      <point x="445" y="306"/>
      <point x="440" y="207" type="curve" smooth="yes"/>
      <point x="436" y="128"/>
      <point x="398" y="76"/>
      <point x="324" y="72" type="curve" smooth="yes"/>
      <point x="300" y="71"/>
      <point x="275" y="71"/>
    </contour>
    <component base="I" xOffset="585"/>
  </outline>
</glyph>
<glyph name="Iu-cy" format="2">
  <advance width="1110"/>
  <unicode hex="042E"/>
  <outline>
    <contour>
      <point x="712" y="-16" type="curve" smooth="yes"/>
      <point x="949" y="-16"/>
      <point x="1069" y="185"/>
      <point x="1078" y="350" type="curve" smooth="yes"/>
      <point x="1086" y="516"/>
      <point x="1001" y="716"/>
      <point x="754" y="716" type="curve" smooth="yes"/>
      <point x="547" y="716"/>
      <point x="434" y="549"/>
      <point x="411" y="391" type="curve"/>
      <point x="269" y="391" type="line"/>
      <point x="277" y="547" type="line" smooth="yes"/>
      <point x="281" y="628"/>
      <point x="308" y="632"/>
      <point x="353" y="634" type="curve"/>
      <point x="356" y="700" type="line"/>
      <point x="72" y="700" type="line"/>
      <point x="68" y="623" type="line"/>
      <point x="82" y="624"/>
      <point x="122" y="625"/>
      <point x="143" y="626" type="curve"/>
      <point x="140" y="609"/>
      <point x="136" y="572"/>
      <point x="134" y="536" type="curve" smooth="yes"/>
      <point x="114" y="153" type="line" smooth="yes"/>
      <point x="110" y="72"/>
      <point x="83" y="68"/>
      <point x="39" y="66" type="curve"/>
      <point x="35" y="0" type="line"/>
      <point x="320" y="0" type="line"/>
      <point x="324" y="77" type="line"/>
      <point x="310" y="77"/>
      <point x="270" y="76"/>
      <point x="249" y="74" type="curve"/>
      <point x="252" y="91"/>
      <point x="255" y="128"/>
      <point x="257" y="164" type="curve" smooth="yes"/>
      <point x="265" y="312" type="line"/>
      <point x="406" y="314" type="line"/>
      <point x="409" y="150"/>
      <point x="491" y="-16"/>
    </contour>
    <contour>
      <point x="727" y="52" type="curve" smooth="yes"/>
      <point x="591" y="51"/>
      <point x="554" y="237"/>
      <point x="561" y="362" type="curve" smooth="yes"/>
      <point x="567" y="485"/>
      <point x="613" y="645"/>
      <point x="737" y="648" type="curve" smooth="yes"/>
      <point x="875" y="651"/>
      <point x="933" y="514"/>
      <point x="924" y="333" type="curve" smooth="yes"/>
      <point x="917" y="210"/>
      <point x="865" y="53"/>
    </contour>
  </outline>
</glyph>
<glyph name="tse-cy" format="2">
  <advance width="622"/>
  <unicode hex="0446"/>
  <anchor x="311" y="500" name="top"/>
  <outline>
    <contour>
      <point x="497" y="-200" type="line"/>
      <point x="589" y="-126"/>
      <point x="611" y="-55"/>
      <point x="574" y="5" type="curve" smooth="yes"/>
      <point x="562" y="24"/>
      <point x="562" y="46"/>
      <point x="569" y="67" type="curve"/>
      <point x="583" y="94"/>
      <point x="591" y="123"/>
      <point x="595" y="145" type="curve"/>
      <point x="541" y="161" type="line"/>
      <point x="524" y="101"/>
      <point x="508" y="82"/>
      <point x="493" y="82" type="curve" smooth="yes"/>
      <point x="486" y="82"/>
      <point x="479" y="86"/>
      <point x="479" y="108" type="curve" smooth="yes"/>
      <point x="479" y="133"/>
      <point x="489" y="199"/>
      <point x="498" y="270" type="curve" smooth="yes"/>
      <point x="507" y="338"/>
      <point x="516" y="410"/>
      <point x="516" y="452" type="curve" smooth="yes"/>
      <point x="516" y="465"/>
      <point x="516" y="472"/>
      <point x="513" y="500" type="curve"/>
      <point x="384" y="500" type="line"/>
      <point x="386" y="484"/>
      <point x="387" y="446"/>
      <point x="387" y="428" type="curve" smooth="yes"/>
      <point x="387" y="288"/>
      <point x="310" y="81"/>
      <point x="254" y="81" type="curve" smooth="yes"/>
      <point x="234" y="81"/>
      <point x="226" y="93"/>
      <point x="226" y="123" type="curve" smooth="yes"/>
      <point x="226" y="185"/>
      <point x="252" y="319"/>
      <point x="252" y="398" type="curve" smooth="yes"/>
      <point x="252" y="469"/>
      <point x="231" y="511"/>
      <point x="157" y="511" type="curve" smooth="yes"/>
      <point x="67" y="511"/>
      <point x="17" y="412"/>
      <point x="6" y="355" type="curve"/>
      <point x="60" y="339" type="line"/>
      <point x="77" y="399"/>
      <point x="93" y="418"/>
      <point x="108" y="418" type="curve" smooth="yes"/>
      <point x="115" y="418"/>
      <point x="124" y="414"/>
      <point x="124" y="392" type="curve" smooth="yes"/>
      <point x="124" y="319"/>
      <point x="98" y="216"/>
      <point x="98" y="143" type="curve" smooth="yes"/>
      <point x="98" y="49"/>
      <point x="133" y="-11"/>
      <point x="218" y="-11" type="curve" smooth="yes"/>
      <point x="276" y="-11"/>
      <point x="336" y="24"/>
      <point x="382" y="145" type="curve"/>
      <point x="383" y="145" type="line"/>
      <point x="381" y="122"/>
      <point x="378" y="106"/>
      <point x="378" y="80" type="curve" smooth="yes"/>
      <point x="378" y="9"/>
      <point x="419" y="-11"/>
      <point x="462" y="-11" type="curve" smooth="yes"/>
      <point x="479" y="-11"/>
      <point x="494" y="-7"/>
      <point x="507" y="-1" type="curve"/>
      <point x="515" y="-3" type="line"/>
      <point x="503" y="-28"/>
      <point x="496" y="-39"/>
      <point x="499" y="-73" type="curve" smooth="yes"/>
      <point x="501" y="-98"/>
      <point x="497" y="-118"/>
      <point x="459" y="-162" type="curve"/>
    </contour>
  </outline>
</glyph>
<glyph name="che-cy" format="2">
  <advance width="610"/>
  <unicode hex="0447"/>
  <anchor x="577" y="0" name="bottomright"/>
  <anchor x="305" y="250" name="center"/>
  <anchor x="318" y="500" name="top"/>
  <outline>
    <contour>
      <point x="228" y="155" type="curve" smooth="yes"/>
      <point x="287" y="155"/>
      <point x="347" y="179"/>
      <point x="396" y="227" type="curve"/>
      <point x="405" y="313" type="line"/>
      <point x="400" y="286"/>
      <point x="331" y="247"/>
      <point x="286" y="247" type="curve" smooth="yes"/>
      <point x="249" y="247"/>
      <point x="241" y="273"/>
      <point x="247" y="326" type="curve" smooth="yes"/>
      <point x="250" y="354"/>
      <point x="253" y="381"/>
      <point x="253" y="405" type="curve" smooth="yes"/>
      <point x="253" y="466"/>
      <point x="237" y="511"/>
      <point x="170" y="511" type="curve" smooth="yes"/>
      <point x="72" y="511"/>
      <point x="20" y="412"/>
      <point x="8" y="355" type="curve"/>
      <point x="63" y="339" type="line"/>
      <point x="80" y="399"/>
      <point x="96" y="418"/>
      <point x="111" y="418" type="curve" smooth="yes"/>
      <point x="128" y="418"/>
      <point x="130" y="400"/>
      <point x="118" y="326" type="curve" smooth="yes"/>
      <point x="107" y="228"/>
      <point x="141" y="155"/>
    </contour>
    <contour>
      <point x="450" y="-11" type="curve" smooth="yes"/>
      <point x="540" y="-11"/>
      <point x="593" y="88"/>
      <point x="604" y="145" type="curve"/>
      <point x="550" y="161" type="line"/>
      <point x="533" y="101"/>
      <point x="517" y="82"/>
      <point x="502" y="82" type="curve" smooth="yes"/>
      <point x="495" y="82"/>
      <point x="488" y="86"/>
      <point x="488" y="108" type="curve" smooth="yes"/>
      <point x="488" y="157"/>
      <point x="525" y="366"/>
      <point x="525" y="452" type="curve" smooth="yes"/>
      <point x="525" y="465"/>
      <point x="525" y="472"/>
      <point x="522" y="500" type="curve"/>
      <point x="388" y="500" type="line"/>
      <point x="389" y="481"/>
      <point x="390" y="461"/>
      <point x="390" y="442" type="curve" smooth="yes"/>
      <point x="390" y="303"/>
      <point x="360" y="162"/>
      <point x="360" y="95" type="curve" smooth="yes"/>
      <point x="360" y="9"/>
      <point x="409" y="-11"/>
    </contour>
  </outline>
</glyph>
<glyph name="hardsign-cy" format="2">
  <advance width="481"/>
  <unicode hex="044A"/>
  <outline>
    <contour>
      <point x="224" y="-11" type="curve" smooth="yes"/>
      <point x="339" y="-11"/>
      <point x="424" y="67"/>
      <point x="435" y="160" type="curve" smooth="yes"/>
      <point x="447" y="267"/>
      <point x="379" y="327"/>
      <point x="288" y="327" type="curve" smooth="yes"/>
      <point x="274" y="327"/>
      <point x="259" y="325"/>
      <point x="246" y="323" type="curve"/>
      <point x="281" y="369"/>
      <point x="326" y="415"/>
      <point x="375" y="460" type="curve"/>
      <point x="332" y="507" type="line"/>
      <point x="310" y="489"/>
      <point x="287" y="480"/>
      <point x="262" y="480" type="curve" smooth="yes"/>
      <point x="207" y="480"/>
      <point x="175" y="511"/>
      <point x="117" y="511" type="curve" smooth="yes"/>
      <point x="26" y="511"/>
      <point x="-5" y="449"/>
      <point x="24" y="348" type="curve"/>
      <point x="83" y="356" type="line"/>
      <point x="73" y="411"/>
      <point x="83" y="433"/>
      <point x="121" y="433" type="curve" smooth="yes"/>
      <point x="163" y="433"/>
      <point x="193" y="416"/>
      <point x="229" y="416" type="curve" smooth="yes"/>
      <point x="242" y="416"/>
      <point x="257" y="419"/>
      <point x="273" y="426" type="curve"/>
      <point x="266" y="434" type="line"/>
      <point x="103" y="320"/>
      <point x="41" y="250"/>
      <point x="41" y="154" type="curve" smooth="yes"/>
      <point x="41" y="45"/>
      <point x="119" y="-11"/>
    </contour>
    <contour>
      <point x="232" y="62" type="curve" smooth="yes"/>
      <point x="186" y="62"/>
      <point x="165" y="100"/>
      <point x="165" y="145" type="curve" smooth="yes"/>
      <point x="165" y="183"/>
      <point x="179" y="227"/>
      <point x="205" y="259" type="curve"/>
      <point x="219" y="264"/>
      <point x="230" y="266"/>
      <point x="242" y="266" type="curve" smooth="yes"/>
      <point x="295" y="265"/>
      <point x="321" y="227"/>
      <point x="313" y="160" type="curve" smooth="yes"/>
      <point x="305" y="90"/>
      <point x="280" y="62"/>
    </contour>
  </outline>
</glyph>
<glyph name="yeru-cy" format="2">
  <advance width="774"/>
  <unicode hex="044B"/>
  <anchor x="400" y="500" name="top"/>
  <outline>
    <contour>
      <point x="615" y="-11" type="curve" smooth="yes"/>
      <point x="703" y="-11"/>
      <point x="756" y="88"/>
      <point x="768" y="145" type="curve"/>
      <point x="713" y="161" type="line"/>
      <point x="696" y="101"/>
      <point x="680" y="82"/>
      <point x="665" y="82" type="curve" smooth="yes"/>
      <point x="658" y="82"/>
      <point x="651" y="86"/>
      <point x="651" y="108" type="curve" smooth="yes"/>
      <point x="651" y="157"/>
      <point x="688" y="366"/>
      <point x="688" y="452" type="curve" smooth="yes"/>
      <point x="688" y="465"/>
      <point x="688" y="472"/>
      <point x="685" y="500" type="curve"/>
      <point x="551" y="500" type="line"/>
      <point x="552" y="483"/>
      <point x="553" y="465"/>
      <point x="553" y="448" type="curve" smooth="yes"/>
      <point x="555" y="307"/>
      <point x="523" y="163"/>
      <point x="523" y="90" type="curve" smooth="yes"/>
      <point x="523" y="9"/>
      <point x="572" y="-11"/>
    </contour>
    <component base="softsign-cy"/>
  </outline>
</glyph>
<glyph name="softsign-cy" format="2">
  <advance width="510"/>
  <unicode hex="044C"/>
  <outline>
    <contour>
      <point x="250" y="-10" type="curve" smooth="yes"/>
      <point x="380" y="-10"/>
      <point x="469" y="62"/>
      <point x="474" y="174" type="curve" smooth="yes"/>
      <point x="479" y="283"/>
      <point x="407" y="328"/>
      <point x="320" y="328" type="curve" smooth="yes"/>
      <point x="275" y="328"/>
      <point x="225" y="311"/>
      <point x="181" y="281" type="curve"/>
      <point x="173" y="223" type="line"/>
      <point x="217" y="250"/>
      <point x="257" y="266"/>
      <point x="290" y="266" type="curve" smooth="yes"/>
      <point x="334" y="266"/>
      <point x="362" y="234"/>
      <point x="357" y="154" type="curve" smooth="yes"/>
      <point x="354" y="91"/>
      <point x="323" y="62"/>
      <point x="274" y="62" type="curve" smooth="yes"/>
      <point x="229" y="62"/>
      <point x="213" y="92"/>
      <point x="222" y="159" type="curve" smooth="yes"/>
      <point x="249" y="354" type="line" smooth="yes"/>
      <point x="260" y="440"/>
      <point x="244" y="511"/>
      <point x="159" y="511" type="curve" smooth="yes"/>
      <point x="74" y="511"/>
      <point x="25" y="427"/>
      <point x="6" y="355" type="curve"/>
      <point x="60" y="339" type="line"/>
      <point x="74" y="392"/>
      <point x="91" y="418"/>
      <point x="110" y="418" type="curve" smooth="yes"/>
      <point x="122" y="418"/>
      <point x="125" y="404"/>
      <point x="122" y="370" type="curve" smooth="yes"/>
      <point x="118" y="329"/>
      <point x="106" y="260"/>
      <point x="93" y="149" type="curve" smooth="yes"/>
      <point x="82" y="60"/>
      <point x="128" y="-10"/>
    </contour>
  </outline>
</glyph>
<glyph name="e-cy" format="2">
  <advance width="467"/>
  <unicode hex="0454"/>
  <outline>
    <contour>
      <point x="109" y="221" type="line"/>
      <point x="330" y="225" type="line"/>
      <point x="333" y="281" type="line"/>
      <point x="112" y="281" type="line"/>
    </contour>
    <component base="c"/>
  </outline>
</glyph>
<glyph name="lje-cy" format="2">
  <advance width="800"/>
  <unicode hex="0459"/>
  <outline>
    <contour>
      <point x="83" y="-11" type="curve" smooth="yes"/>
      <point x="241" y="-11"/>
      <point x="312" y="185"/>
      <point x="357" y="411" type="curve"/>
      <point x="363" y="424"/>
      <point x="372" y="430"/>
      <point x="383" y="431" type="curve"/>
      <point x="412" y="432" type="line"/>
      <point x="414" y="338"/>
      <point x="400" y="295"/>
      <point x="383" y="149" type="curve" smooth="yes"/>
      <point x="372" y="60"/>
      <point x="418" y="-10"/>
      <point x="540" y="-10" type="curve" smooth="yes"/>
      <point x="670" y="-10"/>
      <point x="759" y="62"/>
      <point x="764" y="174" type="curve" smooth="yes"/>
      <point x="769" y="283"/>
      <point x="697" y="328"/>
      <point x="610" y="328" type="curve" smooth="yes"/>
      <point x="585" y="328"/>
      <point x="559" y="322"/>
      <point x="533" y="313" type="curve"/>
      <point x="543" y="397"/>
      <point x="546" y="422"/>
      <point x="546" y="452" type="curve" smooth="yes"/>
      <point x="546" y="465"/>
      <point x="546" y="472"/>
      <point x="543" y="500" type="curve"/>
      <point x="189" y="500" type="line"/>
      <point x="183" y="430" type="line"/>
      <point x="275" y="431" type="line"/>
      <point x="249" y="269"/>
      <point x="200" y="93"/>
      <point x="120" y="72" type="curve"/>
      <point x="121" y="76"/>
      <point x="121" y="80"/>
      <point x="121" y="84" type="curve" smooth="yes"/>
      <point x="121" y="114"/>
      <point x="97" y="134"/>
      <point x="64" y="134" type="curve" smooth="yes"/>
      <point x="32" y="134"/>
      <point x="0" y="104"/>
      <point x="0" y="64" type="curve" smooth="yes"/>
      <point x="0" y="22"/>
      <point x="34" y="-11"/>
    </contour>
    <contour>
      <point x="564" y="62" type="curve" smooth="yes"/>
      <point x="520" y="62"/>
      <point x="503" y="92"/>
      <point x="512" y="159" type="curve" smooth="yes"/>
      <point x="525" y="254" type="line"/>
      <point x="545" y="262"/>
      <point x="563" y="266"/>
      <point x="580" y="266" type="curve" smooth="yes"/>
      <point x="624" y="266"/>
      <point x="652" y="234"/>
      <point x="647" y="154" type="curve" smooth="yes"/>
      <point x="645" y="91"/>
      <point x="613" y="62"/>
    </contour>
  </outline>
</glyph>
<glyph name="tshe-cy" format="2">
  <advance width="621"/>
  <unicode hex="045B"/>
  <outline>
    <contour>
      <point x="464" y="-11" type="curve" smooth="yes"/>
      <point x="554" y="-11"/>
      <point x="604" y="88"/>
      <point x="615" y="145" type="curve"/>
      <point x="561" y="161" type="line"/>
      <point x="544" y="101"/>
      <point x="527" y="82"/>
      <point x="512" y="82" type="curve" smooth="yes"/>
      <point x="505" y="82"/>
      <point x="497" y="86"/>
      <point x="497" y="108" type="curve" smooth="yes"/>
      <point x="497" y="142"/>
      <point x="504" y="221"/>
      <point x="515" y="317" type="curve" smooth="yes"/>
      <point x="527" y="409"/>
      <point x="489" y="471"/>
      <point x="404" y="471" type="curve" smooth="yes"/>
      <point x="355" y="471"/>
      <point x="266" y="436"/>
      <point x="217" y="300" type="curve"/>
      <point x="216" y="300" type="line"/>
      <point x="234" y="376"/>
      <point x="252" y="521"/>
      <point x="256" y="551" type="curve" smooth="yes"/>
      <point x="261" y="591"/>
      <point x="273" y="697"/>
      <point x="280" y="755" type="curve"/>
      <point x="226" y="755" type="line"/>
      <point x="212" y="742"/>
      <point x="167" y="725"/>
      <point x="74" y="725" type="curve"/>
      <point x="70" y="649" type="line"/>
      <point x="85" y="650"/>
      <point x="119" y="651"/>
      <point x="140" y="652" type="curve"/>
      <point x="134" y="625"/>
      <point x="130" y="582"/>
      <point x="127" y="559" type="curve" smooth="yes"/>
      <point x="113" y="440"/>
      <point x="96" y="212"/>
      <point x="96" y="48" type="curve" smooth="yes"/>
      <point x="96" y="35"/>
      <point x="96" y="28"/>
      <point x="99" y="0" type="curve"/>
      <point x="227" y="0" type="line"/>
      <point x="226" y="16"/>
      <point x="224" y="54"/>
      <point x="224" y="83" type="curve" smooth="yes"/>
      <point x="224" y="195"/>
      <point x="298" y="379"/>
      <point x="359" y="379" type="curve" smooth="yes"/>
      <point x="380" y="379"/>
      <point x="396" y="366"/>
      <point x="392" y="336" type="curve" smooth="yes"/>
      <point x="380" y="248"/>
      <point x="369" y="176"/>
      <point x="369" y="102" type="curve" smooth="yes"/>
      <point x="369" y="31"/>
      <point x="390" y="-11"/>
    </contour>
    <contour>
      <point x="49" y="525" type="line"/>
      <point x="450" y="528" type="line"/>
      <point x="455" y="597" type="line"/>
      <point x="53" y="597" type="line"/>
    </contour>
  </outline>
</glyph>
<glyph name="yusbig-cy" format="2">
  <advance width="802"/>
  <unicode hex="046B"/>
  <outline>
    <contour>
      <point x="-33" y="0" type="line"/>
      <point x="83" y="0" type="line" smooth="yes"/>
      <point x="126" y="0"/>
      <point x="154" y="31"/>
      <point x="199" y="87" type="curve" smooth="yes"/>
      <point x="237" y="135"/>
      <point x="285" y="201"/>
      <point x="307" y="229" type="curve"/>
      <point x="336.772" y="228.82" type="line"/>
      <point x="333" y="154" type="line" smooth="yes"/>
      <point x="330" y="101"/>
      <point x="325" y="65"/>
      <point x="278" y="65" type="curve"/>
      <point x="275" y="0" type="line"/>
      <point x="505" y="0" type="line"/>
      <point x="509" y="76" type="line"/>
      <point x="456" y="73" type="line"/>
      <point x="459" y="103"/>
      <point x="462" y="142"/>
      <point x="463" y="161" type="curve" smooth="yes"/>
      <point x="466.559" y="228.033" type="line"/>
      <point x="503" y="229" type="line"/>
      <point x="521" y="201"/>
      <point x="562" y="135"/>
      <point x="595" y="87" type="curve" smooth="yes"/>
      <point x="633" y="31"/>
      <point x="660" y="0"/>
      <point x="702" y="0" type="curve" smooth="yes"/>
      <point x="814" y="0" type="line"/>
      <point x="812" y="65" type="line"/>
      <point x="771" y="65"/>
      <point x="739" y="115"/>
      <point x="725" y="135" type="curve" smooth="yes"/>
      <point x="704" y="164"/>
      <point x="684" y="194"/>
      <point x="663" y="223" type="curve" smooth="yes"/>
      <point x="637" y="260"/>
      <point x="606" y="301"/>
      <point x="563" y="299" type="curve" smooth="yes"/>
      <point x="520" y="297" type="line"/>
      <point x="541" y="318" type="line" smooth="yes"/>
      <point x="577" y="351"/>
      <point x="650" y="431"/>
      <point x="680" y="431" type="curve"/>
      <point x="684" y="500" type="line"/>
      <point x="151" y="500" type="line"/>
      <point x="147" y="418" type="line"/>
      <point x="184.176" y="418.629" type="line"/>
      <point x="187.241" y="395.268"/>
      <point x="191" y="372"/>
      <point x="231" y="343" type="curve" smooth="yes"/>
      <point x="290" y="300" type="line"/>
      <point x="290" y="298" type="line"/>
      <point x="278" y="298"/>
      <point x="267" y="299"/>
      <point x="255" y="299" type="curve" smooth="yes"/>
      <point x="206" y="300"/>
      <point x="168" y="260"/>
      <point x="138" y="223" type="curve" smooth="yes"/>
      <point x="114" y="194"/>
      <point x="90" y="164"/>
      <point x="66" y="135" type="curve" smooth="yes"/>
      <point x="49" y="115"/>
      <point x="11" y="65"/>
      <point x="-30" y="65" type="curve"/>
    </contour>
    <contour>
      <point x="437" y="287" type="line"/>
      <point x="409" y="317"/>
      <point x="381" y="346"/>
      <point x="353" y="376" type="curve" smooth="yes"/>
      <point x="335" y="395"/>
      <point x="326" y="421"/>
      <point x="357" y="421" type="curve"/>
      <point x="561" y="424" type="line"/>
      <point x="546" y="406"/>
      <point x="534" y="392"/>
      <point x="524" y="380" type="curve"/>
    </contour>
  </outline>
</glyph>
<glyph name="fita-cy" format="2">
  <advance width="515"/>
  <unicode hex="0473"/>
  <outline>
    <contour>
      <point x="279" y="511" type="curve" smooth="yes"/>
      <point x="125" y="511"/>
      <point x="28" y="376"/>
      <point x="28" y="216" type="curve" smooth="yes"/>
      <point x="28" y="91"/>
      <point x="94" y="-11"/>
      <point x="229" y="-11" type="curve" smooth="yes"/>
      <point x="385" y="-11"/>
      <point x="480" y="129"/>
      <point x="480" y="288" type="curve" smooth="yes"/>
      <point x="480" y="430"/>
      <point x="391" y="511"/>
    </contour>
    <contour>
      <point x="264" y="445" type="curve" smooth="yes"/>
      <point x="331" y="444"/>
      <point x="344" y="332"/>
      <point x="342" y="259" type="curve" smooth="yes"/>
      <point x="340" y="177"/>
      <point x="314" y="55"/>
      <point x="245" y="55" type="curve" smooth="yes"/>
      <point x="181" y="55"/>
      <point x="164" y="164"/>
      <point x="164" y="244" type="curve" smooth="yes"/>
      <point x="164" y="354"/>
      <point x="203" y="446"/>
    </contour>
    <contour>
      <point x="298" y="204" type="curve" smooth="yes"/>
      <point x="332" y="204"/>
      <point x="350" y="239"/>
      <point x="371" y="281" type="curve"/>
      <point x="363" y="303" type="line"/>
      <point x="353" y="282"/>
      <point x="333" y="273"/>
      <point x="314" y="273" type="curve" smooth="yes"/>
      <point x="294" y="273"/>
      <point x="282" y="280"/>
      <point x="270" y="288" type="curve" smooth="yes"/>
      <point x="258" y="296"/>
      <point x="246" y="303"/>
      <point x="227" y="303" type="curve" smooth="yes"/>
      <point x="196" y="303"/>
      <point x="159" y="264"/>
      <point x="145" y="235" type="curve"/>
      <point x="151" y="213" type="line"/>
      <point x="167" y="229"/>
      <point x="189" y="233"/>
      <point x="203" y="233" type="curve" smooth="yes"/>
      <point x="222" y="233"/>
      <point x="234" y="227"/>
      <point x="246" y="220" type="curve" smooth="yes"/>
      <point x="259" y="212"/>
      <point x="273" y="204"/>
    </contour>
  </outline>
</glyph>
<glyph name="izhitsa-cy" format="2">
  <advance width="592"/>
  <unicode hex="0475"/>
  <outline>
    <contour>
      <point x="204" y="-3" type="curve"/>
      <point x="296" y="-3" type="line"/>
      <point x="334" y="117"/>
      <point x="369" y="233"/>
      <point x="406" y="329" type="curve" smooth="yes"/>
      <point x="441" y="419"/>
      <point x="456" y="451"/>
      <point x="479" y="451" type="curve" smooth="yes"/>
      <point x="483" y="451"/>
      <point x="487" y="449"/>
      <point x="488" y="447" type="curve"/>
      <point x="481" y="442"/>
      <point x="471" y="429"/>
      <point x="469" y="412" type="curve" smooth="yes"/>
      <point x="465" y="370"/>
      <point x="491" y="354"/>
      <point x="525" y="354" type="curve" smooth="yes"/>
      <point x="575" y="354"/>
      <point x="596" y="391"/>
      <point x="600" y="428" type="curve" smooth="yes"/>
      <point x="605" y="475"/>
      <point x="573" y="516"/>
      <point x="516" y="516" type="curve" smooth="yes"/>
      <point x="462" y="516"/>
      <point x="412" y="495"/>
      <point x="363" y="369" type="curve" smooth="yes"/>
      <point x="326" y="275"/>
      <point x="307" y="193"/>
      <point x="285" y="118" type="curve"/>
      <point x="283" y="118" type="line"/>
      <point x="263" y="221"/>
      <point x="251" y="309"/>
      <point x="226" y="395" type="curve" smooth="yes"/>
      <point x="208" y="457"/>
      <point x="189" y="511"/>
      <point x="116" y="511" type="curve" smooth="yes"/>
      <point x="26" y="511"/>
      <point x="-24" y="412"/>
      <point x="-35" y="355" type="curve"/>
      <point x="29" y="339" type="line"/>
      <point x="36" y="399"/>
      <point x="53" y="418"/>
      <point x="68" y="418" type="curve" smooth="yes"/>
      <point x="77" y="418"/>
      <point x="84" y="414"/>
      <point x="93" y="392" type="curve" smooth="yes"/>
      <point x="112" y="344"/>
      <point x="142" y="237"/>
    </contour>
  </outline>
</glyph>
<glyph name="Iishorttail-cy" format="2">
  <advance width="815"/>
  <unicode hex="048A"/>
  <outline>
    <contour>
      <point x="610" y="-177" type="curve"/>
      <point x="683" y="-177" type="line"/>
      <point x="786" y="79" type="line"/>
      <point x="677" y="74" type="line"/>
      <point x="681" y="91"/>
      <point x="684" y="128"/>
      <point x="686" y="164" type="curve" smooth="yes"/>
      <point x="706" y="547" type="line" smooth="yes"/>
      <point x="710" y="628"/>
      <point x="737" y="632"/>
      <point x="782" y="634" type="curve"/>
      <point x="786" y="700" type="line"/>
      <point x="500" y="700" type="line"/>
      <point x="496" y="623" type="line"/>
      <point x="572" y="626" type="line"/>
      <point x="570" y="616"/>
      <point x="568" y="600"/>
      <point x="566" y="580" type="curve"/>
      <point x="260" y="242" type="line"/>
      <point x="276" y="547" type="line" smooth="yes"/>
      <point x="280" y="628"/>
      <point x="307" y="632"/>
      <point x="352" y="634" type="curve"/>
      <point x="355" y="700" type="line"/>
      <point x="72" y="700" type="line"/>
      <point x="68" y="623" type="line"/>
      <point x="144" y="626" type="line"/>
      <point x="140" y="609"/>
      <point x="137" y="572"/>
      <point x="135" y="536" type="curve" smooth="yes"/>
      <point x="115" y="153" type="line" smooth="yes"/>
      <point x="110" y="72"/>
      <point x="84" y="68"/>
      <point x="39" y="66" type="curve"/>
      <point x="35" y="0" type="line"/>
      <point x="318" y="0" type="line"/>
      <point x="323" y="77" type="line"/>
      <point x="247" y="74" type="line"/>
      <point x="249" y="86"/>
      <point x="252" y="107"/>
      <point x="254" y="131" type="curve"/>
      <point x="560" y="474" type="line"/>
      <point x="543" y="153" type="line" smooth="yes"/>
      <point x="539" y="72"/>
      <point x="512" y="68"/>
      <point x="467" y="66" type="curve"/>
      <point x="463" y="0" type="line"/>
      <point x="628" y="0" type="line" smooth="yes"/>
      <point x="666" y="0"/>
      <point x="665" y="-18"/>
    </contour>
    <contour>
      <point x="423" y="758" type="curve" smooth="yes"/>
      <point x="492" y="758"/>
      <point x="556" y="791"/>
      <point x="605" y="856" type="curve"/>
      <point x="552" y="894" type="line"/>
      <point x="533" y="861"/>
      <point x="520" y="838"/>
      <point x="500" y="825" type="curve"/>
      <point x="485" y="816"/>
      <point x="464" y="811"/>
      <point x="444" y="811" type="curve" smooth="yes"/>
      <point x="425" y="811"/>
      <point x="406" y="815"/>
      <point x="394" y="825" type="curve"/>
      <point x="404" y="837"/>
      <point x="407" y="851"/>
      <point x="408" y="859" type="curve"/>
      <point x="408" y="878"/>
      <point x="396" y="913"/>
      <point x="352" y="912" type="curve" smooth="yes"/>
      <point x="324" y="911"/>
      <point x="294" y="893"/>
      <point x="290" y="854" type="curve" smooth="yes"/>
      <point x="284" y="791"/>
      <point x="355" y="758"/>
    </contour>
  </outline>
</glyph>
<glyph name="Semisoftsign-cy" format="2">
  <advance width="655"/>
  <unicode hex="048C"/>
  <outline>
    <contour>
      <point x="32" y="487" type="line"/>
      <point x="408" y="490" type="line"/>
      <point x="412" y="566" type="line"/>
      <point x="37" y="566" type="line"/>
    </contour>
    <component base="Softsign-cy" xOffset="6"/>
  </outline>
</glyph>
<glyph name="Ertick-cy" format="2">
  <advance width="632"/>
  <unicode hex="048E"/>
  <outline>
    <contour>
      <point x="462" y="173" type="line"/>
      <point x="506" y="200" type="line"/>
      <point x="361" y="455" type="line"/>
      <point x="314" y="427" type="line"/>
    </contour>
    <component base="P"/>
  </outline>
</glyph>
<glyph name="ertick-cy" format="2">
  <advance width="537"/>
  <unicode hex="048F"/>
  <outline>
    <contour>
      <point x="431" y="-95" type="line"/>
      <point x="482" y="-55" type="line"/>
      <point x="312" y="179" type="line"/>
      <point x="262" y="141" type="line"/>
    </contour>
    <component base="p" xOffset="-1"/>
  </outline>
</glyph>
<glyph name="ghestroke-cy" format="2">
  <advance width="491"/>
  <unicode hex="0493"/>
  <outline>
    <contour>
      <point x="50" y="0" type="line"/>
      <point x="325" y="0" type="line"/>
      <point x="329" y="76" type="line"/>
      <point x="244" y="73" type="line"/>
      <point x="248" y="103"/>
      <point x="251" y="142"/>
      <point x="252" y="161" type="curve" smooth="yes"/>
      <point x="264" y="390" type="line" smooth="yes"/>
      <point x="265" y="411"/>
      <point x="273" y="422"/>
      <point x="300" y="422" type="curve" smooth="yes"/>
      <point x="332" y="422" type="line" smooth="yes"/>
      <point x="391" y="422"/>
      <point x="419" y="402"/>
      <point x="415" y="318" type="curve"/>
      <point x="480" y="318" type="line"/>
      <point x="485" y="500" type="line"/>
      <point x="75" y="500" type="line"/>
      <point x="71" y="424" type="line"/>
      <point x="85" y="424"/>
      <point x="114" y="425"/>
      <point x="135" y="427" type="curve"/>
      <point x="132" y="397"/>
      <point x="129" y="358"/>
      <point x="128" y="339" type="curve" smooth="yes"/>
      <point x="118" y="154" type="line" smooth="yes"/>
      <point x="115" y="101"/>
      <point x="109" y="65"/>
      <point x="53" y="65" type="curve"/>
    </contour>
    <component base="strokeshortcomb" xOffset="-65" yOffset="-55"/>
  </outline>
</glyph>
<glyph name="ghemiddlehook-cy" format="2">
  <advance width="507"/>
  <unicode hex="0495"/>
  <outline>
    <contour>
      <point x="282" y="-234" type="curve" smooth="yes"/>
      <point x="405" y="-234"/>
      <point x="478" y="-108"/>
      <point x="486" y="38" type="curve" smooth="yes"/>
      <point x="493" y="163"/>
      <point x="450" y="272"/>
      <point x="316" y="272" type="curve" smooth="yes"/>
      <point x="270" y="272"/>
      <point x="230" y="264"/>
      <point x="197" y="254" type="curve"/>
      <point x="204" y="390" type="line"/>
      <point x="205" y="411"/>
      <point x="213" y="422"/>
      <point x="240" y="422" type="curve"/>
      <point x="335" y="422"/>
      <point x="359" y="410"/>
      <point x="355" y="318" type="curve"/>
      <point x="420" y="318" type="line"/>
      <point x="425" y="500" type="line"/>
      <point x="15" y="500" type="line"/>
      <point x="11" y="424" type="line"/>
      <point x="25" y="424"/>
      <point x="54" y="425"/>
      <point x="75" y="427" type="curve"/>
      <point x="72" y="397"/>
      <point x="69" y="358"/>
      <point x="68" y="339" type="curve" smooth="yes"/>
      <point x="58" y="154" type="line" smooth="yes"/>
      <point x="55" y="101"/>
      <point x="49" y="65"/>
      <point x="-7" y="65" type="curve"/>
      <point x="-10" y="0" type="line"/>
      <point x="265" y="0" type="line"/>
      <point x="269" y="76" type="line"/>
      <point x="184" y="73" type="line"/>
      <point x="188" y="103"/>
      <point x="191" y="142"/>
      <point x="192" y="161" type="curve" smooth="yes"/>
      <point x="193" y="181" type="line"/>
      <point x="216" y="189"/>
      <point x="241" y="194"/>
      <point x="264" y="194" type="curve" smooth="yes"/>
      <point x="332" y="194"/>
      <point x="355" y="139"/>
      <point x="349" y="28" type="curve" smooth="yes"/>
      <point x="342" y="-116"/>
      <point x="304" y="-164"/>
      <point x="247" y="-164" type="curve" smooth="yes"/>
      <point x="222" y="-164"/>
      <point x="210" y="-162"/>
      <point x="185" y="-156" type="curve"/>
      <point x="166" y="-217" type="line"/>
      <point x="216" y="-231"/>
      <point x="245" y="-234"/>
    </contour>
  </outline>
</glyph>
<glyph name="Zedescender-cy" format="2">
  <advance width="660"/>
  <unicode hex="0498"/>
  <outline>
    <contour>
      <point x="274" y="-178" type="line"/>
      <point x="361" y="-176" type="line"/>
      <point x="363" y="39" type="line"/>
      <point x="286" y="39" type="line"/>
    </contour>
    <component base="Ze-cy"/>
  </outline>
</glyph>
<glyph name="Kadescender-cy" format="2">
  <advance width="758"/>
  <unicode hex="049A"/>
  <outline>
    <contour>
      <point x="657" y="-177" type="curve"/>
      <point x="730" y="-177" type="line"/>
      <point x="744" y="79" type="line"/>
      <point x="727" y="78"/>
      <point x="709" y="77"/>
      <point x="692" y="76" type="curve" smooth="yes"/>
      <point x="647" y="73"/>
      <point x="608" y="117"/>
      <point x="570" y="174" type="curve" smooth="yes"/>
      <point x="476" y="319" type="line" smooth="yes"/>
      <point x="462" y="341"/>
      <point x="442" y="361"/>
      <point x="417" y="378" type="curve"/>
      <point x="521" y="532" type="line" smooth="yes"/>
      <point x="581" y="621"/>
      <point x="636" y="632"/>
      <point x="681" y="634" type="curve"/>
      <point x="684" y="700" type="line"/>
      <point x="439" y="700" type="line"/>
      <point x="436" y="623" type="line"/>
      <point x="499" y="627" type="line"/>
      <point x="499" y="626" type="line"/>
      <point x="481" y="612"/>
      <point x="451" y="566"/>
      <point x="425" y="526" type="curve" smooth="yes"/>
      <point x="342" y="395" type="line"/>
      <point x="269" y="395" type="line"/>
      <point x="277" y="547" type="line" smooth="yes"/>
      <point x="281" y="628"/>
      <point x="308" y="632"/>
      <point x="353" y="634" type="curve"/>
      <point x="356" y="700" type="line"/>
      <point x="72" y="700" type="line"/>
      <point x="68" y="623" type="line"/>
      <point x="143" y="626" type="line"/>
      <point x="140" y="609"/>
      <point x="136" y="572"/>
      <point x="134" y="536" type="curve" smooth="yes"/>
      <point x="114" y="153" type="line" smooth="yes"/>
      <point x="110" y="72"/>
      <point x="83" y="68"/>
      <point x="39" y="66" type="curve"/>
      <point x="35" y="0" type="line"/>
      <point x="320" y="0" type="line"/>
      <point x="324" y="77" type="line"/>
      <point x="249" y="74" type="line"/>
      <point x="252" y="91"/>
      <point x="255" y="128"/>
      <point x="257" y="164" type="curve" smooth="yes"/>
      <point x="265" y="315" type="line"/>
      <point x="277" y="315"/>
      <point x="299" y="315"/>
      <point x="301" y="315" type="curve"/>
      <point x="318" y="302"/>
      <point x="339" y="271"/>
      <point x="356" y="246" type="curve"/>
      <point x="447" y="102" type="line" smooth="yes"/>
      <point x="472" y="63"/>
      <point x="523" y="1"/>
      <point x="540" y="0" type="curve"/>
      <point x="596" y="0" type="line" smooth="yes"/>
      <point x="654" y="0"/>
      <point x="665" y="-73"/>
    </contour>
  </outline>
</glyph>
<glyph name="kadescender-cy" format="2">
  <advance width="626"/>
  <unicode hex="049B"/>
  <outline>
    <contour>
      <point x="501" y="-200" type="line"/>
      <point x="593" y="-126"/>
      <point x="615" y="-55"/>
      <point x="578" y="5" type="curve"/>
      <point x="568" y="23"/>
      <point x="567" y="41"/>
      <point x="576" y="61" type="curve"/>
      <point x="592" y="88"/>
      <point x="601" y="118"/>
      <point x="604" y="145" type="curve"/>
      <point x="550" y="161" type="line"/>
      <point x="530" y="94"/>
      <point x="515" y="79"/>
      <point x="502" y="79" type="curve"/>
      <point x="489" y="78"/>
      <point x="478" y="90"/>
      <point x="474" y="147" type="curve" smooth="yes"/>
      <point x="467" y="224"/>
      <point x="428" y="264"/>
      <point x="351" y="269" type="curve"/>
      <point x="383" y="281"/>
      <point x="404" y="308"/>
      <point x="425" y="352" type="curve" smooth="yes"/>
      <point x="440" y="384"/>
      <point x="447" y="396"/>
      <point x="466" y="409" type="curve"/>
      <point x="470" y="382"/>
      <point x="494" y="368"/>
      <point x="521" y="368" type="curve" smooth="yes"/>
      <point x="562" y="368"/>
      <point x="585" y="402"/>
      <point x="585" y="439" type="curve" smooth="yes"/>
      <point x="585" y="483"/>
      <point x="550" y="511"/>
      <point x="504" y="511" type="curve" smooth="yes"/>
      <point x="445" y="511"/>
      <point x="396" y="463"/>
      <point x="370" y="375" type="curve" smooth="yes"/>
      <point x="349" y="305"/>
      <point x="314" y="289"/>
      <point x="266" y="289" type="curve" smooth="yes"/>
      <point x="242" y="289" type="line"/>
      <point x="249" y="335"/>
      <point x="254" y="373"/>
      <point x="254" y="395" type="curve" smooth="yes"/>
      <point x="254" y="483"/>
      <point x="217" y="511"/>
      <point x="167" y="511" type="curve" smooth="yes"/>
      <point x="72" y="511"/>
      <point x="20" y="412"/>
      <point x="8" y="355" type="curve"/>
      <point x="63" y="339" type="line"/>
      <point x="80" y="399"/>
      <point x="96" y="418"/>
      <point x="111" y="418" type="curve" smooth="yes"/>
      <point x="122" y="418"/>
      <point x="125" y="411"/>
      <point x="125" y="392" type="curve" smooth="yes"/>
      <point x="125" y="368"/>
      <point x="116" y="304"/>
      <point x="107" y="236" type="curve" smooth="yes"/>
      <point x="98" y="166"/>
      <point x="89" y="91"/>
      <point x="89" y="48" type="curve" smooth="yes"/>
      <point x="89" y="35"/>
      <point x="89" y="20"/>
      <point x="92" y="0" type="curve"/>
      <point x="225" y="0" type="line"/>
      <point x="224" y="17"/>
      <point x="222" y="48"/>
      <point x="222" y="77" type="curve" smooth="yes"/>
      <point x="222" y="125"/>
      <point x="228" y="177"/>
      <point x="234" y="226" type="curve"/>
      <point x="300" y="227" type="line" smooth="yes"/>
      <point x="341" y="227"/>
      <point x="355" y="191"/>
      <point x="359" y="109" type="curve" smooth="yes"/>
      <point x="363" y="28"/>
      <point x="398" y="-11"/>
      <point x="463" y="-11" type="curve" smooth="yes"/>
      <point x="481" y="-11"/>
      <point x="498" y="-7"/>
      <point x="512" y="-1" type="curve"/>
      <point x="520" y="-3" type="line"/>
      <point x="508" y="-28"/>
      <point x="500" y="-39"/>
      <point x="503" y="-73" type="curve" smooth="yes"/>
      <point x="505" y="-98"/>
      <point x="501" y="-118"/>
      <point x="463" y="-162" type="curve"/>
    </contour>
  </outline>
</glyph>
<glyph name="kastroke-cy" format="2">
  <advance width="615"/>
  <unicode hex="049F"/>
  <outline>
    <contour>
      <point x="76" y="0" type="curve"/>
      <point x="206" y="0" type="line"/>
      <point x="204" y="18"/>
      <point x="203" y="49"/>
      <point x="203" y="67" type="curve" smooth="yes"/>
      <point x="203" y="256"/>
      <point x="232" y="466"/>
      <point x="237" y="521" type="curve" smooth="yes"/>
      <point x="246" y="604"/>
      <point x="258" y="682"/>
      <point x="268" y="755" type="curve"/>
      <point x="214" y="755" type="line"/>
      <point x="199" y="742"/>
      <point x="154" y="725"/>
      <point x="61" y="725" type="curve"/>
      <point x="57" y="649" type="line"/>
      <point x="71" y="650"/>
      <point x="107" y="651"/>
      <point x="129" y="652" type="curve"/>
      <point x="123" y="623"/>
      <point x="117" y="585"/>
      <point x="114" y="559" type="curve" smooth="yes"/>
      <point x="85" y="334"/>
      <point x="73" y="87"/>
      <point x="73" y="49" type="curve" smooth="yes"/>
      <point x="73" y="36"/>
      <point x="73" y="28"/>
    </contour>
    <contour>
      <point x="436" y="-11" type="curve"/>
      <point x="526" y="-11"/>
      <point x="569" y="79"/>
      <point x="577" y="145" type="curve"/>
      <point x="523" y="161" type="line"/>
      <point x="503" y="94"/>
      <point x="488" y="79"/>
      <point x="475" y="79" type="curve" smooth="yes"/>
      <point x="462" y="78"/>
      <point x="451" y="90"/>
      <point x="447" y="147" type="curve" smooth="yes"/>
      <point x="440" y="225"/>
      <point x="400" y="265"/>
      <point x="322" y="269" type="curve"/>
      <point x="322" y="289" type="line"/>
      <point x="145" y="289" type="line"/>
      <point x="144" y="226" type="line"/>
      <point x="273" y="227" type="line" smooth="yes"/>
      <point x="314" y="227"/>
      <point x="328" y="191"/>
      <point x="332" y="109" type="curve" smooth="yes"/>
      <point x="336" y="28"/>
      <point x="371" y="-11"/>
    </contour>
    <contour>
      <point x="224" y="251" type="line"/>
      <point x="281" y="262" type="line"/>
      <point x="339" y="262"/>
      <point x="369" y="291"/>
      <point x="398" y="352" type="curve" smooth="yes"/>
      <point x="413" y="384"/>
      <point x="420" y="396"/>
      <point x="439" y="409" type="curve"/>
      <point x="443" y="382"/>
      <point x="467" y="368"/>
      <point x="494" y="368" type="curve" smooth="yes"/>
      <point x="535" y="368"/>
      <point x="558" y="402"/>
      <point x="558" y="439" type="curve" smooth="yes"/>
      <point x="558" y="483"/>
      <point x="523" y="511"/>
      <point x="477" y="511" type="curve" smooth="yes"/>
      <point x="418" y="511"/>
      <point x="369" y="463"/>
      <point x="343" y="375" type="curve" smooth="yes"/>
      <point x="322" y="305"/>
      <point x="287" y="289"/>
      <point x="239" y="289" type="curve"/>
    </contour>
    <contour>
      <point x="41" y="540" type="line"/>
      <point x="401" y="543" type="line"/>
      <point x="404" y="606" type="line"/>
      <point x="44" y="606" type="line"/>
    </contour>
  </outline>
</glyph>
<glyph name="Kabashkir-cy" format="2">
  <advance width="847"/>
  <unicode hex="04A0"/>
  <outline>
    <contour>
      <point x="168" y="0" type="line"/>
      <point x="455" y="0" type="line"/>
      <point x="459" y="77" type="line"/>
      <point x="445" y="77"/>
      <point x="405" y="76"/>
      <point x="384" y="74" type="curve"/>
      <point x="387" y="91"/>
      <point x="391" y="128"/>
      <point x="393" y="164" type="curve" smooth="yes"/>
      <point x="401" y="315" type="line"/>
      <point x="437" y="315" type="line"/>
      <point x="454" y="302"/>
      <point x="474" y="271"/>
      <point x="491" y="246" type="curve" smooth="yes"/>
      <point x="582" y="102" type="line" smooth="yes"/>
      <point x="607" y="63"/>
      <point x="659" y="1"/>
      <point x="675" y="0" type="curve"/>
      <point x="829" y="0" type="line"/>
      <point x="832" y="66" type="line"/>
      <point x="788" y="68"/>
      <point x="744" y="117"/>
      <point x="707" y="174" type="curve" smooth="yes"/>
      <point x="612" y="319" type="line" smooth="yes"/>
      <point x="597" y="341"/>
      <point x="577" y="361"/>
      <point x="552" y="378" type="curve"/>
      <point x="656" y="532" type="line" smooth="yes"/>
      <point x="716" y="621"/>
      <point x="771" y="632"/>
      <point x="816" y="634" type="curve"/>
      <point x="820" y="700" type="line"/>
      <point x="575" y="700" type="line"/>
      <point x="571" y="623" type="line"/>
      <point x="585" y="624"/>
      <point x="613" y="625"/>
      <point x="634" y="627" type="curve"/>
      <point x="616" y="612"/>
      <point x="586" y="566"/>
      <point x="561" y="526" type="curve" smooth="yes"/>
      <point x="477" y="395" type="line"/>
      <point x="405" y="395" type="line"/>
      <point x="413" y="547" type="line" smooth="yes"/>
      <point x="417" y="628"/>
      <point x="443" y="632"/>
      <point x="488" y="634" type="curve"/>
      <point x="492" y="700" type="line"/>
      <point x="46" y="700" type="line"/>
      <point x="29" y="474" type="line"/>
      <point x="95" y="474" type="line"/>
      <point x="101" y="582"/>
      <point x="150" y="632"/>
      <point x="226" y="632" type="curve" smooth="yes"/>
      <point x="276" y="632" type="line"/>
      <point x="273" y="615"/>
      <point x="269" y="575"/>
      <point x="267" y="539" type="curve" smooth="yes"/>
      <point x="247" y="153" type="line" smooth="yes"/>
      <point x="243" y="72"/>
      <point x="217" y="68"/>
      <point x="171" y="66" type="curve"/>
    </contour>
  </outline>
</glyph>
<glyph name="kabashkir-cy" format="2">
  <advance width="752"/>
  <unicode hex="04A1"/>
  <outline>
    <contour>
      <point x="202" y="0" type="curve"/>
      <point x="335" y="0" type="line"/>
      <point x="334" y="17"/>
      <point x="332" y="48"/>
      <point x="332" y="77" type="curve" smooth="yes"/>
      <point x="333" y="144"/>
      <point x="344" y="252"/>
      <point x="353" y="343" type="curve" smooth="yes"/>
      <point x="360" y="409"/>
      <point x="366" y="466"/>
      <point x="366" y="489" type="curve"/>
      <point x="329" y="507" type="line"/>
      <point x="307" y="489"/>
      <point x="287" y="480"/>
      <point x="262" y="480" type="curve" smooth="yes"/>
      <point x="207" y="480"/>
      <point x="175" y="511"/>
      <point x="117" y="511" type="curve" smooth="yes"/>
      <point x="26" y="511"/>
      <point x="-5" y="449"/>
      <point x="24" y="348" type="curve"/>
      <point x="83" y="356" type="line"/>
      <point x="73" y="411"/>
      <point x="83" y="433"/>
      <point x="121" y="433" type="curve" smooth="yes"/>
      <point x="163" y="433"/>
      <point x="201" y="416"/>
      <point x="236" y="416" type="curve" smooth="yes"/>
      <point x="249" y="416"/>
      <point x="255" y="426"/>
      <point x="233" y="432" type="curve"/>
      <point x="241" y="425"/>
      <point x="230" y="343"/>
      <point x="219" y="253" type="curve" smooth="yes"/>
      <point x="209" y="177"/>
      <point x="199" y="96"/>
      <point x="199" y="48" type="curve" smooth="yes"/>
      <point x="199" y="35"/>
      <point x="199" y="20"/>
    </contour>
    <contour>
      <point x="573" y="-11" type="curve"/>
      <point x="663" y="-11"/>
      <point x="706" y="79"/>
      <point x="714" y="145" type="curve"/>
      <point x="660" y="161" type="line"/>
      <point x="640" y="94"/>
      <point x="625" y="79"/>
      <point x="612" y="79" type="curve" smooth="yes"/>
      <point x="599" y="78"/>
      <point x="588" y="90"/>
      <point x="584" y="147" type="curve" smooth="yes"/>
      <point x="577" y="225"/>
      <point x="537" y="265"/>
      <point x="459" y="269" type="curve"/>
      <point x="459" y="289" type="line"/>
      <point x="282" y="289" type="line"/>
      <point x="281" y="226" type="line"/>
      <point x="410" y="227" type="line" smooth="yes"/>
      <point x="451" y="227"/>
      <point x="465" y="191"/>
      <point x="469" y="109" type="curve" smooth="yes"/>
      <point x="473" y="28"/>
      <point x="508" y="-11"/>
    </contour>
    <contour>
      <point x="361" y="251" type="line"/>
      <point x="418" y="262" type="line"/>
      <point x="476" y="262"/>
      <point x="506" y="291"/>
      <point x="535" y="352" type="curve" smooth="yes"/>
      <point x="550" y="384"/>
      <point x="557" y="396"/>
      <point x="576" y="409" type="curve"/>
      <point x="580" y="382"/>
      <point x="604" y="368"/>
      <point x="631" y="368" type="curve" smooth="yes"/>
      <point x="672" y="368"/>
      <point x="695" y="402"/>
      <point x="695" y="439" type="curve" smooth="yes"/>
      <point x="695" y="483"/>
      <point x="660" y="511"/>
      <point x="614" y="511" type="curve" smooth="yes"/>
      <point x="555" y="511"/>
      <point x="506" y="463"/>
      <point x="480" y="375" type="curve" smooth="yes"/>
      <point x="459" y="305"/>
      <point x="424" y="289"/>
      <point x="376" y="289" type="curve"/>
    </contour>
  </outline>
</glyph>
<glyph name="Enghe-cy" format="2">
  <advance width="950"/>
  <unicode hex="04A4"/>
  <outline>
    <contour>
      <point x="35" y="0" type="line"/>
      <point x="322" y="0" type="line"/>
      <point x="326" y="77" type="line"/>
      <point x="312" y="77"/>
      <point x="272" y="76"/>
      <point x="251" y="74" type="curve"/>
      <point x="254" y="91"/>
      <point x="258" y="128"/>
      <point x="260" y="164" type="curve" smooth="yes"/>
      <point x="267" y="312" type="line"/>
      <point x="543" y="315" type="line"/>
      <point x="546" y="391" type="line"/>
      <point x="271" y="391" type="line"/>
      <point x="280" y="547" type="line" smooth="yes"/>
      <point x="284" y="628"/>
      <point x="310" y="632"/>
      <point x="355" y="634" type="curve"/>
      <point x="359" y="700" type="line"/>
      <point x="72" y="700" type="line"/>
      <point x="68" y="623" type="line"/>
      <point x="82" y="624"/>
      <point x="122" y="625"/>
      <point x="143" y="626" type="curve"/>
      <point x="140" y="609"/>
      <point x="136" y="572"/>
      <point x="134" y="536" type="curve" smooth="yes"/>
      <point x="114" y="153" type="line" smooth="yes"/>
      <point x="110" y="72"/>
      <point x="84" y="68"/>
      <point x="38" y="66" type="curve"/>
    </contour>
    <contour>
      <point x="439" y="0" type="line"/>
      <point x="737" y="0" type="line"/>
      <point x="741" y="77" type="line"/>
      <point x="727" y="77"/>
      <point x="674" y="76"/>
      <point x="653" y="74" type="curve"/>
      <point x="656" y="91"/>
      <point x="659" y="128"/>
      <point x="661" y="164" type="curve"/>
      <point x="681" y="547" type="line"/>
      <point x="685" y="625"/>
      <point x="711" y="631"/>
      <point x="753" y="634" type="curve" smooth="yes"/>
      <point x="769" y="635" type="line" smooth="yes"/>
      <point x="823" y="638"/>
      <point x="889" y="615"/>
      <point x="884" y="506" type="curve"/>
      <point x="949" y="506" type="line"/>
      <point x="954" y="700" type="line"/>
      <point x="476" y="700" type="line"/>
      <point x="472" y="623" type="line"/>
      <point x="486" y="624"/>
      <point x="526" y="625"/>
      <point x="547" y="626" type="curve"/>
      <point x="544" y="609"/>
      <point x="540" y="572"/>
      <point x="538" y="536" type="curve" smooth="yes"/>
      <point x="518" y="153" type="line" smooth="yes"/>
      <point x="514" y="72"/>
      <point x="487" y="68"/>
      <point x="443" y="66" type="curve"/>
    </contour>
  </outline>
</glyph>
<glyph name="Pemiddlehook-cy" format="2">
  <advance width="1057"/>
  <unicode hex="04A6"/>
  <outline>
    <contour>
      <point x="773" y="-229" type="curve" smooth="yes"/>
      <point x="919" y="-229"/>
      <point x="1028" y="-107"/>
      <point x="1039" y="106" type="curve" smooth="yes"/>
      <point x="1049" y="302"/>
      <point x="970" y="406"/>
      <point x="803" y="406" type="curve" smooth="yes"/>
      <point x="742" y="406"/>
      <point x="662" y="391"/>
      <point x="622" y="368" type="curve"/>
      <point x="595" y="289" type="line"/>
      <point x="626" y="308"/>
      <point x="701" y="327"/>
      <point x="749" y="327" type="curve" smooth="yes"/>
      <point x="823" y="327"/>
      <point x="894" y="275"/>
      <point x="880" y="98" type="curve" smooth="yes"/>
      <point x="870" y="-37"/>
      <point x="846" y="-151"/>
      <point x="751" y="-151" type="curve" smooth="yes"/>
      <point x="737" y="-151"/>
      <point x="711" y="-149"/>
      <point x="695" y="-146" type="curve"/>
      <point x="680" y="-216" type="line"/>
      <point x="711" y="-225"/>
      <point x="746" y="-229"/>
    </contour>
    <component base="Pe-cy"/>
  </outline>
</glyph>
<glyph name="Haabkhasian-cy" format="2">
  <advance width="799"/>
  <unicode hex="04A8"/>
  <outline>
    <contour>
      <point x="389" y="-16" type="curve" smooth="yes"/>
      <point x="438.608" y="-16"/>
      <point x="484.38" y="-6.721"/>
      <point x="525.721" y="9.405" type="curve"/>
      <point x="564.149" y="-5.744"/>
      <point x="606.851" y="-14.556"/>
      <point x="653" y="-15" type="curve" smooth="yes"/>
      <point x="694" y="-15"/>
      <point x="733" y="-3"/>
      <point x="756" y="11" type="curve"/>
      <point x="745" y="78" type="line"/>
      <point x="702" y="56"/>
      <point x="656" y="57"/>
      <point x="621" y="64" type="curve"/>
      <point x="621" y="67" type="line"/>
      <point x="711" y="139"/>
      <point x="767" y="244"/>
      <point x="772" y="336" type="curve" smooth="yes"/>
      <point x="779" y="469"/>
      <point x="712" y="565"/>
      <point x="559" y="563" type="curve" smooth="yes"/>
      <point x="454" y="562"/>
      <point x="325" y="499"/>
      <point x="315" y="315" type="curve" smooth="yes"/>
      <point x="310" y="225"/>
      <point x="360" y="127"/>
      <point x="440" y="63" type="curve"/>
      <point x="440" y="60" type="line"/>
      <point x="427" y="58"/>
      <point x="415" y="57"/>
      <point x="402" y="57" type="curve" smooth="yes"/>
      <point x="279" y="57"/>
      <point x="189" y="169"/>
      <point x="200" y="362" type="curve" smooth="yes"/>
      <point x="210" y="559"/>
      <point x="321" y="644"/>
      <point x="451" y="644" type="curve" smooth="yes"/>
      <point x="486" y="644"/>
      <point x="554" y="633"/>
      <point x="590" y="617" type="curve"/>
      <point x="615" y="681" type="line"/>
      <point x="572" y="699"/>
      <point x="495" y="716"/>
      <point x="427" y="716" type="curve" smooth="yes"/>
      <point x="188" y="716"/>
      <point x="49" y="518"/>
      <point x="40" y="350" type="curve" smooth="yes"/>
      <point x="31" y="176"/>
      <point x="136" y="-16"/>
    </contour>
    <contour>
      <point x="539.514" y="102.903" type="curve"/>
      <point x="478.618" y="155.961"/>
      <point x="462.992" y="248.843"/>
      <point x="467" y="327" type="curve" smooth="yes"/>
      <point x="472" y="419"/>
      <point x="500" y="486"/>
      <point x="552" y="486" type="curve" smooth="yes"/>
      <point x="610" y="486"/>
      <point x="626" y="414"/>
      <point x="623" y="358" type="curve" smooth="yes"/>
      <point x="618.867" y="277.414"/>
      <point x="609.99" y="165.043"/>
    </contour>
  </outline>
</glyph>
<glyph name="Tedescender-cy" format="2">
  <advance width="648"/>
  <unicode hex="04AC"/>
  <outline>
    <contour>
      <point x="406" y="-177" type="curve"/>
      <point x="479" y="-177" type="line"/>
      <point x="493" y="79" type="line"/>
      <point x="382" y="74" type="line"/>
      <point x="345" y="0" type="line"/>
      <point x="403" y="0"/>
      <point x="414" y="-73"/>
    </contour>
    <component base="T"/>
  </outline>
</glyph>
<glyph name="ustraightstroke-cy" format="2">
  <advance width="517"/>
  <unicode hex="04B1"/>
  <outline>
    <contour>
      <point x="81" y="0" type="line"/>
      <point x="483" y="0" type="line"/>
      <point x="486" y="63" type="line"/>
      <point x="84" y="66" type="line"/>
    </contour>
    <component base="ustraight-cy"/>
  </outline>
</glyph>
<glyph name="hadescender-cy" format="2">
  <advance width="540"/>
  <unicode hex="04B3"/>
  <outline>
    <contour>
      <point x="435" y="-200" type="line"/>
      <point x="527" y="-126"/>
      <point x="549" y="-55"/>
      <point x="512" y="5" type="curve"/>
      <point x="500" y="25"/>
      <point x="498" y="62"/>
      <point x="507" y="84" type="curve"/>
      <point x="442" y="69" type="line"/>
      <point x="440" y="3" type="line"/>
      <point x="451" y="-1" type="line"/>
      <point x="439" y="-26"/>
      <point x="434" y="-39"/>
      <point x="437" y="-73" type="curve" smooth="yes"/>
      <point x="439" y="-98"/>
      <point x="435" y="-118"/>
      <point x="397" y="-162" type="curve"/>
    </contour>
    <component base="ha-cy"/>
  </outline>
</glyph>
<glyph name="Tetse-cy" format="2">
  <advance width="992"/>
  <unicode hex="04B4"/>
  <outline>
    <contour>
      <point x="876" y="-177" type="curve"/>
      <point x="949" y="-177" type="line"/>
      <point x="963" y="79" type="line"/>
      <point x="852" y="74" type="line"/>
      <point x="855" y="91"/>
      <point x="859" y="128"/>
      <point x="861" y="164" type="curve" smooth="yes"/>
      <point x="881" y="547" type="line" smooth="yes"/>
      <point x="885" y="628"/>
      <point x="912" y="632"/>
      <point x="956" y="634" type="curve"/>
      <point x="960" y="700" type="line"/>
      <point x="675" y="700" type="line"/>
      <point x="671" y="623" type="line"/>
      <point x="685" y="623"/>
      <point x="725" y="624"/>
      <point x="746" y="626" type="curve"/>
      <point x="743" y="609"/>
      <point x="740" y="572"/>
      <point x="738" y="536" type="curve" smooth="yes"/>
      <point x="718" y="154" type="line"/>
      <point x="712" y="91"/>
      <point x="690" y="79"/>
      <point x="655" y="78" type="curve" smooth="yes"/>
      <point x="382" y="74" type="line"/>
      <point x="385" y="91"/>
      <point x="389" y="128"/>
      <point x="391" y="164" type="curve" smooth="yes"/>
      <point x="415" y="633" type="line"/>
      <point x="491" y="633"/>
      <point x="535" y="582"/>
      <point x="530" y="474" type="curve"/>
      <point x="596" y="474" type="line"/>
      <point x="602" y="700" type="line"/>
      <point x="46" y="700" type="line"/>
      <point x="29" y="474" type="line"/>
      <point x="95" y="474" type="line"/>
      <point x="100" y="582"/>
      <point x="151" y="631"/>
      <point x="227" y="632" type="curve" smooth="yes"/>
      <point x="273" y="632" type="line"/>
      <point x="248" y="153" type="line" smooth="yes"/>
      <point x="244" y="72"/>
      <point x="217" y="68"/>
      <point x="172" y="66" type="curve"/>
      <point x="168" y="0" type="line"/>
      <point x="815" y="0" type="line" smooth="yes"/>
      <point x="873" y="0"/>
      <point x="884" y="-73"/>
    </contour>
  </outline>
</glyph>
<glyph name="Cheverticalstroke-cy" format="2">
  <advance width="734"/>
  <unicode hex="04B8"/>
  <outline>
    <contour>
      <point x="331" y="172" type="line"/>
      <point x="395" y="172" type="line"/>
      <point x="410" y="463" type="line"/>
      <point x="346" y="463" type="line"/>
    </contour>
    <component base="Che-cy"/>
  </outline>
</glyph>
<glyph name="cheabkhasian-cy" format="2">
  <advance width="581"/>
  <unicode hex="04BD"/>
  <anchor x="371" y="0" name="bottom"/>
  <anchor x="424" y="5" name="ogonek"/>
  <anchor x="374" y="500" name="top"/>
  <outline>
    <contour>
      <point x="338" y="-11" type="curve" smooth="yes"/>
      <point x="416" y="-11"/>
      <point x="494" y="19"/>
      <point x="551" y="150" type="curve"/>
      <point x="495" y="177" type="line"/>
      <point x="459" y="94"/>
      <point x="398" y="81"/>
      <point x="365" y="81" type="curve" smooth="yes"/>
      <point x="322" y="81"/>
      <point x="278" y="116"/>
      <point x="278" y="252" type="curve" smooth="yes"/>
      <point x="278" y="354"/>
      <point x="312" y="445"/>
      <point x="380" y="445" type="curve" smooth="yes"/>
      <point x="400" y="445"/>
      <point x="424" y="432"/>
      <point x="424" y="399" type="curve" smooth="yes"/>
      <point x="424" y="295"/>
      <point x="228" y="261"/>
      <point x="131" y="261" type="curve" smooth="yes"/>
      <point x="92" y="261"/>
      <point x="67" y="273"/>
      <point x="67" y="292" type="curve" smooth="yes"/>
      <point x="67" y="295"/>
      <point x="68" y="298"/>
      <point x="69" y="301" type="curve"/>
      <point x="83" y="298"/>
      <point x="98" y="298"/>
      <point x="108" y="305" type="curve" smooth="yes"/>
      <point x="125" y="316"/>
      <point x="139" y="340"/>
      <point x="136" y="365" type="curve" smooth="yes"/>
      <point x="134" y="394"/>
      <point x="109" y="419"/>
      <point x="66" y="414" type="curve" smooth="yes"/>
      <point x="16" y="407"/>
      <point x="-15" y="358"/>
      <point x="-11" y="306" type="curve" smooth="yes"/>
      <point x="-5" y="249"/>
      <point x="31" y="207"/>
      <point x="132" y="207" type="curve" smooth="yes"/>
      <point x="225" y="207"/>
      <point x="541" y="235"/>
      <point x="541" y="385" type="curve" smooth="yes"/>
      <point x="541" y="473"/>
      <point x="479" y="511"/>
      <point x="391" y="511" type="curve" smooth="yes"/>
      <point x="215" y="511"/>
      <point x="138" y="336"/>
      <point x="138" y="207" type="curve" smooth="yes"/>
      <point x="138" y="59"/>
      <point x="215" y="-12"/>
    </contour>
  </outline>
</glyph>
<glyph name="chedescenderabkhasian-cy" format="2">
  <advance width="572"/>
  <unicode hex="04BF"/>
  <outline>
    <contour>
      <point x="279" y="-236" type="line"/>
      <point x="371" y="-162"/>
      <point x="390" y="-94"/>
      <point x="356" y="-33" type="curve" smooth="yes"/>
      <point x="345" y="-13"/>
      <point x="346" y="23"/>
      <point x="359" y="45" type="curve"/>
      <point x="302" y="20" type="line"/>
      <point x="281" y="-43"/>
      <point x="278" y="-60"/>
      <point x="281" y="-109" type="curve" smooth="yes"/>
      <point x="283" y="-134"/>
      <point x="279" y="-154"/>
      <point x="241" y="-198" type="curve"/>
    </contour>
    <component base="cheabkhasian-cy" yxScale="0.052" xOffset="-17"/>
  </outline>
</glyph>
<glyph name="Eltail-cy" format="2">
  <advance width="778"/>
  <unicode hex="04C5"/>
  <outline>
    <contour>
      <point x="573" y="-177" type="curve"/>
      <point x="646" y="-177" type="line"/>
      <point x="749" y="79" type="line"/>
      <point x="645" y="74" type="line"/>
      <point x="648" y="92"/>
      <point x="651" y="128"/>
      <point x="653" y="164" type="curve" smooth="yes"/>
      <point x="673" y="547" type="line" smooth="yes"/>
      <point x="678" y="628"/>
      <point x="704" y="632"/>
      <point x="749" y="634" type="curve"/>
      <point x="752" y="700" type="line"/>
      <point x="195" y="700" type="line"/>
      <point x="191" y="623" type="line"/>
      <point x="308" y="626" type="line"/>
      <point x="292" y="308"/>
      <point x="239" y="75"/>
      <point x="164" y="75" type="curve" smooth="yes"/>
      <point x="158" y="75"/>
      <point x="152" y="76"/>
      <point x="149" y="78" type="curve"/>
      <point x="153" y="86"/>
      <point x="154" y="94"/>
      <point x="154" y="101" type="curve" smooth="yes"/>
      <point x="154" y="134"/>
      <point x="125" y="161"/>
      <point x="85" y="161" type="curve" smooth="yes"/>
      <point x="33" y="161"/>
      <point x="8" y="121"/>
      <point x="8" y="73" type="curve" smooth="yes"/>
      <point x="8" y="21"/>
      <point x="56" y="-11"/>
      <point x="113" y="-11" type="curve" smooth="yes"/>
      <point x="245" y="-11"/>
      <point x="363" y="138"/>
      <point x="382" y="563" type="curve" smooth="yes"/>
      <point x="384" y="607"/>
      <point x="407" y="621"/>
      <point x="452" y="622" type="curve" smooth="yes"/>
      <point x="539" y="625" type="line"/>
      <point x="532" y="606"/>
      <point x="531" y="586"/>
      <point x="530" y="567" type="curve" smooth="yes"/>
      <point x="508" y="153" type="line" smooth="yes"/>
      <point x="504" y="72"/>
      <point x="478" y="68"/>
      <point x="432" y="66" type="curve"/>
      <point x="429" y="0" type="line"/>
      <point x="591" y="0" type="line" smooth="yes"/>
      <point x="629" y="0"/>
      <point x="628" y="-18"/>
    </contour>
  </outline>
</glyph>
<glyph name="eltail-cy" format="2">
  <advance width="651"/>
  <unicode hex="04C6"/>
  <outline>
    <contour>
      <point x="463" y="-212" type="line"/>
      <point x="525" y="-157"/>
      <point x="640" y="-62"/>
      <point x="640" y="47" type="curve" smooth="yes"/>
      <point x="640" y="88"/>
      <point x="633" y="123"/>
      <point x="625" y="145" type="curve"/>
      <point x="571" y="161" type="line"/>
      <point x="548" y="59" type="line" smooth="yes"/>
      <point x="531" y="16" type="line"/>
      <point x="538" y="6" type="line"/>
      <point x="528" y="-58"/>
      <point x="472" y="-127"/>
      <point x="425" y="-172" type="curve"/>
    </contour>
    <component base="el-cy"/>
  </outline>
</glyph>
<glyph name="Entail-cy" format="2">
  <advance width="798"/>
  <unicode hex="04C9"/>
  <outline>
    <contour>
      <point x="695" y="547" type="line" smooth="yes"/>
      <point x="699" y="628"/>
      <point x="726" y="632"/>
      <point x="771" y="634" type="curve"/>
      <point x="774" y="700" type="line"/>
      <point x="489" y="700" type="line"/>
      <point x="485" y="623" type="line"/>
      <point x="500" y="624"/>
      <point x="539" y="625"/>
      <point x="561" y="626" type="curve"/>
      <point x="557" y="609"/>
      <point x="554" y="572"/>
      <point x="552" y="536" type="curve" smooth="yes"/>
      <point x="544" y="391" type="line"/>
      <point x="269" y="391" type="line"/>
      <point x="277" y="547" type="line" smooth="yes"/>
      <point x="281" y="628"/>
      <point x="308" y="632"/>
      <point x="353" y="634" type="curve"/>
      <point x="356" y="700" type="line"/>
      <point x="72" y="700" type="line"/>
      <point x="68" y="623" type="line"/>
      <point x="82" y="624"/>
      <point x="122" y="625"/>
      <point x="143" y="626" type="curve"/>
      <point x="140" y="609"/>
      <point x="136" y="572"/>
      <point x="134" y="536" type="curve" smooth="yes"/>
      <point x="114" y="153" type="line" smooth="yes"/>
      <point x="110" y="72"/>
      <point x="83" y="68"/>
      <point x="39" y="66" type="curve"/>
      <point x="35" y="0" type="line"/>
      <point x="320" y="0" type="line"/>
      <point x="324" y="77" type="line"/>
      <point x="310" y="77"/>
      <point x="270" y="76"/>
      <point x="249" y="74" type="curve"/>
      <point x="252" y="91"/>
      <point x="255" y="128"/>
      <point x="257" y="164" type="curve" smooth="yes"/>
      <point x="265" y="312" type="line"/>
      <point x="541" y="315" type="line"/>
      <point x="532" y="153" type="line" smooth="yes"/>
      <point x="528" y="72"/>
      <point x="501" y="68"/>
      <point x="456" y="66" type="curve"/>
      <point x="453" y="0" type="line"/>
      <point x="611" y="0" type="line" smooth="yes"/>
      <point x="649" y="0"/>
      <point x="648" y="-18"/>
      <point x="593" y="-177" type="curve"/>
      <point x="666" y="-177" type="line"/>
      <point x="769" y="79" type="line"/>
      <point x="666" y="75" type="line"/>
      <point x="669" y="92"/>
      <point x="673" y="128"/>
      <point x="675" y="164" type="curve" smooth="yes"/>
    </contour>
  </outline>
</glyph>
<glyph name="Chekhakassian-cy" format="2">
  <advance width="734"/>
  <unicode hex="04CB"/>
  <outline>
    <contour>
      <point x="309" y="-177" type="line"/>
      <point x="382" y="-177" type="line"/>
      <point x="392" y="-56"/>
      <point x="402" y="0"/>
      <point x="470" y="0" type="curve" smooth="yes"/>
      <point x="670" y="0" type="line"/>
      <point x="674" y="77" type="line"/>
      <point x="599" y="74" type="line"/>
      <point x="602" y="91"/>
      <point x="605" y="128"/>
      <point x="607" y="164" type="curve" smooth="yes"/>
      <point x="627" y="547" type="line" smooth="yes"/>
      <point x="631" y="628"/>
      <point x="658" y="632"/>
      <point x="703" y="634" type="curve"/>
      <point x="706" y="700" type="line"/>
      <point x="422" y="700" type="line"/>
      <point x="418" y="623" type="line"/>
      <point x="493" y="626" type="line"/>
      <point x="490" y="609"/>
      <point x="486" y="572"/>
      <point x="484" y="536" type="curve" smooth="yes"/>
      <point x="476" y="382" type="line"/>
      <point x="446" y="362"/>
      <point x="395" y="346"/>
      <point x="356" y="346" type="curve" smooth="yes"/>
      <point x="287" y="346"/>
      <point x="251" y="384"/>
      <point x="254" y="466" type="curve" smooth="yes"/>
      <point x="259" y="547" type="line" smooth="yes"/>
      <point x="264" y="628"/>
      <point x="290" y="632"/>
      <point x="335" y="634" type="curve"/>
      <point x="338" y="700" type="line"/>
      <point x="54" y="700" type="line"/>
      <point x="49" y="623" type="line"/>
      <point x="125" y="626" type="line"/>
      <point x="121" y="604"/>
      <point x="116" y="533"/>
      <point x="113" y="467" type="curve" smooth="yes"/>
      <point x="105" y="318"/>
      <point x="172" y="254"/>
      <point x="297" y="254" type="curve" smooth="yes"/>
      <point x="363" y="254"/>
      <point x="419" y="277"/>
      <point x="472" y="306" type="curve"/>
      <point x="464" y="153" type="line" smooth="yes"/>
      <point x="460" y="67"/>
      <point x="450" y="67"/>
      <point x="322" y="65" type="curve"/>
    </contour>
  </outline>
</glyph>
<glyph name="Schwa-cy" format="2">
  <advance width="760"/>
  <unicode hex="04D8"/>
  <anchor x="414" y="700" name="top"/>
  <outline>
    <contour>
      <point x="363" y="-16" type="curve" smooth="yes"/>
      <point x="600" y="-16"/>
      <point x="719" y="167"/>
      <point x="728" y="350" type="curve" smooth="yes"/>
      <point x="737" y="524"/>
      <point x="662" y="716"/>
      <point x="399" y="716" type="curve" smooth="yes"/>
      <point x="347" y="716"/>
      <point x="248" y="699"/>
      <point x="192" y="667" type="curve"/>
      <point x="197" y="709" type="line"/>
      <point x="120" y="709" type="line"/>
      <point x="109" y="490" type="line"/>
      <point x="175" y="490" type="line"/>
      <point x="198" y="592"/>
      <point x="276" y="644"/>
      <point x="370" y="645" type="curve" smooth="yes"/>
      <point x="519" y="646"/>
      <point x="566" y="510"/>
      <point x="572" y="392" type="curve"/>
      <point x="69" y="389" type="line"/>
      <point x="37" y="215"/>
      <point x="97" y="-16"/>
    </contour>
    <contour>
      <point x="389" y="52" type="curve" smooth="yes"/>
      <point x="268" y="49"/>
      <point x="211" y="170"/>
      <point x="216" y="314" type="curve"/>
      <point x="570" y="314" type="line"/>
      <point x="559" y="192"/>
      <point x="508" y="56"/>
    </contour>
  </outline>
</glyph>
<glyph name="schwa-cy" format="2">
  <advance width="500"/>
  <unicode hex="04D9"/>
  <outline>
    <contour>
      <point x="204" y="-11" type="curve" smooth="yes"/>
      <point x="380" y="-11"/>
      <point x="454" y="137"/>
      <point x="464" y="261" type="curve" smooth="yes"/>
      <point x="479" y="429"/>
      <point x="379" y="515"/>
      <point x="269" y="515" type="curve" smooth="yes"/>
      <point x="218" y="515"/>
      <point x="173" y="497"/>
      <point x="137" y="461" type="curve"/>
      <point x="141" y="511" type="line"/>
      <point x="65" y="511" type="line"/>
      <point x="55" y="334" type="line"/>
      <point x="120" y="334" type="line"/>
      <point x="131" y="384"/>
      <point x="179" y="425"/>
      <point x="232" y="425" type="curve" smooth="yes"/>
      <point x="282" y="425"/>
      <point x="320" y="388"/>
      <point x="326" y="297" type="curve"/>
      <point x="190" y="280"/>
      <point x="22" y="245"/>
      <point x="22" y="122" type="curve" smooth="yes"/>
      <point x="22" y="35"/>
      <point x="106" y="-11"/>
    </contour>
    <contour>
      <point x="213" y="55" type="curve" smooth="yes"/>
      <point x="179" y="55"/>
      <point x="140" y="74"/>
      <point x="139" y="121" type="curve" smooth="yes"/>
      <point x="138" y="181"/>
      <point x="187" y="213"/>
      <point x="326" y="232" type="curve"/>
      <point x="316" y="118"/>
      <point x="280" y="55"/>
    </contour>
  </outline>
</glyph>
<glyph name="Dzeabkhasian-cy" format="2">
  <advance width="631"/>
  <unicode hex="04E0"/>
  <anchor x="377" y="700" name="top"/>
  <outline>
    <contour>
      <point x="322" y="-16" type="curve" smooth="yes"/>
      <point x="467" y="-16"/>
      <point x="604" y="56"/>
      <point x="621" y="196" type="curve" smooth="yes"/>
      <point x="633" y="301"/>
      <point x="573" y="414"/>
      <point x="422" y="416" type="curve"/>
      <point x="620" y="625" type="line"/>
      <point x="628" y="700" type="line"/>
      <point x="121" y="700" type="line"/>
      <point x="104" y="487" type="line"/>
      <point x="170" y="487" type="line"/>
      <point x="177" y="595"/>
      <point x="225" y="637"/>
      <point x="299" y="635" type="curve" smooth="yes"/>
      <point x="489" y="630" type="line"/>
      <point x="455" y="606"/>
      <point x="421" y="572"/>
      <point x="385" y="531" type="curve" smooth="yes"/>
      <point x="262" y="393" type="line"/>
      <point x="259" y="358" type="line"/>
      <point x="326" y="358" type="line" smooth="yes"/>
      <point x="436" y="358"/>
      <point x="474" y="284"/>
      <point x="464" y="202" type="curve" smooth="yes"/>
      <point x="450" y="89"/>
      <point x="362" y="65"/>
      <point x="290" y="65" type="curve" smooth="yes"/>
      <point x="188" y="65"/>
      <point x="120" y="118"/>
      <point x="64" y="189" type="curve"/>
      <point x="13" y="144" type="line"/>
      <point x="85" y="35"/>
      <point x="204" y="-16"/>
    </contour>
  </outline>
</glyph>
<glyph name="obarred-cy" format="2">
  <advance width="515"/>
  <unicode hex="04E9"/>
  <anchor x="271" y="500" name="top"/>
  <outline>
    <contour>
      <point x="136" y="224" type="line"/>
      <point x="371" y="224" type="line"/>
      <point x="371" y="287" type="line"/>
      <point x="136" y="290" type="line"/>
    </contour>
    <component base="o-cy"/>
  </outline>
</glyph>
<glyph name="gedescender-cy" format="2">
  <advance width="420"/>
  <unicode hex="04F7"/>
  <outline>
    <contour>
      <point x="294" y="-200" type="line"/>
      <point x="386" y="-126"/>
      <point x="408" y="-55"/>
      <point x="371" y="5" type="curve" smooth="yes"/>
      <point x="350" y="39"/>
      <point x="366" y="77"/>
      <point x="405" y="118" type="curve"/>
      <point x="357" y="157" type="line"/>
      <point x="314" y="105"/>
      <point x="271" y="78"/>
      <point x="224" y="78" type="curve" smooth="yes"/>
      <point x="190" y="78"/>
      <point x="145" y="94"/>
      <point x="149" y="146" type="curve" smooth="yes"/>
      <point x="152" y="182"/>
      <point x="182" y="209"/>
      <point x="247" y="245" type="curve" smooth="yes"/>
      <point x="334" y="293"/>
      <point x="385" y="329"/>
      <point x="385" y="399" type="curve" smooth="yes"/>
      <point x="385" y="455"/>
      <point x="349" y="512"/>
      <point x="246" y="512" type="curve" smooth="yes"/>
      <point x="147" y="512"/>
      <point x="68" y="461"/>
      <point x="9" y="382" type="curve"/>
      <point x="57" y="346" type="line"/>
      <point x="100" y="396"/>
      <point x="141" y="422"/>
      <point x="194" y="422" type="curve" smooth="yes"/>
      <point x="231" y="422"/>
      <point x="250" y="400"/>
      <point x="249" y="369" type="curve" smooth="yes"/>
      <point x="247" y="330"/>
      <point x="218" y="308"/>
      <point x="171" y="280" type="curve" smooth="yes"/>
      <point x="58" y="213"/>
      <point x="10" y="173"/>
      <point x="10" y="105" type="curve" smooth="yes"/>
      <point x="10" y="20"/>
      <point x="98" y="-16"/>
      <point x="173" y="-16" type="curve" smooth="yes"/>
      <point x="246" y="-16"/>
      <point x="286" y="24"/>
      <point x="324" y="58" type="curve"/>
      <point x="332" y="50" type="line"/>
      <point x="297" y="-7"/>
      <point x="291" y="-15"/>
      <point x="296" y="-73" type="curve" smooth="yes"/>
      <point x="298" y="-98"/>
      <point x="294" y="-118"/>
      <point x="256" y="-162" type="curve"/>
    </contour>
  </outline>
</glyph>
<glyph name="gestrokehook-cy" format="2">
  <advance width="484"/>
  <unicode hex="04FB"/>
  <outline>
    <contour>
      <point x="129" y="-234" type="curve" smooth="yes"/>
      <point x="247" y="-234"/>
      <point x="305" y="-163"/>
      <point x="325" y="0" type="curve"/>
      <point x="189" y="0" type="line"/>
      <point x="179" y="-128"/>
      <point x="161" y="-166"/>
      <point x="93" y="-166" type="curve" smooth="yes"/>
      <point x="71" y="-166"/>
      <point x="56" y="-161"/>
      <point x="31" y="-155" type="curve"/>
      <point x="13" y="-217" type="line"/>
      <point x="63" y="-231"/>
      <point x="92" y="-234"/>
    </contour>
    <component base="ghestroke-cy"/>
  </outline>
</glyph>
<glyph name="hahook-cy" format="2">
  <advance width="497"/>
  <unicode hex="04FD"/>
  <outline>
    <contour>
      <point x="260" y="-244" type="line"/>
      <point x="361" y="-201"/>
      <point x="446" y="-136"/>
      <point x="448" y="-50" type="curve" smooth="yes"/>
      <point x="451" y="4"/>
      <point x="433" y="49"/>
      <point x="397" y="122" type="curve" smooth="yes"/>
      <point x="374" y="169"/>
      <point x="346" y="222"/>
      <point x="322" y="274" type="curve"/>
      <point x="357" y="359"/>
      <point x="373" y="387"/>
      <point x="391" y="401" type="curve"/>
      <point x="400" y="390"/>
      <point x="415" y="380"/>
      <point x="439" y="380" type="curve" smooth="yes"/>
      <point x="474" y="380"/>
      <point x="502" y="410"/>
      <point x="502" y="443" type="curve" smooth="yes"/>
      <point x="502" y="482"/>
      <point x="480" y="511"/>
      <point x="432" y="511" type="curve" smooth="yes"/>
      <point x="397" y="511"/>
      <point x="349" y="499"/>
      <point x="293" y="356" type="curve"/>
      <point x="283" y="393"/>
      <point x="279" y="404"/>
      <point x="271" y="424" type="curve" smooth="yes"/>
      <point x="252" y="476"/>
      <point x="228" y="511"/>
      <point x="173" y="511" type="curve" smooth="yes"/>
      <point x="66" y="511"/>
      <point x="32" y="409"/>
      <point x="26" y="351" type="curve"/>
      <point x="82" y="343" type="line"/>
      <point x="89" y="403"/>
      <point x="108" y="419"/>
      <point x="125" y="418" type="curve"/>
      <point x="138" y="417"/>
      <point x="147" y="412"/>
      <point x="160" y="384" type="curve" smooth="yes"/>
      <point x="177" y="345"/>
      <point x="187" y="307"/>
      <point x="208" y="251" type="curve"/>
      <point x="174" y="152"/>
      <point x="155" y="104"/>
      <point x="135" y="91" type="curve"/>
      <point x="129" y="109"/>
      <point x="111" y="128"/>
      <point x="79" y="128" type="curve" smooth="yes"/>
      <point x="45" y="128"/>
      <point x="16" y="99"/>
      <point x="16" y="58" type="curve" smooth="yes"/>
      <point x="16" y="17"/>
      <point x="47" y="-11"/>
      <point x="96" y="-11" type="curve" smooth="yes"/>
      <point x="142" y="-11"/>
      <point x="188" y="12"/>
      <point x="238" y="162" type="curve"/>
      <point x="261" y="118"/>
      <point x="283" y="74"/>
      <point x="306" y="30" type="curve" smooth="yes"/>
      <point x="335" y="-27"/>
      <point x="339" y="-58"/>
      <point x="336" y="-86" type="curve" smooth="yes"/>
      <point x="331" y="-131"/>
      <point x="280" y="-165"/>
      <point x="234" y="-184" type="curve"/>
    </contour>
  </outline>
</glyph>
<glyph name="Hastroke-cy" format="2">
  <advance width="700"/>
  <unicode hex="04FE"/>
  <outline>
    <contour>
      <point x="21" y="0" type="line"/>
      <point x="242" y="0" type="line"/>
      <point x="246" y="77" type="line"/>
      <point x="174" y="73" type="line"/>
      <point x="174" y="74" type="line"/>
      <point x="191" y="90"/>
      <point x="203" y="104"/>
      <point x="233" y="142" type="curve" smooth="yes"/>
      <point x="264" y="182"/>
      <point x="296" y="223"/>
      <point x="327" y="263" type="curve"/>
      <point x="328" y="263" type="line"/>
      <point x="359" y="220"/>
      <point x="391" y="177"/>
      <point x="422" y="134" type="curve" smooth="yes"/>
      <point x="451" y="96"/>
      <point x="459" y="66"/>
      <point x="386" y="66" type="curve"/>
      <point x="382" y="0" type="line"/>
      <point x="679" y="0" type="line"/>
      <point x="683" y="77" type="line"/>
      <point x="644" y="74" type="line"/>
      <point x="634" y="97"/>
      <point x="615" y="122"/>
      <point x="594" y="150" type="curve"/>
      <point x="467" y="318" type="line"/>
      <point x="467" y="320" type="line"/>
      <point x="631" y="321" type="line"/>
      <point x="635" y="397" type="line"/>
      <point x="423" y="397" type="line"/>
      <point x="423" y="399" type="line"/>
      <point x="521" y="521" type="line" smooth="yes"/>
      <point x="579" y="594"/>
      <point x="622" y="628"/>
      <point x="668" y="634" type="curve"/>
      <point x="672" y="700" type="line"/>
      <point x="444" y="700" type="line"/>
      <point x="440" y="623" type="line"/>
      <point x="515" y="627" type="line"/>
      <point x="515" y="626" type="line"/>
      <point x="497" y="610"/>
      <point x="483" y="597"/>
      <point x="453" y="558" type="curve" smooth="yes"/>
      <point x="372" y="451" type="line"/>
      <point x="370" y="451" type="line"/>
      <point x="343" y="489"/>
      <point x="316" y="528"/>
      <point x="289" y="566" type="curve" smooth="yes"/>
      <point x="262" y="604"/>
      <point x="262" y="634"/>
      <point x="335" y="634" type="curve"/>
      <point x="339" y="700" type="line"/>
      <point x="37" y="700" type="line"/>
      <point x="33" y="623" type="line"/>
      <point x="73" y="626" type="line"/>
      <point x="86" y="592"/>
      <point x="106" y="560"/>
      <point x="128" y="532" type="curve" smooth="yes"/>
      <point x="163" y="487"/>
      <point x="198" y="443"/>
      <point x="233" y="398" type="curve"/>
      <point x="233" y="395" type="line"/>
      <point x="110" y="397" type="line"/>
      <point x="106" y="318" type="line"/>
      <point x="274" y="319" type="line"/>
      <point x="274" y="317" type="line"/>
      <point x="154" y="173" type="line" smooth="yes"/>
      <point x="100" y="109"/>
      <point x="63" y="75"/>
      <point x="25" y="66" type="curve"/>
    </contour>
  </outline>
</glyph>
<glyph name="Elhook-cy" format="2">
  <advance width="780"/>
  <unicode hex="0512"/>
  <outline>
    <contour>
      <point x="437" y="-229" type="curve" smooth="yes"/>
      <point x="567" y="-229"/>
      <point x="638" y="-119"/>
      <point x="646" y="34" type="curve" smooth="yes"/>
      <point x="673" y="547" type="line" smooth="yes"/>
      <point x="677" y="628"/>
      <point x="704" y="632"/>
      <point x="749" y="634" type="curve"/>
      <point x="752" y="700" type="line"/>
      <point x="195" y="700" type="line"/>
      <point x="191" y="623" type="line"/>
      <point x="308" y="626" type="line"/>
      <point x="292" y="308"/>
      <point x="239" y="75"/>
      <point x="164" y="75" type="curve" smooth="yes"/>
      <point x="158" y="75"/>
      <point x="152" y="76"/>
      <point x="149" y="78" type="curve"/>
      <point x="152" y="85"/>
      <point x="154" y="93"/>
      <point x="154" y="100" type="curve" smooth="yes"/>
      <point x="154" y="132"/>
      <point x="125" y="161"/>
      <point x="85" y="161" type="curve" smooth="yes"/>
      <point x="33" y="161"/>
      <point x="8" y="121"/>
      <point x="8" y="83" type="curve" smooth="yes"/>
      <point x="8" y="21"/>
      <point x="56" y="-11"/>
      <point x="113" y="-11" type="curve" smooth="yes"/>
      <point x="245" y="-11"/>
      <point x="363" y="138"/>
      <point x="382" y="563" type="curve" smooth="yes"/>
      <point x="384" y="607"/>
      <point x="407" y="621"/>
      <point x="452" y="622" type="curve" smooth="yes"/>
      <point x="538" y="625" type="line"/>
      <point x="531" y="588"/>
      <point x="529" y="552"/>
      <point x="527" y="515" type="curve"/>
      <point x="501" y="23" type="line" smooth="yes"/>
      <point x="494" y="-112"/>
      <point x="440" y="-156"/>
      <point x="388" y="-156" type="curve" smooth="yes"/>
      <point x="367" y="-156"/>
      <point x="349" y="-155"/>
      <point x="325" y="-149" type="curve"/>
      <point x="306" y="-212" type="line"/>
      <point x="370" y="-229"/>
      <point x="410" y="-229"/>
    </contour>
  </outline>
</glyph>
<glyph name="EnLeftHook-cy" format="2">
  <advance width="798"/>
  <unicode hex="0528"/>
  <outline>
    <contour>
      <point x="37" y="-229" type="curve" smooth="yes"/>
      <point x="167" y="-229"/>
      <point x="238" y="-119"/>
      <point x="246" y="34" type="curve" smooth="yes"/>
      <point x="261" y="312" type="line"/>
      <point x="537" y="315" type="line"/>
      <point x="528" y="153" type="line" smooth="yes"/>
      <point x="524" y="72"/>
      <point x="497" y="68"/>
      <point x="452" y="66" type="curve"/>
      <point x="449" y="0" type="line"/>
      <point x="733" y="0" type="line"/>
      <point x="737" y="77" type="line"/>
      <point x="662" y="74" type="line"/>
      <point x="665" y="91"/>
      <point x="669" y="128"/>
      <point x="671" y="164" type="curve" smooth="yes"/>
      <point x="691" y="547" type="line" smooth="yes"/>
      <point x="695" y="628"/>
      <point x="722" y="632"/>
      <point x="767" y="634" type="curve"/>
      <point x="770" y="700" type="line"/>
      <point x="485" y="700" type="line"/>
      <point x="481" y="623" type="line"/>
      <point x="557" y="626" type="line"/>
      <point x="553" y="609"/>
      <point x="550" y="572"/>
      <point x="548" y="536" type="curve" smooth="yes"/>
      <point x="540" y="391" type="line"/>
      <point x="265" y="391" type="line"/>
      <point x="273" y="547" type="line" smooth="yes"/>
      <point x="277" y="628"/>
      <point x="304" y="632"/>
      <point x="349" y="634" type="curve"/>
      <point x="352" y="700" type="line"/>
      <point x="67" y="700" type="line"/>
      <point x="63" y="623" type="line"/>
      <point x="139" y="626" type="line"/>
      <point x="135" y="609"/>
      <point x="132" y="572"/>
      <point x="130" y="536" type="curve" smooth="yes"/>
      <point x="103" y="23" type="line" smooth="yes"/>
      <point x="96" y="-112"/>
      <point x="40" y="-156"/>
      <point x="-12" y="-156" type="curve" smooth="yes"/>
      <point x="-33" y="-156"/>
      <point x="-51" y="-155"/>
      <point x="-75" y="-149" type="curve"/>
      <point x="-94" y="-212" type="line"/>
      <point x="-30" y="-229"/>
      <point x="10" y="-229"/>
    </contour>
  </outline>
</glyph>
<glyph name="enlefthook-cy" format="2">
  <advance width="591"/>
  <unicode hex="0529"/>
  <outline>
    <contour>
      <point x="8" y="-234" type="curve" smooth="yes"/>
      <point x="131" y="-234"/>
      <point x="185" y="-138"/>
      <point x="201" y="8" type="curve" smooth="yes"/>
      <point x="208" y="68"/>
      <point x="214" y="144"/>
      <point x="219" y="217" type="curve"/>
      <point x="352" y="217" type="line"/>
      <point x="346" y="166"/>
      <point x="340" y="121"/>
      <point x="340" y="90" type="curve" smooth="yes"/>
      <point x="340" y="9"/>
      <point x="389" y="-11"/>
      <point x="432" y="-11" type="curve" smooth="yes"/>
      <point x="520" y="-11"/>
      <point x="573" y="88"/>
      <point x="584" y="145" type="curve"/>
      <point x="530" y="161" type="line"/>
      <point x="513" y="101"/>
      <point x="497" y="82"/>
      <point x="482" y="82" type="curve" smooth="yes"/>
      <point x="475" y="82"/>
      <point x="468" y="86"/>
      <point x="468" y="108" type="curve" smooth="yes"/>
      <point x="468" y="157"/>
      <point x="505" y="366"/>
      <point x="505" y="452" type="curve" smooth="yes"/>
      <point x="505" y="465"/>
      <point x="505" y="472"/>
      <point x="502" y="500" type="curve"/>
      <point x="368" y="500" type="line"/>
      <point x="369" y="480"/>
      <point x="370" y="460"/>
      <point x="370" y="440" type="curve" smooth="yes"/>
      <point x="370" y="388"/>
      <point x="366" y="335"/>
      <point x="360" y="286" type="curve"/>
      <point x="224" y="286" type="line"/>
      <point x="230" y="367"/>
      <point x="233" y="434"/>
      <point x="233" y="452" type="curve" smooth="yes"/>
      <point x="233" y="460"/>
      <point x="233" y="472"/>
      <point x="231" y="500" type="curve"/>
      <point x="97" y="500" type="line"/>
      <point x="101" y="419"/>
      <point x="78" y="76"/>
      <point x="67" y="-2" type="curve" smooth="yes"/>
      <point x="48" y="-136"/>
      <point x="29" y="-166"/>
      <point x="-28" y="-166" type="curve" smooth="yes"/>
      <point x="-50" y="-166"/>
      <point x="-62" y="-161"/>
      <point x="-87" y="-155" type="curve"/>
      <point x="-105" y="-217" type="line"/>
      <point x="-55" y="-231"/>
      <point x="-29" y="-234"/>
    </contour>
  </outline>
</glyph>
<glyph name="emdash" format="2">
  <advance width="769"/>
  <unicode hex="2014"/>
  <outline>
    <contour>
      <point x="720" y="366" type="line"/>
      <point x="55" y="366" type="line"/>
      <point x="50" y="261" type="line"/>
      <point x="715" y="265" type="line"/>
    </contour>
  </outline>
</glyph>
<glyph name="dagger" format="2">
  <advance width="507"/>
  <unicode hex="2020"/>
  <outline>
    <contour>
      <point x="281" y="754" type="curve" smooth="yes"/>
      <point x="229" y="754"/>
      <point x="209" y="703"/>
      <point x="211" y="663" type="curve" smooth="yes"/>
      <point x="213" y="609"/>
      <point x="224" y="540"/>
      <point x="231" y="487" type="curve"/>
      <point x="189" y="495"/>
      <point x="146" y="508"/>
      <point x="104" y="508" type="curve" smooth="yes"/>
      <point x="69" y="508"/>
      <point x="34" y="499"/>
      <point x="32" y="454" type="curve" smooth="yes"/>
      <point x="29" y="408"/>
      <point x="64" y="398"/>
      <point x="100" y="398" type="curve" smooth="yes"/>
      <point x="107" y="398"/>
      <point x="149" y="399"/>
      <point x="222" y="419" type="curve"/>
      <point x="208" y="372"/>
      <point x="195" y="310"/>
      <point x="182" y="280" type="curve"/>
      <point x="194" y="113"/>
      <point x="194" y="-100"/>
      <point x="195" y="-271" type="curve"/>
      <point x="256" y="-271" type="line"/>
      <point x="276" y="-97"/>
      <point x="297" y="112"/>
      <point x="328" y="280" type="curve"/>
      <point x="317" y="309"/>
      <point x="310" y="372"/>
      <point x="302" y="419" type="curve"/>
      <point x="335" y="412"/>
      <point x="369" y="403"/>
      <point x="422" y="398" type="curve"/>
      <point x="458" y="398"/>
      <point x="494" y="408"/>
      <point x="496" y="454" type="curve" smooth="yes"/>
      <point x="499" y="499"/>
      <point x="465" y="508"/>
      <point x="429" y="508" type="curve" smooth="yes"/>
      <point x="387" y="508"/>
      <point x="342" y="495"/>
      <point x="300" y="486" type="curve"/>
      <point x="312" y="539"/>
      <point x="331" y="610"/>
      <point x="338" y="663" type="curve" smooth="yes"/>
      <point x="344" y="703"/>
      <point x="333" y="754"/>
    </contour>
  </outline>
</glyph>
